<svg width="24" height="24" viewBox="0 0 24 24" fill="none" xmlns="http://www.w3.org/2000/svg">
    <path fill-rule="evenodd" clip-rule="evenodd" d="M1 3.5C1 2.11929 2.11929 1 3.5 1H8.5C9.88071 1 11 2.11929 11 3.5V8.5C11 9.88071 9.88071 11 8.5 11H3.5C2.11929 11 1 9.88071 1 8.5V3.5ZM3.5 3C3.22386 3 3 3.22386 3 3.5V8.5C3 8.77614 3.22386 9 3.5 9H8.5C8.77614 9 9 8.77614 9 8.5V3.5C9 3.22386 8.77614 3 8.5 3H3.5Z" fill="#1E212C"/>
    <path fill-rule="evenodd" clip-rule="evenodd" d="M1 15.5C1 14.1193 2.11929 13 3.5 13H8.5C9.88071 13 11 14.1193 11 15.5V20.5C11 21.8807 9.88071 23 8.5 23H3.5C2.11929 23 1 21.8807 1 20.5V15.5ZM3.5 15C3.22386 15 3 15.2239 3 15.5V20.5C3 20.7761 3.22386 21 3.5 21H8.5C8.77614 21 9 20.7761 9 20.5V15.5C9 15.2239 8.77614 15 8.5 15H3.5Z" fill="#1E212C"/>
    <path fill-rule="evenodd" clip-rule="evenodd" d="M13 3.5C13 2.11929 14.1193 1 15.5 1H20.5C21.8807 1 23 2.11929 23 3.5V8.5C23 9.88071 21.8807 11 20.5 11H15.5C14.1193 11 13 9.88071 13 8.5V3.5ZM15.5 3C15.2239 3 15 3.22386 15 3.5V8.5C15 8.77614 15.2239 9 15.5 9H20.5C20.7761 9 21 8.77614 21 8.5V3.5C21 3.22386 20.7761 3 20.5 3H15.5Z" fill="#1E212C"/>
    <path fill-rule="evenodd" clip-rule="evenodd" d="M13 15.5C13 14.1193 14.1193 13 15.5 13H20.5C21.8807 13 23 14.1193 23 15.5V20.5C23 21.8807 21.8807 23 20.5 23H15.5C14.1193 23 13 21.8807 13 20.5V15.5ZM15.5 15C15.2239 15 15 15.2239 15 15.5V20.5C15 20.7761 15.2239 21 15.5 21H20.5C20.7761 21 21 20.7761 21 20.5V15.5C21 15.2239 20.7761 15 20.5 15H15.5Z" fill="#1E212C"/>
</svg>
