<svg width="24" height="24" viewBox="0 0 24 24" fill="none" xmlns="http://www.w3.org/2000/svg">
    <path fill-rule="evenodd" clip-rule="evenodd" d="M12.784 4.17165C12.2705 4.03263 11.7294 4.03263 11.2159 4.17165C10.6814 4.31638 10.163 4.69556 8.68467 5.84535L6.08467 7.86757C5.13323 8.60758 4.81379 8.86704 4.58799 9.17233C4.371 9.46571 4.20935 9.79622 4.11099 10.1476C4.00864 10.5133 3.99995 10.9247 3.99995 12.1301V18.7499C3.99995 19.5205 4.01081 19.6841 4.04301 19.7902C4.13996 20.1098 4.39007 20.3599 4.70967 20.4569C4.81583 20.4891 4.97942 20.4999 5.74995 20.4999H6.37495C6.50289 20.4999 6.53068 20.4996 6.54902 20.4987C7.06272 20.4735 7.47351 20.0627 7.49875 19.549C7.49965 19.5307 7.49995 19.5029 7.49995 19.3749V16.4999C7.49995 14.0147 9.51467 11.9999 12 11.9999C14.4852 11.9999 16.5 14.0147 16.5 16.4999V19.3749C16.5 19.5029 16.5003 19.5307 16.5012 19.549C16.5264 20.0627 16.9372 20.4735 17.4509 20.4987C17.4692 20.4996 17.497 20.4999 17.625 20.4999H18.25C19.0205 20.4999 19.1841 20.4891 19.2902 20.4569C19.6098 20.3599 19.8599 20.1098 19.9569 19.7902C19.9891 19.6841 20 19.5205 20 18.7499V12.1301C20 10.9247 19.9913 10.5133 19.8889 10.1476C19.7906 9.79622 19.6289 9.46571 19.4119 9.17233C19.1861 8.86704 18.8667 8.60758 17.9152 7.86757L15.3152 5.84535C13.8369 4.69556 13.3185 4.31638 12.784 4.17165ZM10.6932 2.24116C11.549 2.00946 12.4509 2.00946 13.3067 2.24116C14.28 2.50468 15.134 3.16957 16.3729 4.1342C16.4289 4.17774 16.4856 4.22189 16.5431 4.26664L19.1431 6.28887C19.1791 6.31682 19.2145 6.34438 19.2495 6.37158C20.0538 6.99674 20.6103 7.42922 21.0199 7.98303C21.3815 8.472 21.6509 9.02285 21.8149 9.60852C22.0006 10.2719 22.0003 10.9766 22 11.9953C22 12.0396 22 12.0845 22 12.1301V18.7499C22 18.7923 22 18.8342 22.0001 18.8758C22.0007 19.447 22.0013 19.9405 21.8708 20.3708C21.5799 21.3296 20.8296 22.0799 19.8708 22.3708C19.4405 22.5013 18.9471 22.5007 18.3758 22.5C18.3342 22.5 18.2923 22.4999 18.25 22.4999L17.604 22.4999C17.5088 22.5 17.4271 22.5 17.3527 22.4963C15.8116 22.4206 14.5793 21.1883 14.5036 19.6471C14.4999 19.5728 14.4999 19.491 14.4999 19.3959L14.5 16.4999C14.5 15.1192 13.3807 13.9999 12 13.9999C10.6192 13.9999 9.49995 15.1192 9.49995 16.4999L9.49995 19.3959C9.49997 19.4911 9.49999 19.5728 9.49634 19.6471C9.42063 21.1883 8.18827 22.4206 6.64715 22.4963C6.57282 22.5 6.49106 22.5 6.3959 22.4999L5.74995 22.4999C5.70759 22.4999 5.66565 22.5 5.62412 22.5C5.05285 22.5007 4.55944 22.5013 4.1291 22.3708C3.17029 22.0799 2.41998 21.3296 2.12913 20.3708C1.99859 19.9404 1.99917 19.447 1.99985 18.8758C1.9999 18.8342 1.99995 18.7923 1.99995 18.7499V12.1301C1.99995 12.0845 1.99994 12.0396 1.99992 11.9953C1.99958 10.9766 1.99934 10.2719 2.18502 9.60852C2.34896 9.02285 2.61837 8.472 2.98002 7.98303C3.38964 7.42921 3.94607 6.99673 4.75041 6.37157C4.7854 6.34438 4.82085 6.31682 4.85679 6.28887L7.45679 4.26664C7.51433 4.22189 7.57104 4.17774 7.62696 4.1342C8.86594 3.16957 9.71993 2.50468 10.6932 2.24116Z" fill="#1E212C"/>
</svg>
