<svg width="24" height="24" viewBox="0 0 24 24" fill="none" xmlns="http://www.w3.org/2000/svg">
    <path fill-rule="evenodd" clip-rule="evenodd" d="M1 3.5C1 2.11929 2.11929 1 3.5 1H20.5C21.8807 1 23 2.11929 23 3.5V8.5C23 9.88071 21.8807 11 20.5 11H3.5C2.11929 11 1 9.88071 1 8.5V3.5ZM3.5 3C3.22386 3 3 3.22386 3 3.5V8.5C3 8.77614 3.22386 9 3.5 9H20.5C20.7761 9 21 8.77614 21 8.5V3.5C21 3.22386 20.7761 3 20.5 3H3.5Z" fill="#1E212C"/>
    <path fill-rule="evenodd" clip-rule="evenodd" d="M1 15.5C1 14.1193 2.11929 13 3.5 13H20.5C21.8807 13 23 14.1193 23 15.5V20.5C23 21.8807 21.8807 23 20.5 23H3.5C2.11929 23 1 21.8807 1 20.5V15.5ZM3.5 15C3.22386 15 3 15.2239 3 15.5V20.5C3 20.7761 3.22386 21 3.5 21H20.5C20.7761 21 21 20.7761 21 20.5V15.5C21 15.2239 20.7761 15 20.5 15H3.5Z" fill="#1E212C"/>
</svg>
