<svg width="24" height="24" viewBox="0 0 24 24" fill="none" xmlns="http://www.w3.org/2000/svg">
    <path d="M7.5 20.75C6.94772 20.75 6.5 21.1977 6.5 21.75C6.5 22.3023 6.94772 22.75 7.5 22.75H17.75C20.5114 22.75 22.75 20.5114 22.75 17.75V6.25C22.75 3.48857 20.5114 1.25 17.75 1.25H7.5C6.94771 1.25 6.5 1.69771 6.5 2.25C6.5 2.80228 6.94771 3.25 7.5 3.25L17.75 3.25C19.4069 3.25 20.75 4.59314 20.75 6.25V17.75C20.75 19.4069 19.4069 20.75 17.75 20.75H7.5Z" fill="#1E212C"/>
    <path d="M18.25 12C18.25 12.2652 18.1446 12.5196 17.9571 12.7071L13.4571 17.2071C13.0666 17.5976 12.4334 17.5976 12.0429 17.2071C11.6524 16.8166 11.6524 16.1834 12.0429 15.7929L14.8358 13L2.25 13C1.69771 13 1.25 12.5523 1.25 12C1.25 11.4477 1.69771 11 2.25 11L14.8358 11L12.0429 8.20711C11.6524 7.81658 11.6524 7.18342 12.0429 6.79289C12.4334 6.40237 13.0666 6.40237 13.4571 6.79289L17.9571 11.2929C18.1446 11.4804 18.25 11.7348 18.25 12Z" fill="#1E212C"/>
</svg>
