<svg width="24" height="24" viewBox="0 0 24 24" fill="none" xmlns="http://www.w3.org/2000/svg">
    <path d="M5.20627 12.8075C4.63406 13.9121 5.28375 14.4401 6.7661 15.3421C8.02628 16.1066 9.76719 16.3861 10.8855 16.498C10.4272 16.9306 12.5274 14.947 6.47859 20.6606C5.19601 21.8678 7.26083 23.8048 8.54248 22.6232L12.0122 19.3369C13.3405 20.5918 14.6137 21.7945 15.4819 22.6278C16.7645 23.8139 18.8283 21.8935 17.5598 20.6652C17.4646 20.5762 12.8579 16.2367 13.1389 16.5026C14.2712 16.3907 15.9859 16.0946 17.2312 15.3466L17.2303 15.3457C18.7126 14.4391 19.3623 13.9121 18.7985 12.8075C18.4578 12.1805 17.5392 11.6561 16.3164 12.5627C16.3164 12.5627 14.6651 13.8048 12.0019 13.8048C9.3378 13.8048 7.68743 12.5627 7.68743 12.5627C6.46552 11.6515 5.54326 12.1805 5.20627 12.8075Z"
          fill="#1E212C"/>
    <path d="M12.0009 12.1302C15.2475 12.1302 17.8985 9.63871 17.8985 6.57153C17.8985 3.49151 15.2475 1 12.0009 1C8.75335 1 6.10231 3.49151 6.10231 6.57153C6.10231 9.63871 8.75335 12.1302 12.0009 12.1302ZM12.0009 3.82243C13.5962 3.82243 14.8974 5.05169 14.8974 6.57153C14.8974 8.07854 13.5962 9.30779 12.0009 9.30779C10.4056 9.30779 9.10434 8.07854 9.10434 6.57153C9.1034 5.05077 10.4047 3.82243 12.0009 3.82243Z"
          fill="#1E212C"/>
</svg>
