<svg width="24" height="24" viewBox="0 0 24 24" fill="none" xmlns="http://www.w3.org/2000/svg">
    <path d="M10.5859 23H7.45455C7.25253 23 7.05051 23 6.84849 22.9C6.64647 22.8 6.44445 22.7 6.34343 22.5C6.24242 22.3 6.0404 22.1 6.0404 21.9C5.93939 21.7 5.93939 21.4 6.0404 21.2L6.14141 20.8H4.12121C3.0101 20.8 2 19.8 2 18.7V18.6L4.12121 3C4.22222 1.9 5.13131 1 6.24242 1H12.5051C15.9394 1 18.3636 3 18.9697 6C20.8889 7.3 22 9.4 22 12C22 15.4 18.4646 18 15.3333 18H13.2121L12.7071 21.2C12.6061 21.7 12.404 22.2 12 22.5C11.596 22.8 11.0909 23 10.5859 23ZM7.9596 21H10.4848L10.5859 20.9L11.1919 16.8C11.2929 16.3 11.697 16 12.202 16H15.1313C17.2525 16 19.7778 14.2 19.7778 12C19.7778 11.2 19.5758 9.8 18.8687 8.7C18.2626 11.6 15.3333 14.1 12.404 14.1H9.47475C9.47475 14.1 9.37374 14.2 9.37374 14.4L8.16162 20L7.9596 21ZM3.81818 18.7L3.91919 18.8H6.34343L7.55556 14C7.75758 12.9 8.56566 12.1 9.67677 12.1H12.6061C14.8283 12.1 17.2525 9.8 17.2525 7.5C17.2525 4.6 15.5354 2.9 12.6061 2.9H6.24242L6.14141 3V3.1L3.81818 18.7Z"
          fill="#1E212C"/>
</svg>
