<svg width="24" height="24" viewBox="0 0 24 24" fill="none" xmlns="http://www.w3.org/2000/svg">
    <path d="M4.8575 21.9998C6.43565 21.9998 7.715 20.7205 7.715 19.1424C7.715 17.5643 6.43565 16.2849 4.8575 16.2849C3.27935 16.2849 2 17.5643 2 19.1424C2 20.7205 3.27935 21.9998 4.8575 21.9998Z"
          fill="#1E212C"/>
    <path d="M11.5242 22H15.3325C15.3325 14.6493 9.35083 8.66773 2 8.66689V12.4768C7.25167 12.4777 11.5242 16.7484 11.5242 22Z"
          fill="#1E212C"/>
    <path d="M22 21.9997C22 10.9715 13.0283 2 2 2V5.80911C10.9283 5.80911 18.1917 13.0707 18.1917 21.9997H22Z"
          fill="#1E212C"/>
</svg>
