<svg width="24" height="24" viewBox="0 0 24 24" fill="none" xmlns="http://www.w3.org/2000/svg">
    <path d="M9.106 12.5987C7.82992 12.5987 6.79494 13.6337 6.79494 14.9097V20.6906C6.79494 21.9666 7.82992 23.0016 9.106 23.0016C10.3821 23.0016 11.417 21.9666 11.417 20.6906V14.9097C11.4161 13.6337 10.3812 12.5987 9.106 12.5987Z"
          fill="#1E212C"/>
    <path d="M1.01709 14.9089C1.01709 16.1859 2.05299 17.2218 3.32998 17.2218C4.60697 17.2218 5.64287 16.1859 5.64287 14.9089V12.596H3.33181C3.3309 12.596 3.3309 12.596 3.32998 12.596C2.05299 12.596 1.01709 13.6319 1.01709 14.9089Z"
          fill="#1E212C"/>
    <path d="M9.10879 1C9.10787 1 9.10696 1 9.10604 1C7.82905 1 6.79315 2.0359 6.79315 3.31289C6.79315 4.58988 7.82905 5.62578 9.10604 5.62578H11.4171C11.4171 4.31395 11.4171 4.63297 11.4171 3.30831C11.4162 2.03315 10.383 1 9.10879 1Z"
          fill="#1E212C"/>
    <path d="M3.31387 11.4242H9.10571C10.3827 11.4242 11.4186 10.3883 11.4186 9.11133C11.4186 7.83434 10.3827 6.79844 9.10571 6.79844H3.31387C2.03687 6.79844 1.00098 7.83434 1.00098 9.11133C1.00098 10.3883 2.03687 11.4242 3.31387 11.4242Z"
          fill="#1E212C"/>
    <path d="M20.6688 6.79755C19.3936 6.79755 18.3605 7.83069 18.3605 9.10585V11.4233H20.6716C21.9485 11.4233 22.9844 10.3874 22.9844 9.11044C22.9844 7.83344 21.9485 6.79755 20.6716 6.79755C20.6706 6.79755 20.6697 6.79755 20.6688 6.79755Z"
          fill="#1E212C"/>
    <path d="M12.5871 3.31285V9.11111C12.5871 10.3872 13.6221 11.4222 14.8982 11.4222C16.1743 11.4222 17.2092 10.3872 17.2092 9.11111V3.31285C17.2092 2.03677 16.1743 1.00179 14.8982 1.00179C13.6221 1.00179 12.5871 2.03677 12.5871 3.31285Z"
          fill="#1E212C"/>
    <path d="M17.2083 20.6885C17.2083 19.4124 16.1734 18.3774 14.8973 18.3774H12.5862V20.6903C12.5871 21.9655 13.6212 22.9995 14.8973 22.9995C16.1734 22.9995 17.2083 21.9645 17.2083 20.6885Z"
          fill="#1E212C"/>
    <path d="M20.6901 12.596H14.8982C13.6212 12.596 12.5853 13.6319 12.5853 14.9089C12.5853 16.1859 13.6212 17.2218 14.8982 17.2218H20.6901C21.9671 17.2218 23.003 16.1859 23.003 14.9089C23.003 13.6319 21.9671 12.596 20.6901 12.596Z"
          fill="#1E212C"/>
</svg>
