<svg width="24" height="24" viewBox="0 0 24 24" fill="none" xmlns="http://www.w3.org/2000/svg">
  <path fill-rule="evenodd" clip-rule="evenodd"
    d="M6.5 12C6.5 8.96243 8.96243 6.5 12 6.5C15.0376 6.5 17.5 8.96243 17.5 12C17.5 15.0376 15.0376 17.5 12 17.5C8.96243 17.5 6.5 15.0376 6.5 12ZM12 8.5C10.067 8.5 8.5 10.067 8.5 12C8.5 13.933 10.067 15.5 12 15.5C13.933 15.5 15.5 13.933 15.5 12C15.5 10.067 13.933 8.5 12 8.5Z"
    fill="#1E212C" />
  <path fill-rule="evenodd" clip-rule="evenodd"
    d="M12 3.25C7.16751 3.25 3.25 7.16751 3.25 12C3.25 16.8325 7.16751 20.75 12 20.75C12.5523 20.75 13 21.1977 13 21.75C13 22.3023 12.5523 22.75 12 22.75C6.06294 22.75 1.25 17.9371 1.25 12C1.25 6.06294 6.06294 1.25 12 1.25C17.9371 1.25 22.75 6.06294 22.75 12C22.75 13.1233 22.5505 14.7484 22.0293 16.1288C21.5428 17.4173 20.5647 19 18.75 19C17.8608 19 16.9774 18.767 16.3394 18.0611C15.7212 17.3771 15.5 16.4292 15.5 15.375V8.25C15.5 7.69772 15.9477 7.25 16.5 7.25C17.0523 7.25 17.5 7.69772 17.5 8.25V15.375C17.5 16.1958 17.6789 16.5604 17.8232 16.7201C17.9479 16.858 18.1895 17 18.75 17C19.1853 17 19.7072 16.6168 20.1582 15.4224C20.5745 14.3199 20.75 12.945 20.75 12C20.75 7.16751 16.8325 3.25 12 3.25Z"
    fill="#1E212C" />
</svg>
