<svg width="24" height="25" viewBox="0 0 24 25" fill="none" xmlns="http://www.w3.org/2000/svg">
  <path fill-rule="evenodd" clip-rule="evenodd"
    d="M6.00383 2.46655C6.6227 1.84768 7.46207 1.5 8.33729 1.5L15.6627 1.5C16.5379 1.5 17.3773 1.84768 17.9961 2.46655L22.0334 6.50385C22.6523 7.12272 23 7.96209 23 8.83731V16.1627C23 17.0379 22.6523 17.8773 22.0334 18.4961L17.9961 22.5335C17.3773 23.1523 16.5379 23.5 15.6627 23.5L8.33729 23.5C7.46207 23.5 6.6227 23.1523 6.00383 22.5334L1.96654 18.4961C1.34768 17.8773 1 17.0379 1 16.1627L1 8.8373C1 7.96209 1.34768 7.12272 1.96654 6.50386L6.00383 2.46655ZM8.33729 3.5C7.99251 3.5 7.66185 3.63696 7.41805 3.88076L3.38076 7.91807C3.13696 8.16186 3 8.49252 3 8.8373V16.1627C3 16.5075 3.13696 16.8381 3.38076 17.0819L7.41805 21.1192C7.66184 21.363 7.99251 21.5 8.33729 21.5L15.6627 21.5C16.0075 21.5 16.3381 21.363 16.5819 21.1192L20.6192 17.0819C20.863 16.8381 21 16.5075 21 16.1627V8.83731C21 8.49253 20.863 8.16186 20.6192 7.91807L16.5819 3.88076C16.3381 3.63696 16.0075 3.5 15.6627 3.5H8.33729Z"
    fill="#1E212C" />
  <path
    d="M13 17C13 17.5523 12.5523 18 12 18C11.4477 18 11 17.5523 11 17C11 16.4477 11.4477 16 12 16C12.5523 16 13 16.4477 13 17Z"
    fill="#1E212C" />
  <path fill-rule="evenodd" clip-rule="evenodd"
    d="M12 14.625C11.4477 14.625 11 14.1773 11 13.625V8.00001C11 7.44773 11.4477 7.00001 12 7.00001C12.5523 7.00001 13 7.44773 13 8.00001V13.625C13 14.1773 12.5523 14.625 12 14.625Z"
    fill="#1E212C" />
</svg>
