<svg width="24" height="24" viewBox="0 0 24 24" fill="none" xmlns="http://www.w3.org/2000/svg">
    <path fill-rule="evenodd" clip-rule="evenodd"
          d="M6 3.25C4.89543 3.25 4 4.14543 4 5.25L4 18.75C4 19.8546 4.89543 20.75 6 20.75H18C19.1046 20.75 20 19.8546 20 18.75V5.25001C20 4.14545 19.1046 3.25002 18 3.25001L6 3.25ZM2 5.25C2 3.04086 3.79086 1.25 6.00001 1.25L18 1.25001C20.2091 1.25002 22 3.04088 22 5.25001V18.75C22 20.9591 20.2091 22.75 18 22.75H6C3.79086 22.75 2 20.9591 2 18.75L2 5.25ZM16.5 4.99998C17.0523 4.99998 17.5 5.44769 17.5 5.99998L17.5 7.49998C17.5 10.5375 15.0376 13 12 13C8.96243 13 6.5 10.5375 6.5 7.49998V5.99998C6.5 5.44769 6.94771 4.99998 7.5 4.99998C8.05228 4.99998 8.5 5.44769 8.5 5.99998V7.49998C8.5 9.43297 10.067 11 12 11C13.933 11 15.5 9.43297 15.5 7.49998L15.5 5.99998C15.5 5.44769 15.9477 4.99998 16.5 4.99998Z"
          fill="#1E212C"/>
</svg>
