<svg width="24" height="24" viewBox="0 0 24 24" fill="none" xmlns="http://www.w3.org/2000/svg">
    <path fill-rule="evenodd" clip-rule="evenodd" d="M4.54289 19.5037C4.15237 19.1132 4.15237 18.48 4.54289 18.0895L18.0429 4.58952C18.4334 4.199 19.0666 4.199 19.4571 4.58952C19.8476 4.98005 19.8476 5.61321 19.4571 6.00374L5.95711 19.5037C5.56658 19.8943 4.93342 19.8943 4.54289 19.5037Z" fill="#1E212C"/>
    <path fill-rule="evenodd" clip-rule="evenodd" d="M12 3C7.02944 3 3 7.02944 3 12C3 16.9706 7.02944 21 12 21C16.9706 21 21 16.9706 21 12C21 7.02944 16.9706 3 12 3ZM1 12C1 5.92487 5.92487 1 12 1C18.0751 1 23 5.92487 23 12C23 18.0751 18.0751 23 12 23C5.92487 23 1 18.0751 1 12Z" fill="#1E212C"/>
</svg>
