<svg width="24" height="24" viewBox="0 0 24 24" fill="none" xmlns="http://www.w3.org/2000/svg">
    <path fill-rule="evenodd" clip-rule="evenodd"
          d="M4.25 4.75C3.69772 4.75 3.25 5.19771 3.25 5.75L3.25 7.25H20.75V5.75003C20.75 5.19774 20.3023 4.75003 19.75 4.75003L4.25 4.75ZM20.75 9.25H3.25V11.75H20.75V9.25ZM20.75 13.75H3.25L3.25 18.25C3.25 18.8023 3.69771 19.25 4.25 19.25L19.75 19.25C20.3023 19.25 20.75 18.8023 20.75 18.25V13.75ZM1.25 5.75C1.25 4.09315 2.59315 2.74999 4.25001 2.75L19.75 2.75003C21.4069 2.75003 22.75 4.09318 22.75 5.75003V18.25C22.75 19.9069 21.4069 21.25 19.75 21.25L4.25 21.25C2.59314 21.25 1.25 19.9069 1.25 18.25L1.25 5.75Z"
          fill="#1E212C"/>
</svg>
