<svg width="24" height="24" viewBox="0 0 24 24" fill="none" xmlns="http://www.w3.org/2000/svg">
    <path fill-rule="evenodd" clip-rule="evenodd" d="M12 3C7.02944 3 3 7.02944 3 12C3 16.9706 7.02944 21 12 21C16.9706 21 21 16.9706 21 12C21 7.02944 16.9706 3 12 3ZM1 12C1 5.92487 5.92487 1 12 1C18.0751 1 23 5.92487 23 12C23 18.0751 18.0751 23 12 23C5.92487 23 1 18.0751 1 12Z" fill="#1E212C"/>
    <path fill-rule="evenodd" clip-rule="evenodd" d="M17.1866 8.27299C17.5881 8.6522 17.6062 9.28511 17.227 9.68662L11.5603 15.6866C11.3714 15.8866 11.1085 16 10.8333 16C10.5582 16 10.2952 15.8866 10.1063 15.6866L6.77299 12.1572C6.39378 11.7557 6.41186 11.1228 6.81338 10.7436C7.21489 10.3644 7.8478 10.3824 8.22701 10.784L10.8333 13.5436L15.773 8.31338C16.1522 7.91186 16.7851 7.89378 17.1866 8.27299Z" fill="#1E212C"/>
</svg>
