<svg width="24" height="24" viewBox="0 0 24 24" fill="none" xmlns="http://www.w3.org/2000/svg">
    <path d="M19.4386 5.32427L19.2982 5.17133C17.4721 3.221 14.8762 2 12 2C10.8556 2 9.75573 2.1938 8.7308 2.54933L8.62667 2.58607C5.2792 3.78927 2.75353 6.72993 2.14267 10.3153C2.14193 10.3187 2.14087 10.3219 2.1402 10.3253C2.138 10.3367 2.13713 10.3481 2.13533 10.3595C2.0468 10.8935 2 11.4413 2 12C2 14.384 2.83907 16.5755 4.23673 18.2957C4.2374 18.2967 4.35313 18.4363 4.35313 18.4363C6.189 20.6139 8.93547 22 12 22C13.1581 22 14.2705 21.8015 15.3059 21.4377C15.3331 21.4293 15.3599 21.42 15.3861 21.4094C18.6707 20.2237 21.1616 17.3645 21.8246 13.8662C21.8263 13.8577 21.8281 13.8492 21.8295 13.8407C21.941 13.2438 22 12.6287 22 12C22 9.43667 21.0301 7.09587 19.4386 5.32427ZM12 4C14.0567 4 15.9344 4.78033 17.3531 6.0602C16.3596 7.42133 14.9705 8.3164 13.4489 8.89373C13.1953 8.30147 12.9419 7.76467 12.6991 7.2862C11.995 5.8994 11.3038 4.8368 10.7647 4.0954C11.1675 4.03273 11.5799 4 12 4ZM8.71573 4.7056C9.3122 5.45107 10.4437 7.034 11.5123 9.4576C8.7066 10.0595 5.8296 9.85993 4.3424 9.6834C5.0152 7.464 6.62793 5.64933 8.71573 4.7056ZM4 12C4 11.8863 4.003 11.7734 4.00767 11.6609C4.80467 11.7605 5.98647 11.8687 7.3644 11.8687C8.0316 11.8687 8.74493 11.8433 9.48213 11.7793C10.4647 11.694 11.3911 11.5465 12.2597 11.3407C12.4507 11.8784 12.6344 12.446 12.8064 13.0447C11.9053 13.3069 10.9746 13.6343 10.0153 14.0277C7.94693 14.8757 6.26047 15.8249 5.319 16.3952C4.4858 15.1329 4 13.6222 4 12ZM12 20C9.9418 20 8.0628 19.2185 6.64367 17.9369C7.9782 17.1528 10.4836 15.8162 13.2959 14.9896C13.6094 16.4324 13.8469 18.0214 13.9669 19.7551C13.3375 19.9148 12.6785 20 12 20ZM15.9119 18.9761C15.7714 17.3637 15.5341 15.8772 15.2367 14.5201C16.7091 14.2456 18.2101 14.1639 19.6279 14.4129C19.01 16.3617 17.6645 17.9894 15.9119 18.9761ZM19.9874 12.4447C18.4 12.1623 16.6494 12.2058 14.7484 12.5728C14.566 11.9307 14.3721 11.3254 14.1724 10.7561C16.0494 10.0379 17.5683 8.98027 18.6829 7.60787C19.515 8.86947 20 10.3791 20 12C20 12.1492 19.9956 12.2974 19.9874 12.4447Z"
          fill="#1E212C"/>
</svg>
