<svg width="24" height="24" viewBox="0 0 24 24" fill="none" xmlns="http://www.w3.org/2000/svg">
    <path fill-rule="evenodd" clip-rule="evenodd" d="M3 4C3 3.44772 3.44772 3 4 3H9C9.55228 3 10 3.44772 10 4C10 4.55228 9.55228 5 9 5H6.41421L12 10.5858L17.5858 5H15C14.4477 5 14 4.55228 14 4C14 3.44772 14.4477 3 15 3H20C20.5523 3 21 3.44772 21 4V9C21 9.55228 20.5523 10 20 10C19.4477 10 19 9.55228 19 9V6.41421L13.4142 12L19 17.5858V15C19 14.4477 19.4477 14 20 14C20.5523 14 21 14.4477 21 15V20C21 20.5523 20.5523 21 20 21H15C14.4477 21 14 20.5523 14 20C14 19.4477 14.4477 19 15 19H17.5858L12 13.4142L6.41421 19H9C9.55228 19 10 19.4477 10 20C10 20.5523 9.55228 21 9 21H4C3.44772 21 3 20.5523 3 20V15C3 14.4477 3.44772 14 4 14C4.55228 14 5 14.4477 5 15V17.5858L10.5858 12L5 6.41421V9C5 9.55228 4.55228 10 4 10C3.44772 10 3 9.55228 3 9V4Z" fill="#1E212C"/>
</svg>
