<svg width="24" height="24" viewBox="0 0 24 24" fill="none" xmlns="http://www.w3.org/2000/svg">
    <path fill-rule="evenodd" clip-rule="evenodd"
          d="M4.33691 18.667C4.33691 16.2751 6.27715 14.3338 8.6691 14.3338H13.0013V18.667C13.0013 21.0589 11.061 23.0002 8.6691 23.0002C6.27715 23.0002 4.33691 21.0589 4.33691 18.667ZM8.6691 16.3338C7.38231 16.3338 6.33691 17.379 6.33691 18.667C6.33691 19.9549 7.38231 21.0002 8.6691 21.0002C9.95588 21.0002 11.0013 19.9549 11.0013 18.667V16.3338H8.6691Z"
          fill="#1E212C"/>
    <path fill-rule="evenodd" clip-rule="evenodd"
          d="M8.6691 9.66737C7.38231 9.66737 6.33691 10.7126 6.33691 12.0006C6.33691 13.2885 7.38231 14.3338 8.6691 14.3338L11.0013 14.3338V9.66737H8.6691ZM4.33691 12.0006C4.33691 9.60866 6.27715 7.66737 8.6691 7.66737H13.0013V16.3338L8.6691 16.3338C6.27715 16.3338 4.33691 14.3925 4.33691 12.0006Z"
          fill="#1E212C"/>
    <path fill-rule="evenodd" clip-rule="evenodd"
          d="M8.6691 3.00098C7.3823 3.00098 6.33691 4.04625 6.33691 5.33418C6.33691 6.6221 7.3823 7.66737 8.6691 7.66737L11.0013 7.66737V3.00098H8.6691ZM4.33691 5.33418C4.33691 2.94225 6.27716 1.00098 8.6691 1.00098H13.0013V9.66737L8.6691 9.66737C6.27716 9.66737 4.33691 7.7261 4.33691 5.33418Z"
          fill="#1E212C"/>
    <path fill-rule="evenodd" clip-rule="evenodd"
          d="M11.0022 1.00098H15.3344C17.7264 1.00098 19.6666 2.94225 19.6666 5.33418C19.6666 7.72611 17.7264 9.66737 15.3344 9.66737L11.0013 9.66737L11.0022 1.00098ZM13.0022 3.00098L13.0013 7.66737L15.3344 7.66737C16.6212 7.66737 17.6666 6.6221 17.6666 5.33418C17.6666 4.04625 16.6212 3.00098 15.3344 3.00098H13.0022Z"
          fill="#1E212C"/>
    <path fill-rule="evenodd" clip-rule="evenodd"
          d="M15.3344 9.66737C14.0476 9.66737 13.0022 10.7127 13.0022 12.0006C13.0022 13.2885 14.0476 14.3338 15.3344 14.3338C16.6212 14.3338 17.6666 13.2885 17.6666 12.0006C17.6666 10.7127 16.6212 9.66737 15.3344 9.66737ZM11.0022 12.0006C11.0022 9.60865 12.9425 7.66737 15.3344 7.66737C17.7264 7.66737 19.6666 9.60865 19.6666 12.0006C19.6666 14.3925 17.7264 16.3338 15.3344 16.3338C12.9425 16.3338 11.0022 14.3925 11.0022 12.0006Z"
          fill="#1E212C"/>
</svg>
