<svg width="24" height="24" viewBox="0 0 24 24" fill="none" xmlns="http://www.w3.org/2000/svg">
    <path d="M15.7 23.0001C15.1 23.0001 14.7 22.6001 14.7 22.0001V17.7001C14.7 16.9001 14.7 16.9001 14.4 16.6001C14.1 16.3001 14 15.9001 14.2 15.6001C14.3 15.2001 14.7 15.0001 15 14.9001C17.8 14.6001 20.4 13.7001 20.4 9.20008C20.4 8.10008 20 7.10008 19.2 6.30008C18.9 6.00008 18.8 5.60008 19 5.20008C19.2 4.70008 19.3 4.30008 19.3 3.80008C19.3 3.50008 19.3 3.30008 19.2 3.00008C18.7 3.10008 17.8 3.40008 16.5 4.20008C16.3 4.30008 16 4.40008 15.7 4.30008C13.5 3.80008 11.3 3.80008 9.09996 4.30008C8.79996 4.40008 8.59996 4.30008 8.29996 4.20008C6.79996 3.40008 5.89996 3.10008 5.39996 3.00008C5.39996 3.30008 5.29996 3.60008 5.29996 3.80008C5.29996 4.30008 5.39996 4.80008 5.59996 5.20008C5.69996 5.60008 5.59996 6.00008 5.39996 6.30008C4.99996 6.70008 4.69996 7.20008 4.49996 7.70008C4.29996 8.20008 4.19996 8.70008 4.19996 9.30008C4.19996 13.5001 6.39996 14.6001 9.59996 15.0001C9.99996 15.0001 10.3 15.3001 10.4 15.7001C10.5 16.1001 10.4 16.5001 10.2 16.7001C9.89996 17.0001 9.89996 17.2001 9.89996 18.1001V19.8001V19.9001V22.1001C9.89996 22.7001 9.49996 23.1001 8.89996 23.1001C8.29996 23.1001 7.89996 22.7001 7.89996 22.1001V21.1001C4.89996 21.5001 3.69996 19.8001 2.79996 18.6001C2.39996 18.1001 2.09996 17.6001 1.79996 17.5001C1.29996 17.4001 0.899959 16.8001 1.09996 16.3001C1.29996 15.8001 1.79996 15.4001 2.29996 15.6001C3.29996 15.9001 3.89996 16.7001 4.49996 17.5001C5.29996 18.6001 5.99996 19.6001 7.89996 19.2001V18.3001C7.89996 17.9001 7.79996 17.4001 7.89996 16.8001C5.09996 16.2001 2.19996 14.6001 2.19996 9.40008C2.19996 8.60008 2.39996 7.80008 2.69996 7.10008C2.89996 6.60008 3.19996 6.00008 3.59996 5.60008C3.49996 5.10008 3.39996 4.60008 3.39996 4.00008C3.39996 3.20008 3.59996 2.50008 3.89996 1.80008C3.99996 1.30008 4.19996 1.10008 4.49996 1.10008C4.79996 1.00008 6.19996 0.800076 8.89996 2.40008C11.1 1.90008 13.4 1.90008 15.6 2.40008C18.3 0.800076 19.6 1.00008 20 1.10008C20.3 1.20008 20.5 1.40008 20.6 1.60008C21 2.30008 21.1 3.00008 21.2 3.80008C21.2 4.30008 21.2 4.90008 21 5.40008C21.9 6.50008 22.4 7.80008 22.4 9.20008C22.4 14.5001 19.4 16.1001 16.7 16.7001C16.8 17.0001 16.8 17.4001 16.7 17.7001V22.0001C16.7 22.6001 16.2 23.0001 15.7 23.0001Z"
          fill="#1E212C"/>
</svg>
