<svg width="24" height="24" viewBox="0 0 24 24" fill="none" xmlns="http://www.w3.org/2000/svg">
    <path fill-rule="evenodd" clip-rule="evenodd"
          d="M5.26412 1.00242C5.68844 0.972955 6.08497 1.21514 6.25253 1.6061L9.32611 8.77779H14.674L17.7476 1.6061C17.9151 1.21514 18.3117 0.972955 18.736 1.00242C19.1603 1.03188 19.5196 1.32654 19.6315 1.7369L22.9648 13.9591C23.071 14.3486 22.9327 14.7637 22.614 15.0116L12.614 22.7894C12.2529 23.0702 11.7472 23.0702 11.3861 22.7894L1.38611 15.0116C1.06744 14.7637 0.929063 14.3486 1.03528 13.9591L4.36862 1.7369C4.48053 1.32654 4.83979 1.03188 5.26412 1.00242ZM5.54371 5.02938L3.14022 13.8422L12 20.7332L20.8599 13.8422L18.4564 5.02938L16.2525 10.1717C16.0949 10.5394 15.7334 10.7778 15.3334 10.7778H8.66671C8.26669 10.7778 7.90515 10.5394 7.74757 10.1717L5.54371 5.02938Z"
          fill="#1E212C"/>
</svg>
