<svg width="24" height="24" viewBox="0 0 24 24" fill="none" xmlns="http://www.w3.org/2000/svg">
    <g clip-path="url(#clip0_2491_3850)">
        <path d="M22.8336 16.1089C22.8335 16.1089 22.8335 16.1089 22.8336 16.1089L14.1923 10.7084C14.0417 10.6142 13.8676 10.5643 13.6899 10.5643H12.9481V10.1613C14.4152 9.74709 15.4936 8.39626 15.4936 6.79834C15.4936 4.87195 13.9264 3.30469 12 3.30469C10.0736 3.30469 8.50635 4.87195 8.50635 6.79834C8.50635 7.32195 8.93082 7.74642 9.45443 7.74642C9.97804 7.74642 10.4025 7.32195 10.4025 6.79834C10.4025 5.91749 11.1191 5.20085 12 5.20085C12.8808 5.20085 13.5974 5.91749 13.5974 6.79834C13.5974 7.67919 12.8808 8.39583 12 8.39583C11.4764 8.39583 11.0519 8.8203 11.0519 9.34391V10.5643H10.3101C10.1324 10.5643 9.95832 10.6142 9.80766 10.7084L1.16641 16.1089C0.436063 16.5654 0 17.3521 0 18.2135C0 19.5819 1.11332 20.6952 2.48175 20.6952H21.5182C22.8867 20.6952 24 19.5819 24 18.2135C24 17.3521 23.5639 16.5654 22.8336 16.1089ZM21.5182 18.799H2.48175C2.15886 18.799 1.89616 18.5363 1.89616 18.2135C1.89616 18.0102 1.99904 17.8245 2.17138 17.7168L10.5819 12.4604H13.418L21.8286 17.7168C22.001 17.8245 22.1038 18.0102 22.1038 18.2135C22.1038 18.5363 21.8411 18.799 21.5182 18.799Z"
              fill="#1E212C"/>
    </g>
    <defs>
        <clipPath id="clip0_2491_3850">
            <rect width="24" height="24" fill="white"/>
        </clipPath>
    </defs>
</svg>
