<svg width="24" height="24" viewBox="0 0 24 24" fill="none" xmlns="http://www.w3.org/2000/svg">
    <path fill-rule="evenodd" clip-rule="evenodd"
          d="M14.1818 3.25C14.0423 3.25 13.913 3.32416 13.8424 3.44506L13.8362 3.4556L9.25 10.8908V20.75H17.8358C18.02 20.75 18.1794 20.6221 18.2193 20.4425L18.2228 20.4269L20.7727 10.4673C20.8194 10.2259 20.6344 10 20.387 10H16.5C15.8488 10 15.1899 9.78244 14.7102 9.31423C14.2059 8.822 13.9721 8.11707 14.1221 7.35761L14.841 3.71904C14.889 3.47611 14.703 3.25 14.4556 3.25H14.1818ZM7.25 20.75V11.6071H3.70653C3.49084 11.6071 3.31535 11.7812 3.31369 11.9971C3.31369 11.9971 3.31369 11.9971 3.31369 11.9971L3.25001 20.3542C3.24834 20.5722 3.42466 20.75 3.64277 20.75H7.25ZM7.69189 9.60714L12.1221 2.42499C12.5524 1.69735 13.3352 1.25 14.1818 1.25H14.4556C15.9633 1.25 17.0953 2.62758 16.803 4.10668L16.0842 7.74524C16.0714 7.81 16.0797 7.83942 16.0817 7.84588C16.0839 7.85308 16.0888 7.86505 16.1071 7.88296C16.149 7.92378 16.2735 8 16.5 8H20.387C21.918 8 23.0549 9.41787 22.7228 10.9121L22.7194 10.9277L20.1677 20.894C19.9179 21.9796 18.9512 22.75 17.8358 22.75H3.64277C2.31423 22.75 1.23989 21.6676 1.25007 20.339C1.25007 20.339 1.25007 20.339 1.25007 20.339L1.31374 11.9818C1.32382 10.6676 2.39203 9.60714 3.70653 9.60714H7.69189Z"
          fill="#1E212C"/>
</svg>
