<svg width="24" height="24" viewBox="0 0 24 24" fill="none" xmlns="http://www.w3.org/2000/svg">
  <path fill-rule="evenodd" clip-rule="evenodd"
    d="M22.75 18V7C22.75 5.34314 21.4069 4 19.75 4L4.25 4.00002C2.59314 4.00002 1.25 5.34316 1.25 7.00002V18C1.25 19.6568 2.59314 21 4.25 21L19.75 21C21.4069 21 22.75 19.6568 22.75 18ZM20.75 9.25946V18C20.75 18.5523 20.3023 19 19.75 19L4.25 19C3.69772 19 3.25 18.5523 3.25 18L3.25 9.25933L10.3132 14.0623C11.3312 14.7546 12.6689 14.7546 13.687 14.0623L20.75 9.25946ZM20.7386 6.84861C20.6657 6.36816 20.2508 6 19.75 6L4.25 6.00002C3.74922 6.00002 3.33442 6.36811 3.26141 6.84849L11.4378 12.4084C11.7771 12.6392 12.223 12.6392 12.5624 12.4084L20.7386 6.84861Z"
    fill="#1E212C" />
</svg>
