<svg width="24" height="24" viewBox="0 0 24 24" fill="none" xmlns="http://www.w3.org/2000/svg">
  <path fill-rule="evenodd" clip-rule="evenodd"
    d="M20.75 17.7504V9.00042C20.75 8.44814 21.1977 8.00042 21.75 8.00042C22.3023 8.00042 22.75 8.44814 22.75 9.00042V17.7504C22.75 20.5118 20.5114 22.7504 17.75 22.7504H6.24997C3.48854 22.7504 1.24997 20.5118 1.24997 17.7504L1.24997 9.00044C1.24997 8.44816 1.69768 8.00044 2.24997 8.00044C2.80225 8.00044 3.24997 8.44816 3.24997 9.00044L3.24997 17.7504C3.24997 19.4073 4.59312 20.7504 6.24997 20.7504H17.75C19.4068 20.7504 20.75 19.4073 20.75 17.7504Z"
    fill="#1E212C" />
  <path fill-rule="evenodd" clip-rule="evenodd"
    d="M1.44258 9.21544C1.76843 9.66135 2.39408 9.75867 2.83999 9.43282L11.41 3.17015C11.7614 2.91334 12.2386 2.91334 12.59 3.17015L21.16 9.43282C21.6059 9.75867 22.2315 9.66135 22.5574 9.21544C22.8832 8.76953 22.7859 8.14389 22.34 7.81803L13.77 1.55537C12.7157 0.78493 11.2842 0.78493 10.2299 1.55537L1.65995 7.81803C1.21404 8.14389 1.11672 8.76953 1.44258 9.21544Z"
    fill="#1E212C" />
  <path fill-rule="evenodd" clip-rule="evenodd"
    d="M1.42778 8.05621C1.74214 7.60213 2.36509 7.48887 2.81918 7.80323L10.2923 12.977C11.3197 13.6882 12.6803 13.6882 13.7076 12.977L21.1808 7.80323C21.6348 7.48887 22.2578 7.60213 22.5722 8.05621C22.8865 8.5103 22.7733 9.13325 22.3192 9.44762L14.846 14.6213C13.1338 15.8067 10.8661 15.8067 9.15392 14.6213L1.68076 9.44762C1.22667 9.13325 1.11341 8.5103 1.42778 8.05621Z"
    fill="#1E212C" />
</svg>
