<svg width="24" height="24" viewBox="0 0 24 24" fill="none" xmlns="http://www.w3.org/2000/svg">
    <path d="M12.3014 1C6.22817 1.00092 3 4.86472 3 9.07778C3 11.0312 4.09944 13.4687 5.85984 14.2414C6.36202 14.466 6.29555 14.1919 6.72758 12.5511C6.76173 12.4145 6.74419 12.2962 6.63342 12.1688C4.11698 9.27853 6.14232 3.33662 11.9423 3.33662C20.3363 3.33662 18.7679 14.8703 13.4027 14.8703C12.0198 14.8703 10.9896 13.7923 11.3155 12.4585C11.7106 10.8699 12.4842 9.16212 12.4842 8.01718C12.4842 5.13148 8.15473 5.55957 8.15473 9.38304C8.15473 10.5646 8.57567 11.3621 8.57567 11.3621C8.57567 11.3621 7.18268 16.9502 6.9242 17.9943C6.48664 19.7617 6.98328 22.6226 7.02667 22.8692C7.05344 23.0049 7.20668 23.048 7.29253 22.9361C7.43007 22.7574 9.11385 20.3722 9.58557 18.6479C9.75727 18.02 10.4616 15.4716 10.4616 15.4716C10.9259 16.304 12.2645 17.0006 13.6907 17.0006C17.9334 17.0006 21 13.2973 21 8.70194C20.9852 4.29638 17.1884 1 12.3014 1V1Z"
          fill="#1E212C"/>
</svg>
