<svg width="24" height="24" viewBox="0 0 24 24" fill="none" xmlns="http://www.w3.org/2000/svg">
    <path fill-rule="evenodd" clip-rule="evenodd" d="M6.75886 2.50752C7.29232 2.65046 7.60891 3.1988 7.46596 3.73227L6.99273 5.49839L7.50004 5.2055C11.8047 2.72022 17.309 4.19509 19.7943 8.49973C22.2795 12.8044 20.8047 18.3087 16.5 20.794C12.1954 23.2792 6.69109 21.8044 4.20581 17.4997C3.92967 17.0214 4.09354 16.4098 4.57184 16.1337C5.05013 15.8576 5.66172 16.0214 5.93786 16.4997C7.87086 19.8478 12.152 20.9949 15.5 19.0619C18.8481 17.1289 19.9952 12.8478 18.0622 9.49973C16.1292 6.15168 11.8481 5.00455 8.50004 6.93755L7.99273 7.23044L9.75886 7.70367C10.2923 7.84662 10.6089 8.39495 10.466 8.92842C10.323 9.46188 9.77469 9.77847 9.24122 9.63553L5.14314 8.53745C4.60968 8.39451 4.2931 7.84617 4.43604 7.3127L5.53411 3.21463C5.67705 2.68116 6.22539 2.36458 6.75886 2.50752Z" fill="#1E212C"/>
</svg>
