<svg width="24" height="24" viewBox="0 0 24 24" fill="none" xmlns="http://www.w3.org/2000/svg">
  <path fill-rule="evenodd" clip-rule="evenodd"
    d="M3 6.12703C3 3.29545 5.23858 1 8 1H16C18.7614 1 21 3.29545 21 6.12703V12.086C21 16.4072 18.2719 19.9381 14.8268 22.1636C13.1004 23.2788 10.8996 23.2788 9.17319 22.1636C5.72808 19.9381 3 16.4072 3 12.086V6.12703ZM8 3.05081C6.34315 3.05081 5 4.42808 5 6.12703V12.086C5 15.4557 7.13724 18.4245 10.2392 20.4284C11.3142 21.1228 12.6858 21.1228 13.7608 20.4284C16.8628 18.4245 19 15.4557 19 12.086V6.12703C19 4.42808 17.6569 3.05081 16 3.05081H8Z"
    fill="#1E212C" />
  <path fill-rule="evenodd" clip-rule="evenodd"
    d="M15.6402 8.23178C16.0645 8.58534 16.1218 9.21591 15.7682 9.64018L12.0182 14.1402C11.8466 14.3461 11.5996 14.4745 11.3325 14.4966C11.0654 14.5187 10.8006 14.4327 10.5975 14.2578L8.34747 12.3202C7.92897 11.9599 7.88185 11.3284 8.24224 10.9099C8.60262 10.4914 9.23403 10.4443 9.65253 10.8047L11.1324 12.0791L14.2318 8.35982C14.5853 7.93554 15.2159 7.87821 15.6402 8.23178Z"
    fill="#1E212C" />
</svg>
