<svg width="24" height="24" viewBox="0 0 24 24" fill="none" xmlns="http://www.w3.org/2000/svg">
    <path d="M22.3454 14.3219C23.9369 7.17077 17.6713 0.674333 10.3132 1.92143C6.31871 -0.557199 1 2.24373 1 6.99589C1 8.10106 1.30495 9.13573 1.83517 10.0276C0.356223 17.1952 6.67311 23.5982 14.0248 22.266C19.2217 25.0138 24.9644 19.5337 22.3454 14.3219ZM15.3508 18.6345C13.4204 19.4284 10.2436 19.433 8.32147 18.4267C5.58061 16.9653 5.09343 13.6755 7.45791 13.6755C9.23997 13.6755 8.67587 15.753 10.4753 16.6C11.3013 16.9818 13.077 17.0212 14.109 16.3253C15.1283 15.6432 15.0349 14.57 14.4808 14.0573C13.0129 12.7021 8.81231 13.2405 6.89197 10.8681C6.05772 9.83894 5.90021 8.02323 6.92586 6.70655C8.71341 4.40647 13.9589 4.26638 16.2144 6.00334C18.2968 7.61486 17.7345 9.75379 16.0541 9.75379C14.033 9.75379 15.0953 7.10943 11.8325 7.10943C9.46708 7.10943 8.53667 8.79145 10.2024 9.61003C12.4607 10.7317 18.2153 10.3572 18.2153 14.7403C18.2107 16.5643 17.0926 17.924 15.3508 18.6345Z"
          fill="#1E212C"/>
</svg>
