<svg width="24" height="24" viewBox="0 0 24 24" fill="none" xmlns="http://www.w3.org/2000/svg">
    <path fill-rule="evenodd" clip-rule="evenodd"
          d="M14.5 3C14.1022 3 13.7206 3.15804 13.4393 3.43934C13.158 3.72064 13 4.10218 13 4.5V11H16V4.5C16 4.10218 15.842 3.72064 15.5607 3.43934C15.2794 3.15804 14.8978 3 14.5 3ZM18 6.33772V4.5C18 3.57174 17.6313 2.6815 16.9749 2.02513C16.3185 1.36875 15.4283 1 14.5 1C13.5717 1 12.6815 1.36875 12.0251 2.02513C11.3688 2.6815 11 3.57174 11 4.5V12C11 12.5523 11.4477 13 12 13H19.5C20.1922 13 20.8689 12.7947 21.4445 12.4101C22.0201 12.0256 22.4687 11.4789 22.7336 10.8394C22.9985 10.1999 23.0678 9.49612 22.9327 8.81718C22.7977 8.13825 22.4644 7.51461 21.9749 7.02513C21.4854 6.53564 20.8617 6.2023 20.1828 6.06725C19.5039 5.9322 18.8001 6.00151 18.1606 6.26642C18.1064 6.28888 18.0528 6.31266 18 6.33772ZM18 11H19.5C19.7967 11 20.0867 10.912 20.3334 10.7472C20.58 10.5824 20.7723 10.3481 20.8858 10.074C20.9993 9.79994 21.0291 9.49834 20.9712 9.20737C20.9133 8.9164 20.7704 8.64912 20.5607 8.43934C20.3509 8.22956 20.0836 8.0867 19.7926 8.02882C19.5017 7.97094 19.2001 8.00065 18.926 8.11418C18.6519 8.22771 18.4176 8.41997 18.2528 8.66665C18.088 8.91332 18 9.20333 18 9.5V11Z"
          fill="#1E212C"/>
    <path fill-rule="evenodd" clip-rule="evenodd"
          d="M11 12C11 11.4477 11.4477 11 12 11H19.5C20.4283 11 21.3185 11.3688 21.9749 12.0251C22.6313 12.6815 23 13.5717 23 14.5C23 15.4283 22.6313 16.3185 21.9749 16.9749C21.3185 17.6313 20.4283 18 19.5 18H17.6623C17.6873 18.0528 17.7111 18.1064 17.7336 18.1606C17.9985 18.8001 18.0678 19.5039 17.9327 20.1828C17.7977 20.8617 17.4644 21.4854 16.9749 21.9749C16.4854 22.4644 15.8618 22.7977 15.1828 22.9327C14.5039 23.0678 13.8002 22.9985 13.1606 22.7336C12.5211 22.4687 11.9744 22.0201 11.5899 21.4445C11.2053 20.8689 11 20.1922 11 19.5V12ZM13 13V16H19.5C19.8978 16 20.2794 15.842 20.5607 15.5607C20.842 15.2794 21 14.8978 21 14.5C21 14.1022 20.842 13.7206 20.5607 13.4393C20.2794 13.158 19.8978 13 19.5 13H13ZM14.5 18H13V19.5C13 19.7967 13.088 20.0867 13.2528 20.3334C13.4176 20.58 13.6519 20.7723 13.926 20.8858C14.2001 20.9993 14.5017 21.0291 14.7926 20.9712C15.0836 20.9133 15.3509 20.7704 15.5607 20.5607C15.7704 20.3509 15.9133 20.0836 15.9712 19.7926C16.0291 19.5017 15.9994 19.2001 15.8858 18.926C15.7723 18.6519 15.58 18.4176 15.3334 18.2528C15.0867 18.088 14.7967 18 14.5 18Z"
          fill="#1E212C"/>
    <path fill-rule="evenodd" clip-rule="evenodd"
          d="M4.5 13C4.20333 13 3.91332 13.088 3.66665 13.2528C3.41997 13.4176 3.22771 13.6519 3.11418 13.926C3.00065 14.2001 2.97095 14.5017 3.02882 14.7926C3.0867 15.0836 3.22956 15.3509 3.43934 15.5607C3.64912 15.7704 3.9164 15.9133 4.20737 15.9712C4.49834 16.0291 4.79994 15.9994 5.07403 15.8858C5.34811 15.7723 5.58238 15.58 5.74721 15.3334C5.91203 15.0867 6 14.7967 6 14.5V13H4.5ZM4.5 11C3.80777 11 3.13108 11.2053 2.55551 11.5899C1.97993 11.9744 1.53133 12.5211 1.26642 13.1606C1.00152 13.8002 0.932205 14.5039 1.06725 15.1828C1.2023 15.8618 1.53564 16.4854 2.02513 16.9749C2.51461 17.4644 3.13825 17.7977 3.81719 17.9327C4.49612 18.0678 5.19985 17.9985 5.83939 17.7336C5.89361 17.7111 5.94716 17.6873 6 17.6623V19.5C6 20.4283 6.36875 21.3185 7.02513 21.9749C7.6815 22.6313 8.57174 23 9.5 23C10.4283 23 11.3185 22.6313 11.9749 21.9749C12.6313 21.3185 13 20.4283 13 19.5L13 12C13 11.4477 12.5523 11 12 11H4.5ZM11 13H8V19.5C8 19.8978 8.15804 20.2794 8.43934 20.5607C8.72065 20.842 9.10218 21 9.5 21C9.89783 21 10.2794 20.842 10.5607 20.5607C10.842 20.2794 11 19.8978 11 19.5L11 13Z"
          fill="#1E212C"/>
    <path fill-rule="evenodd" clip-rule="evenodd"
          d="M10.074 3.11418C9.79994 3.00065 9.49834 2.97095 9.20737 3.02882C8.91639 3.0867 8.64912 3.22956 8.43934 3.43934C8.22956 3.64912 8.0867 3.9164 8.02882 4.20737C7.97094 4.49834 8.00065 4.79994 8.11418 5.07403C8.22771 5.34811 8.41997 5.58238 8.66665 5.74721C8.91332 5.91203 9.20333 6 9.5 6H11V4.5C11 4.20333 10.912 3.91332 10.7472 3.66665C10.5824 3.41997 10.3481 3.22771 10.074 3.11418ZM13 4.5C13 3.80777 12.7947 3.13108 12.4101 2.55551C12.0256 1.97993 11.4789 1.53133 10.8394 1.26642C10.1999 1.00152 9.49612 0.932205 8.81718 1.06725C8.13825 1.2023 7.51461 1.53564 7.02513 2.02513C6.53564 2.51461 6.2023 3.13825 6.06725 3.81719C5.9322 4.49612 6.00152 5.19985 6.26642 5.83939C6.28888 5.89361 6.31266 5.94716 6.33772 6H4.5C3.57174 6 2.6815 6.36875 2.02513 7.02513C1.36875 7.68151 1 8.57174 1 9.5C1 10.4283 1.36875 11.3185 2.02513 11.9749C2.6815 12.6313 3.57174 13 4.5 13H12C12.5523 13 13 12.5523 13 12L13 4.5ZM11 11V8H4.5C4.10218 8 3.72064 8.15804 3.43934 8.43934C3.15804 8.72065 3 9.10218 3 9.5C3 9.89783 3.15804 10.2794 3.43934 10.5607C3.72064 10.842 4.10218 11 4.5 11L11 11Z"
          fill="#1E212C"/>
</svg>
