<svg width="24" height="24" viewBox="0 0 24 24" fill="none" xmlns="http://www.w3.org/2000/svg">
    <path fill-rule="evenodd" clip-rule="evenodd" d="M6.79289 2.79289C7.18342 2.40237 7.81658 2.40237 8.20711 2.79289L11.7071 6.29289C12.0976 6.68342 12.0976 7.31658 11.7071 7.70711C11.3166 8.09763 10.6834 8.09763 10.2929 7.70711L8.5 5.91421V19.5C8.5 20.0523 8.05228 20.5 7.5 20.5C6.94772 20.5 6.5 20.0523 6.5 19.5V5.91421L4.70711 7.70711C4.31658 8.09763 3.68342 8.09763 3.29289 7.70711C2.90237 7.31658 2.90237 6.68342 3.29289 6.29289L6.79289 2.79289ZM16.5 3.5C17.0523 3.5 17.5 3.94772 17.5 4.5V18.0858L19.2929 16.2929C19.6834 15.9024 20.3166 15.9024 20.7071 16.2929C21.0976 16.6834 21.0976 17.3166 20.7071 17.7071L17.2071 21.2071C16.8166 21.5976 16.1834 21.5976 15.7929 21.2071L12.2929 17.7071C11.9024 17.3166 11.9024 16.6834 12.2929 16.2929C12.6834 15.9024 13.3166 15.9024 13.7071 16.2929L15.5 18.0858V4.5C15.5 3.94772 15.9477 3.5 16.5 3.5Z" fill="#1E212C"/>
</svg>
