<svg width="24" height="24" viewBox="0 0 24 24" fill="none" xmlns="http://www.w3.org/2000/svg">
    <path d="M21.7957 13.7361C22.4466 8.21624 21.483 4.7314 19.7448 3.15521L19.7457 3.15429C16.9402 0.462582 7.46565 0.0641828 4.10928 3.27518C2.602 4.84588 2.07109 7.1511 2.01291 10.0049C1.95472 12.8596 1.88563 18.2073 6.83201 19.6581H6.83656L6.83201 21.8735C6.83201 21.8735 6.79838 22.7711 7.36747 22.9515C8.01838 23.164 8.31293 22.7473 10.3375 20.3111C13.7229 20.6069 16.323 19.9292 16.6184 19.8302C17.302 19.5995 21.1702 19.0838 21.7957 13.7361ZM10.6711 18.7523C10.6711 18.7523 8.52838 21.444 7.86202 22.1428C7.64383 22.3699 7.40474 22.3489 7.40838 21.8983C7.40838 21.6024 7.42474 18.2202 7.42474 18.2202C3.23109 17.0094 3.47837 12.4558 3.52382 10.0736C3.56927 7.69054 4.002 5.73884 5.27837 4.42459C8.22293 1.64312 16.5293 2.26499 18.6457 4.26889C21.233 6.5796 20.3121 13.1078 20.3175 13.3304C19.7857 17.7943 16.6511 18.0773 16.0748 18.2705C15.8284 18.353 13.542 18.9455 10.6711 18.7523Z"
          fill="#1E212C"/>
    <path d="M11.8566 4.94749C11.5066 4.94749 11.5066 5.497 11.8566 5.50158C14.5721 5.52265 16.8085 7.42946 16.833 10.9271C16.833 11.2962 17.3694 11.2916 17.3648 10.9226C17.3357 7.15379 14.893 4.96855 11.8566 4.94749Z"
          fill="#1E212C"/>
    <path d="M15.4286 10.3472C15.4204 10.7117 15.9559 10.7292 15.9604 10.3601C16.005 8.28198 14.7332 6.57024 12.3431 6.38981C11.9931 6.36417 11.9568 6.91826 12.3059 6.94391C14.3786 7.10235 15.4704 8.52743 15.4286 10.3472Z"
          fill="#1E212C"/>
    <path d="M14.856 12.7109C14.4069 12.449 13.9496 12.612 13.7605 12.8694L13.3651 13.385C13.1642 13.6469 12.7887 13.6121 12.7887 13.6121C10.0487 12.8822 9.31599 9.99358 9.31599 9.99358C9.31599 9.99358 9.28236 9.60251 9.53327 9.39278L10.0278 8.98064C10.2751 8.78282 10.4314 8.30657 10.1796 7.83857C9.5069 6.61406 9.05508 6.19185 8.82508 5.86764C8.58326 5.56266 8.21963 5.49397 7.84144 5.70004H7.83326C7.0469 6.16346 6.18599 7.03078 6.46144 7.92374C6.93144 8.86524 7.79508 11.8665 10.5478 14.1342C11.8415 15.2067 13.8887 16.3057 14.7578 16.5594L14.766 16.5722C15.6224 16.8598 16.4551 15.9586 16.8996 15.1425V15.1361C17.0969 14.7414 17.0315 14.3677 16.7433 14.1232C16.2324 13.6213 15.4615 13.0672 14.856 12.7109Z"
          fill="#1E212C"/>
    <path d="M12.7176 8.43399C13.5913 8.48528 14.0149 8.94504 14.0604 9.88929C14.0767 10.2584 14.6085 10.2327 14.5922 9.86365C14.534 8.6309 13.8958 7.944 12.7467 7.87989C12.3967 7.85883 12.364 8.41293 12.7176 8.43399Z"
          fill="#1E212C"/>
</svg>
