<svg width="24" height="24" viewBox="0 0 24 24" fill="none" xmlns="http://www.w3.org/2000/svg">
    <path d="M9.16406 1.6875C4.472 1.6875 0.65625 4.99192 0.65625 9.05357C0.65625 11.2 1.71122 13.1918 3.57301 14.6061L2.85836 16.0911C2.72507 16.3666 2.77186 16.701 2.97605 16.925C3.11217 17.0752 3.30076 17.1562 3.49219 17.1562C3.58577 17.1562 3.68078 17.1371 3.77153 17.0973L6.2785 15.9821C7.45399 16.3519 8.70748 16.4638 9.96522 16.3887C10.3566 16.3681 10.6572 16.0204 10.6359 15.6138C10.6146 15.2057 10.2431 14.8728 9.89006 14.9184C8.71598 14.9803 7.55041 14.8728 6.46709 14.4971C6.3026 14.4411 6.12394 14.45 5.96371 14.5192L4.9924 14.9523L5.12002 14.6857C5.28308 14.3468 5.17106 13.9329 4.86053 13.7325C3.08948 12.5834 2.07422 10.8789 2.07422 9.05357C2.07422 5.80366 5.25472 3.16071 9.16406 3.16071C13.0734 3.16071 16.2539 5.80366 16.2539 9.05357C16.2539 9.27455 16.244 9.48228 16.2085 9.69C16.1391 10.0907 16.3971 10.4738 16.7814 10.5445C17.1727 10.6196 17.5343 10.35 17.6038 9.94929C17.6534 9.65612 17.6719 9.36295 17.6719 9.05357C17.6719 4.99192 13.8561 1.6875 9.16406 1.6875Z"
          fill="#1E212C"/>
    <path d="M20.9403 19.3528C22.4561 18.2391 23.3438 16.6333 23.3438 14.9464C23.3438 11.6965 20.1632 9.05357 16.2539 9.05357C12.3446 9.05357 9.16406 11.6965 9.16406 14.9464C9.16406 18.5455 13.0209 21.4507 17.5358 20.7376L20.9375 22.2536C21.0268 22.2919 21.1232 22.3125 21.2168 22.3125C21.4082 22.3125 21.5968 22.2315 21.7329 22.0797C21.9385 21.8558 21.9853 21.5229 21.852 21.2459L20.9403 19.3528ZM19.6684 18.4497C19.3422 18.6442 19.2189 19.0685 19.3862 19.4176L19.7166 20.1071L17.9044 19.2983C17.8165 19.26 17.7201 19.2394 17.6251 19.2394C17.584 19.2394 17.5443 19.2423 17.5046 19.2497C17.0692 19.3292 16.6594 19.3661 16.2539 19.3661C13.1259 19.3661 10.582 17.3831 10.582 14.9464C10.582 12.5097 13.1259 10.5268 16.2539 10.5268C19.3819 10.5268 21.9258 12.5097 21.9258 14.9464C21.9258 16.3195 21.1034 17.5967 19.6684 18.4497Z"
          fill="#1E212C"/>
    <path d="M6.35606 6.10714H6.34188C5.95052 6.10714 5.63999 6.43714 5.63999 6.84375C5.63999 7.25036 5.9647 7.58036 6.35606 7.58036C6.74742 7.58036 7.06504 7.25036 7.06504 6.84375C7.06504 6.43714 6.74742 6.10714 6.35606 6.10714Z"
          fill="#1E212C"/>
    <path d="M12.0279 6.10714H12.0137C11.6224 6.10714 11.3119 6.43714 11.3119 6.84375C11.3119 7.25036 11.6366 7.58036 12.0279 7.58036C12.4193 7.58036 12.7369 7.25036 12.7369 6.84375C12.7369 6.43714 12.4193 6.10714 12.0279 6.10714Z"
          fill="#1E212C"/>
    <path d="M14.1549 12.7366H14.1407C13.7479 12.7366 13.4388 13.0666 13.4388 13.4732C13.4388 13.8798 13.7635 14.2098 14.1549 14.2098C14.5463 14.2098 14.8639 13.8798 14.8639 13.4732C14.8639 13.0666 14.5463 12.7366 14.1549 12.7366Z"
          fill="#1E212C"/>
    <path d="M18.4088 12.7366H18.3946C18.0033 12.7366 17.6927 13.0666 17.6927 13.4732C17.6927 13.8798 18.0189 14.2098 18.4088 14.2098C18.8002 14.2098 19.1178 13.8798 19.1178 13.4732C19.1178 13.0666 18.8002 12.7366 18.4088 12.7366Z"
          fill="#1E212C"/>
    <path d="M16.2539 9.05357C16.2539 5.80366 13.0734 3.16071 9.16406 3.16071C5.25472 3.16071 2.07422 5.80366 2.07422 9.05357C2.07422 10.8789 3.08948 12.5834 4.86053 13.7325C5.17106 13.9329 5.28308 14.3468 5.12002 14.6857L4.9924 14.9523L5.96371 14.5192C6.12394 14.45 6.3026 14.4411 6.46709 14.4971C7.55041 14.8728 8.71598 14.9803 9.89006 14.9184C10.2431 14.8728 10.6146 15.2057 10.6359 15.6138C10.6572 16.0204 10.3566 16.3681 9.96522 16.3887C8.70748 16.4638 7.45399 16.3519 6.2785 15.9821L3.77153 17.0973C3.68078 17.1371 3.58577 17.1562 3.49219 17.1562C3.30076 17.1562 3.11217 17.0752 2.97605 16.925C2.77186 16.701 2.72507 16.3666 2.85836 16.0911L3.57301 14.6061C1.71122 13.1918 0.65625 11.2 0.65625 9.05357C0.65625 4.99192 4.472 1.6875 9.16406 1.6875C13.8561 1.6875 17.6719 4.99192 17.6719 9.05357C17.6719 9.36295 17.6534 9.65612 17.6038 9.94929C17.5343 10.35 17.1727 10.6196 16.7814 10.5445C16.3971 10.4738 16.1391 10.0907 16.2085 9.69C16.244 9.48228 16.2539 9.27455 16.2539 9.05357ZM16.2539 9.05357C20.1632 9.05357 23.3438 11.6965 23.3438 14.9464C23.3438 16.6333 22.4561 18.2391 20.9403 19.3528L21.852 21.2459C21.9853 21.5229 21.9385 21.8558 21.7329 22.0797C21.5968 22.2315 21.4082 22.3125 21.2168 22.3125C21.1232 22.3125 21.0268 22.2919 20.9375 22.2536L17.5358 20.7376C13.0209 21.4507 9.16406 18.5455 9.16406 14.9464C9.16406 11.6965 12.3446 9.05357 16.2539 9.05357ZM19.6684 18.4497C19.3422 18.6442 19.2189 19.0685 19.3862 19.4176L19.7166 20.1071L17.9044 19.2983C17.8165 19.26 17.7201 19.2394 17.6251 19.2394C17.584 19.2394 17.5443 19.2423 17.5046 19.2497C17.0692 19.3292 16.6594 19.3661 16.2539 19.3661C13.1259 19.3661 10.582 17.3831 10.582 14.9464C10.582 12.5097 13.1259 10.5268 16.2539 10.5268C19.3819 10.5268 21.9258 12.5097 21.9258 14.9464C21.9258 16.3195 21.1034 17.5967 19.6684 18.4497ZM6.35606 6.10714H6.34188C5.95052 6.10714 5.63999 6.43714 5.63999 6.84375C5.63999 7.25036 5.9647 7.58036 6.35606 7.58036C6.74742 7.58036 7.06504 7.25036 7.06504 6.84375C7.06504 6.43714 6.74742 6.10714 6.35606 6.10714ZM12.0279 6.10714H12.0137C11.6224 6.10714 11.3119 6.43714 11.3119 6.84375C11.3119 7.25036 11.6366 7.58036 12.0279 7.58036C12.4193 7.58036 12.7369 7.25036 12.7369 6.84375C12.7369 6.43714 12.4193 6.10714 12.0279 6.10714ZM14.1549 12.7366H14.1407C13.7479 12.7366 13.4388 13.0666 13.4388 13.4732C13.4388 13.8798 13.7635 14.2098 14.1549 14.2098C14.5463 14.2098 14.8639 13.8798 14.8639 13.4732C14.8639 13.0666 14.5463 12.7366 14.1549 12.7366ZM18.4088 12.7366H18.3946C18.0033 12.7366 17.6927 13.0666 17.6927 13.4732C17.6927 13.8798 18.0189 14.2098 18.4088 14.2098C18.8002 14.2098 19.1178 13.8798 19.1178 13.4732C19.1178 13.0666 18.8002 12.7366 18.4088 12.7366Z"
          stroke="#1E212C" stroke-width="0.2"/>
</svg>
