<svg width="24" height="25" viewBox="0 0 24 25" fill="none" xmlns="http://www.w3.org/2000/svg">
  <path fill-rule="evenodd" clip-rule="evenodd"
    d="M12.0001 15.125C11.4478 15.125 11.0001 14.6773 11.0001 14.125V8.5C11.0001 7.94772 11.4478 7.5 12.0001 7.5C12.5524 7.5 13.0001 7.94772 13.0001 8.5V14.125C13.0001 14.6773 12.5524 15.125 12.0001 15.125Z"
    fill="#1E212C" />
  <path
    d="M13.0001 17.5C13.0001 18.0523 12.5524 18.5 12.0001 18.5C11.4478 18.5 11.0001 18.0523 11.0001 17.5C11.0001 16.9477 11.4478 16.5 12.0001 16.5C12.5524 16.5 13.0001 16.9477 13.0001 17.5Z"
    fill="#1E212C" />
  <path fill-rule="evenodd" clip-rule="evenodd"
    d="M23.0839 17.9766C24.2628 19.9764 22.821 22.5 20.4995 22.5H3.50065C1.17917 22.5 -0.262621 19.9764 0.916253 17.9766L9.93237 2.68136C10.3639 1.94931 11.1503 1.5 12.0001 1.5C12.8499 1.5 13.6363 1.94932 14.0678 2.68136L23.0839 17.9766ZM20.4995 20.5C21.2733 20.5 21.7539 19.6588 21.361 18.9922L12.3449 3.69699C12.2729 3.57492 12.1418 3.5 12.0001 3.5C11.8584 3.5 11.7273 3.57492 11.6553 3.69699L2.63919 18.9922C2.24623 19.6588 2.72683 20.5 3.50065 20.5H20.4995Z"
    fill="#1E212C" />
</svg>
