<svg width="24" height="25" viewBox="0 0 24 25" fill="none" xmlns="http://www.w3.org/2000/svg">
  <path fill-rule="evenodd" clip-rule="evenodd"
    d="M9.0517 17.5H14.9444L15.2064 18.0996C15.3943 18.5297 15.498 19.0041 15.498 19.5C15.498 21.433 13.931 23 11.998 23C10.0651 23 8.49805 21.433 8.49805 19.5C8.49805 19.0041 8.60179 18.5297 8.78972 18.0996L9.0517 17.5ZM10.498 19.5C10.498 20.3284 11.1696 21 11.998 21C12.8265 21 13.498 20.3284 13.498 19.5H10.498Z"
    fill="#1E212C" />
  <path fill-rule="evenodd" clip-rule="evenodd"
    d="M12.0001 4.5C9.05519 4.5 6.50013 7.36502 6.50013 10.5V13.8333C6.50013 15.1973 5.85796 16.4816 4.7668 17.3C4.74582 17.3157 4.73629 17.3278 4.73211 17.334C4.72775 17.3404 4.72512 17.3462 4.72333 17.3526C4.71935 17.3668 4.71756 17.3925 4.72806 17.424C4.73855 17.4555 4.75541 17.475 4.76711 17.484C4.77238 17.488 4.77801 17.4912 4.78534 17.4936C4.79235 17.496 4.80725 17.5 4.83347 17.5H19.1668C19.193 17.5 19.2079 17.496 19.2149 17.4936C19.2223 17.4912 19.2279 17.488 19.2332 17.484C19.2449 17.475 19.2617 17.4555 19.2722 17.424C19.2827 17.3925 19.2809 17.3668 19.2769 17.3526C19.2751 17.3462 19.2725 17.3404 19.2682 17.334C19.264 17.3278 19.2544 17.3157 19.2335 17.3C18.1423 16.4816 17.5001 15.1973 17.5001 13.8333V10.5C17.5001 7.36502 14.9451 4.5 12.0001 4.5ZM4.50013 10.5C4.50013 6.45527 7.76538 2.5 12.0001 2.5C16.2349 2.5 19.5001 6.45527 19.5001 10.5V13.8333C19.5001 14.5678 19.8459 15.2593 20.4335 15.7C22.0565 16.9173 21.1956 19.5 19.1668 19.5H4.83347C2.80466 19.5 1.94376 16.9173 3.5668 15.7C4.15435 15.2593 4.50013 14.5678 4.50013 13.8333V10.5Z"
    fill="#1E212C" />
</svg>
