<svg width="24" height="24" viewBox="0 0 24 24" fill="none" xmlns="http://www.w3.org/2000/svg">
  <path
    d="M2.64064 8.51786C5.34475 6.26187 8.45784 5 11.75 5C15.0422 5 18.1553 6.26187 20.8594 8.51786C21.2835 8.87166 21.9141 8.81469 22.2679 8.39061C22.6217 7.96654 22.5647 7.33594 22.1406 6.98214C19.1338 4.47356 15.5795 3 11.75 3C7.92058 3 4.36628 4.47356 1.35941 6.98214C0.935331 7.33594 0.87836 7.96654 1.23216 8.39061C1.58596 8.81469 2.21656 8.87166 2.64064 8.51786Z"
    fill="#1E212C" />
  <path fill-rule="evenodd" clip-rule="evenodd"
    d="M4.10078 9.68903C5.89931 8.17064 8.46444 6.75 11.375 6.75C14.2856 6.75 16.8507 8.17064 18.6492 9.68903C19.5559 10.4544 20.2992 11.2704 20.8245 11.9993C21.0866 12.363 21.3053 12.7199 21.4626 13.0508C21.6072 13.3547 21.75 13.7383 21.75 14.125C21.75 14.5117 21.6072 14.8953 21.4626 15.1992C21.3053 15.5301 21.0866 15.887 20.8245 16.2507C20.2992 16.9796 19.5559 17.7956 18.6492 18.561C16.8507 20.0794 14.2856 21.5 11.375 21.5C8.46444 21.5 5.89931 20.0794 4.10078 18.561C3.19415 17.7956 2.4508 16.9796 1.92549 16.2507C1.66335 15.887 1.44473 15.5301 1.28738 15.1992C1.14284 14.8953 1 14.5117 1 14.125C1 13.7383 1.14284 13.3547 1.28738 13.0508C1.44473 12.7199 1.66335 12.363 1.92549 11.9993C2.4508 11.2704 3.19415 10.4544 4.10078 9.68903ZM3.00709 14.125C3.01721 14.1589 3.04055 14.2288 3.09355 14.3403C3.18597 14.5346 3.33571 14.7868 3.54798 15.0813C3.97147 15.6689 4.60106 16.3659 5.39097 17.0328C6.98553 18.379 9.10789 19.5 11.375 19.5C13.6421 19.5 15.7645 18.379 17.359 17.0328C18.1489 16.3659 18.7785 15.6689 19.202 15.0813C19.4143 14.7868 19.564 14.5346 19.6564 14.3403C19.7094 14.2289 19.7328 14.1589 19.7429 14.125C19.7328 14.0911 19.7094 14.0211 19.6564 13.9097C19.564 13.7154 19.4143 13.4632 19.202 13.1687C18.7785 12.5811 18.1489 11.8841 17.359 11.2172C17.0236 10.9341 16.6649 10.6609 16.2864 10.406C16.4253 10.8713 16.5 11.3645 16.5 11.875C16.5 14.7055 14.2055 17 11.375 17C8.54454 17 6.25 14.7055 6.25 11.875C6.25 11.3645 6.32465 10.8713 6.46364 10.406C6.08511 10.6609 5.72636 10.9341 5.39097 11.2172C4.60106 11.8841 3.97147 12.5811 3.54798 13.1687C3.33571 13.4632 3.18597 13.7154 3.09355 13.9097C3.04055 14.0211 3.01721 14.0911 3.00709 14.125ZM8.25 11.875C8.25 10.1491 9.64911 8.75 11.375 8.75C13.1009 8.75 14.5 10.1491 14.5 11.875C14.5 13.6009 13.1009 15 11.375 15C9.64911 15 8.25 13.6009 8.25 11.875Z"
    fill="#1E212C" />
</svg>
