<svg width="24" height="24" viewBox="0 0 24 24" fill="none" xmlns="http://www.w3.org/2000/svg">
  <path fill-rule="evenodd" clip-rule="evenodd"
    d="M20.75 17.75V13C20.75 11.3432 19.4069 10 17.75 10L6.25001 10C4.59315 10 3.25 11.3431 3.25 13L3.25 17.75C3.25 19.4069 4.59315 20.75 6.25 20.75H17.75C19.4069 20.75 20.75 19.4069 20.75 17.75ZM22.75 13V17.75C22.75 20.5114 20.5114 22.75 17.75 22.75H6.25C3.48857 22.75 1.25 20.5114 1.25 17.75L1.25 13C1.25 10.2386 3.48858 8 6.25001 8L17.75 8.00002C20.5114 8.00003 22.75 10.2386 22.75 13Z"
    fill="#1E212C" />
  <path fill-rule="evenodd" clip-rule="evenodd"
    d="M12 3.25C9.23858 3.25 7 5.48858 7 8.25H5C5 4.38401 8.13401 1.25 12 1.25C15.866 1.25 19 4.38401 19 8.25H17C17 5.48858 14.7614 3.25 12 3.25Z"
    fill="#1E212C" />
  <path fill-rule="evenodd" clip-rule="evenodd"
    d="M12 12.5C12.5523 12.5 13 12.9477 13 13.5V16.5C13 17.0523 12.5523 17.5 12 17.5C11.4477 17.5 11 17.0523 11 16.5V13.5C11 12.9477 11.4477 12.5 12 12.5Z"
    fill="#1E212C" />
</svg>
