<svg width="24" height="24" viewBox="0 0 24 24" fill="none" xmlns="http://www.w3.org/2000/svg">
    <path fill-rule="evenodd" clip-rule="evenodd" d="M15.0429 3.29289C15.4334 2.90237 16.0666 2.90237 16.4571 3.29289L21.7071 8.54289C22.0976 8.93342 22.0976 9.56658 21.7071 9.95711L16.4571 15.2071C16.0666 15.5976 15.4334 15.5976 15.0429 15.2071C14.6524 14.8166 14.6524 14.1834 15.0429 13.7929L18.5858 10.25H8.25C5.90279 10.25 4 12.1528 4 14.5C4 16.8472 5.90279 18.75 8.25 18.75H11.25C11.8023 18.75 12.25 19.1977 12.25 19.75C12.25 20.3023 11.8023 20.75 11.25 20.75H8.25C4.79822 20.75 2 17.9518 2 14.5C2 11.0482 4.79822 8.25 8.25 8.25H18.5858L15.0429 4.70711C14.6524 4.31658 14.6524 3.68342 15.0429 3.29289Z" fill="#1E212C"/>
</svg>
