<svg width="24" height="24" viewBox="0 0 24 24" fill="none" xmlns="http://www.w3.org/2000/svg">
    <path fill-rule="evenodd" clip-rule="evenodd" d="M16.2929 3.29289C16.6834 2.90237 17.3166 2.90237 17.7071 3.29289L21.2071 6.79289C21.5976 7.18342 21.5976 7.81658 21.2071 8.20711L17.7071 11.7071C17.3166 12.0976 16.6834 12.0976 16.2929 11.7071C15.9024 11.3166 15.9024 10.6834 16.2929 10.2929L18.0858 8.5H4.5C3.94772 8.5 3.5 8.05228 3.5 7.5C3.5 6.94772 3.94772 6.5 4.5 6.5H18.0858L16.2929 4.70711C15.9024 4.31658 15.9024 3.68342 16.2929 3.29289ZM7.70711 12.2929C8.09763 12.6834 8.09763 13.3166 7.70711 13.7071L5.91421 15.5H19.5C20.0523 15.5 20.5 15.9477 20.5 16.5C20.5 17.0523 20.0523 17.5 19.5 17.5H5.91421L7.70711 19.2929C8.09763 19.6834 8.09763 20.3166 7.70711 20.7071C7.31658 21.0976 6.68342 21.0976 6.29289 20.7071L2.79289 17.2071C2.40237 16.8166 2.40237 16.1834 2.79289 15.7929L6.29289 12.2929C6.68342 11.9024 7.31658 11.9024 7.70711 12.2929Z" fill="#1E212C"/>
</svg>
