<?xml version="1.0" encoding="utf-8"?><svg viewBox="0 0 24 25" xmlns="http://www.w3.org/2000/svg" xmlns:xlink="http://www.w3.org/1999/xlink"><style>:root>svg{display:none}:root>svg:target{display:block}</style><svg fill="none" viewBox="0 0 24 25" id="alert" xmlns="http://www.w3.org/2000/svg"><path fill-rule="evenodd" clip-rule="evenodd" d="M12 15.125a1 1 0 01-1-1V8.5a1 1 0 112 0v5.625a1 1 0 01-1 1z" fill="#1E212C"/><path d="M13 17.5a1 1 0 11-2 0 1 1 0 012 0z" fill="#1E212C"/><path fill-rule="evenodd" clip-rule="evenodd" d="M23.084 17.977c1.179 2-.263 4.523-2.584 4.523h-17c-2.32 0-3.763-2.524-2.584-4.523L9.932 2.68a2.4 2.4 0 014.136 0l9.016 15.296zM20.5 20.5a1 1 0 00.861-1.508L12.345 3.697a.4.4 0 00-.69 0L2.64 18.992a1 1 0 00.862 1.508h16.998z" fill="#1E212C"/></svg><svg fill="none" viewBox="0 0 24 25" id="alert-ocagon" xmlns="http://www.w3.org/2000/svg"><path fill-rule="evenodd" clip-rule="evenodd" d="M6.004 2.467A3.3 3.3 0 018.337 1.5h7.326a3.3 3.3 0 012.333.967l4.037 4.037A3.3 3.3 0 0123 8.837v7.326a3.3 3.3 0 01-.967 2.333l-4.037 4.038a3.3 3.3 0 01-2.333.966H8.337a3.3 3.3 0 01-2.333-.967l-4.037-4.037A3.3 3.3 0 011 16.163V8.837a3.3 3.3 0 01.967-2.333l4.037-4.037zM8.337 3.5a1.3 1.3 0 00-.919.38L3.381 7.919a1.3 1.3 0 00-.381.92v7.325c0 .345.137.675.38.919l4.038 4.037a1.3 1.3 0 00.92.381h7.325a1.3 1.3 0 00.919-.38l4.037-4.038a1.3 1.3 0 00.381-.92V8.838a1.3 1.3 0 00-.38-.919l-4.038-4.037a1.3 1.3 0 00-.92-.381H8.338z" fill="#1E212C"/><path d="M13 17a1 1 0 11-2 0 1 1 0 012 0z" fill="#1E212C"/><path fill-rule="evenodd" clip-rule="evenodd" d="M12 14.625a1 1 0 01-1-1V8a1 1 0 112 0v5.625a1 1 0 01-1 1z" fill="#1E212C"/></svg><svg fill="none" viewBox="0 0 24 24" id="attach" xmlns="http://www.w3.org/2000/svg"><g clip-path="url(#acclip0_2491_3763)"><path fill-rule="evenodd" clip-rule="evenodd" d="M18.43 3.935a4.625 4.625 0 00-6.54 0l-6.342 6.341a1 1 0 01-1.414-1.414l6.341-6.341a6.625 6.625 0 019.37 9.369l-8.531 8.53a4.75 4.75 0 11-6.718-6.717l.004-.004 6.44-6.37.003-.003c1.098-1.096 2.882-1.179 4.029-.032a2.875 2.875 0 010 4.065l-4.508 4.508a1 1 0 01-1.414-1.414l4.507-4.508a.875.875 0 000-1.237c-.317-.318-.836-.332-1.202.034l-.004.004-6.44 6.371-.002.002a2.75 2.75 0 003.89 3.887l8.531-8.53a4.625 4.625 0 000-6.541z" fill="#1E212C"/></g><defs><clipPath id="acclip0_2491_3763"><path fill="#fff" d="M0 0h24v24H0z"/></clipPath></defs></svg><svg fill="none" viewBox="0 0 24 24" id="back" xmlns="http://www.w3.org/2000/svg"><path fill-rule="evenodd" clip-rule="evenodd" d="M8.957 3.293a1 1 0 00-1.414 0l-5.25 5.25a1 1 0 000 1.414l5.25 5.25a1 1 0 001.414-1.414L5.414 10.25H15.75a4.25 4.25 0 010 8.5h-3a1 1 0 100 2h3a6.25 6.25 0 100-12.5H5.414l3.543-3.543a1 1 0 000-1.414z" fill="#1E212C"/></svg><svg fill="none" viewBox="0 0 24 24" id="bag" xmlns="http://www.w3.org/2000/svg"><path fill-rule="evenodd" clip-rule="evenodd" d="M6 3.25a2 2 0 00-2 2v13.5a2 2 0 002 2h12a2 2 0 002-2V5.25a2 2 0 00-2-2H6zm-4 2a4 4 0 014-4h12a4 4 0 014 4v13.5a4 4 0 01-4 4H6a4 4 0 01-4-4V5.25zM16.5 5a1 1 0 011 1v1.5a5.5 5.5 0 01-11 0V6a1 1 0 112 0v1.5a3.5 3.5 0 107 0V6a1 1 0 011-1z" fill="#1E212C"/></svg><svg fill="none" viewBox="0 0 24 24" id="behance" xmlns="http://www.w3.org/2000/svg"><g clip-path="url(#afclip0_2491_3802)" fill="#1E212C"><path d="M12.365 15.144c0-1.972-.879-3.429-2.695-3.975 1.325-.673 2.016-1.693 2.016-3.279C11.686 4.763 9.494 4 6.964 4H0v15.703h7.16c2.684 0 5.205-1.369 5.205-4.56zM3.247 6.68h3.046c1.171 0 2.226.35 2.226 1.794 0 1.333-.82 1.87-1.98 1.87H3.246V6.68zm-.001 10.355v-4.324h3.538c1.43 0 2.334.633 2.334 2.242 0 1.586-1.08 2.082-2.4 2.082H3.245zM18.8 20c2.554 0 4.208-1.224 5.004-3.824h-2.592c-.28.97-1.43 1.484-2.322 1.484-1.721 0-2.625-1.072-2.625-2.894h7.714c.244-3.646-1.66-6.753-5.18-6.753-3.26 0-5.473 2.604-5.473 6.017 0 3.541 2.097 5.97 5.473 5.97zm-.093-9.628c1.476 0 2.218.922 2.342 2.429h-4.78c.097-1.495 1.03-2.429 2.438-2.429zM15.67 4.825h5.99v1.547h-5.99V4.825z"/></g><defs><clipPath id="afclip0_2491_3802"><path fill="#fff" d="M0 0h24v24H0z"/></clipPath></defs></svg><svg fill="none" viewBox="0 0 24 25" id="bell" xmlns="http://www.w3.org/2000/svg"><path fill-rule="evenodd" clip-rule="evenodd" d="M9.052 17.5h5.892l.262.6a3.5 3.5 0 11-6.417 0l.263-.6zm1.446 2a1.5 1.5 0 003 0h-3z" fill="#1E212C"/><path fill-rule="evenodd" clip-rule="evenodd" d="M12 4.5c-2.945 0-5.5 2.865-5.5 6v3.333A4.333 4.333 0 014.767 17.3a.146.146 0 00-.035.034.061.061 0 00-.009.019.126.126 0 00.005.071c.01.032.027.051.04.06a.06.06 0 00.017.01.148.148 0 00.048.006h14.334a.148.148 0 00.048-.006.06.06 0 00.018-.01.127.127 0 00.04-.06.126.126 0 00.004-.071.062.062 0 00-.009-.019.148.148 0 00-.035-.034 4.333 4.333 0 01-1.733-3.467V10.5c0-3.135-2.555-6-5.5-6zm-7.5 6c0-4.045 3.265-8 7.5-8 4.235 0 7.5 3.955 7.5 8v3.333c0 .735.346 1.426.933 1.867 1.623 1.217.763 3.8-1.266 3.8H4.833c-2.028 0-2.89-2.583-1.266-3.8.587-.44.933-1.132.933-1.867V10.5z" fill="#1E212C"/></svg><svg fill="none" viewBox="0 0 24 24" id="block" xmlns="http://www.w3.org/2000/svg"><path fill-rule="evenodd" clip-rule="evenodd" d="M4.543 19.504a1 1 0 010-1.415l13.5-13.5a1 1 0 111.414 1.415l-13.5 13.5a1 1 0 01-1.414 0z" fill="#1E212C"/><path fill-rule="evenodd" clip-rule="evenodd" d="M12 3a9 9 0 100 18 9 9 0 000-18zM1 12C1 5.925 5.925 1 12 1s11 4.925 11 11-4.925 11-11 11S1 18.075 1 12z" fill="#1E212C"/></svg><svg fill="none" viewBox="0 0 24 24" id="bottom_left" xmlns="http://www.w3.org/2000/svg"><path fill-rule="evenodd" clip-rule="evenodd" d="M18.707 5.293a1 1 0 010 1.414L8.414 17H13a1 1 0 110 2H6a1 1 0 01-1-1v-7a1 1 0 112 0v4.586L17.293 5.293a1 1 0 011.414 0z" fill="#1E212C"/></svg><svg fill="none" viewBox="0 0 24 24" id="bottom_right" xmlns="http://www.w3.org/2000/svg"><path fill-rule="evenodd" clip-rule="evenodd" d="M5.293 5.293a1 1 0 011.414 0L17 15.586V11a1 1 0 112 0v7a1 1 0 01-1 1h-7a1 1 0 110-2h4.586L5.293 6.707a1 1 0 010-1.414z" fill="#1E212C"/></svg><svg fill="none" viewBox="0 0 24 24" id="burger_menu" xmlns="http://www.w3.org/2000/svg"><path fill-rule="evenodd" clip-rule="evenodd" d="M1 12a1 1 0 011-1h20a1 1 0 110 2H2a1 1 0 01-1-1zM1 18a1 1 0 011-1h20a1 1 0 110 2H2a1 1 0 01-1-1zM1 6a1 1 0 011-1h20a1 1 0 110 2H2a1 1 0 01-1-1z" fill="#1E212C"/></svg><svg fill="none" viewBox="0 0 24 24" id="calendar" xmlns="http://www.w3.org/2000/svg"><path fill-rule="evenodd" clip-rule="evenodd" d="M7.5 1.25a1 1 0 011 1v.5h7v-.5a1 1 0 112 0v.5h1.25a4 4 0 014 4v12a4 4 0 01-4 4H5.25a4 4 0 01-4-4v-12a4 4 0 014-4H6.5v-.5a1 1 0 011-1zm-1 3.5H5.25a2 2 0 00-2 2V8h17.5V6.75a2 2 0 00-2-2H17.5v.5a1 1 0 11-2 0v-.5h-7v.5a1 1 0 01-2 0v-.5zM20.75 10H3.25v8.75a2 2 0 002 2h13.5a2 2 0 002-2V10z" fill="#1E212C"/></svg><svg fill="none" viewBox="0 0 24 24" id="card" xmlns="http://www.w3.org/2000/svg"><path fill-rule="evenodd" clip-rule="evenodd" d="M4.25 4.75a1 1 0 00-1 1v1.5h17.5v-1.5a1 1 0 00-1-1H4.25zm16.5 4.5H3.25v2.5h17.5v-2.5zm0 4.5H3.25v4.5a1 1 0 001 1h15.5a1 1 0 001-1v-4.5zm-19.5-8a3 3 0 013-3h15.5a3 3 0 013 3v12.5a3 3 0 01-3 3H4.25a3 3 0 01-3-3V5.75z" fill="#1E212C"/></svg><svg fill="none" viewBox="0 0 24 24" id="cart" xmlns="http://www.w3.org/2000/svg"><path fill-rule="evenodd" clip-rule="evenodd" d="M3.142 3.008A7.513 7.513 0 002.654 3H1a1 1 0 110-2H2.683c.214 0 .427 0 .609.014.203.015.438.05.682.16a2 2 0 01.845.71c.149.222.224.448.274.645.045.177.081.386.118.598l.005.028.238 1.37 13.014.385c.51.015.95.028 1.314.068.383.042.764.122 1.129.316a3 3 0 011.277 1.316c.184.37.252.753.283 1.138.029.364.029.805.029 1.315v.074c0 .48 0 .895-.027 1.24-.028.366-.091.729-.259 1.085a3 3 0 01-1.18 1.3c-.339.202-.694.3-1.056.363-.34.06-.755.1-1.232.146l-9.734.942c-.489.048-.913.089-1.266.095-.375.006-.75-.023-1.128-.161a3 3 0 01-1.406-1.071c-.233-.327-.361-.682-.454-1.045-.088-.342-.161-.762-.245-1.246L3.245 3.497a7.518 7.518 0 00-.094-.488l-.01-.001zm2.662 3.528l.673 3.87c.092.53.152.872.218 1.128.063.245.113.334.144.378a1 1 0 00.469.357c.051.02.15.043.403.04.265-.006.61-.038 1.145-.09l9.662-.935c.523-.05.859-.084 1.114-.129.242-.042.333-.084.38-.111.17-.102.308-.253.393-.434.023-.048.055-.143.074-.388.02-.258.021-.596.021-1.121 0-.559 0-.919-.023-1.193-.02-.263-.057-.361-.08-.41a1 1 0 00-.427-.439c-.048-.026-.145-.064-.407-.093a16.74 16.74 0 00-1.192-.058L5.804 6.536zM8.5 17.5a1 1 0 100 2 1 1 0 000-2zm-3 1a3 3 0 116 0 3 3 0 01-6 0zM18 17.5a1 1 0 100 2 1 1 0 000-2zm-3 1a3 3 0 116 0 3 3 0 01-6 0z" fill="#1E212C"/></svg><svg fill="none" viewBox="0 0 24 24" id="chats" xmlns="http://www.w3.org/2000/svg"><path fill-rule="evenodd" clip-rule="evenodd" d="M21.923 10.567a7.753 7.753 0 01-.98 2.787c.037.214.056.43.056.647 0 .752-.218 1.473-.622 2.127-.201.327-.253.71-.273.963-.023.29-.015.607.005.912.023.342.066.7.114 1.04-.39-.115-.814-.229-1.217-.32a8.679 8.679 0 00-.991-.172c-.272-.029-.664-.05-1.015.063a8.139 8.139 0 01-2.5.386 8.045 8.045 0 01-2.882-.514 13.24 13.24 0 01-4.068-.437C9.129 19.873 11.728 21 14.5 21c1.082 0 2.122-.166 3.08-.471h.009c.025 0 .093-.002.22.01.201.022.459.068.756.135.593.134 1.258.33 1.777.495 1.1.35 2.166-.61 1.97-1.727a15.772 15.772 0 01-.207-1.575 4.46 4.46 0 01-.007-.619c.005-.064.011-.103.015-.125A6.012 6.012 0 0023 14a6.026 6.026 0 00-1.077-3.433z" fill="#1E212C"/><path fill-rule="evenodd" clip-rule="evenodd" d="M5.597 5.698C4.249 6.728 3.5 8.082 3.5 9.5c0 .707.184 1.388.529 2.021.131.241.169.49.182.659.015.183.007.372-.009.549a8.768 8.768 0 01-.2 1.148c-.106.46-.243.953-.383 1.415a27.508 27.508 0 011.653-.549c.443-.129.89-.24 1.287-.304.343-.054.84-.107 1.268.041.96.332 2.034.52 3.173.52 2.147 0 4.054-.667 5.403-1.698C17.75 12.27 18.5 10.918 18.5 9.5c0-1.418-.75-2.771-2.097-3.802C15.053 4.667 13.147 4 11 4c-2.148 0-4.054.667-5.403 1.698zM4.382 4.11C6.109 2.79 8.452 2 11 2c2.547 0 4.89.788 6.617 2.11C19.346 5.43 20.5 7.327 20.5 9.5c0 2.172-1.154 4.069-2.883 5.39C15.89 16.213 13.547 17 11 17c-1.343 0-2.626-.219-3.791-.617-.001.003-.096-.006-.338.032-.278.044-.634.13-1.038.248-.806.235-1.71.568-2.4.836-1.193.464-2.409-.682-2.007-1.903.213-.647.465-1.465.628-2.171a6.86 6.86 0 00.157-.877c.007-.077.008-.133.008-.17a6.176 6.176 0 01-.72-2.878c0-2.172 1.154-4.069 2.883-5.39z" fill="#1E212C"/></svg><svg fill="none" viewBox="0 0 24 24" id="check" xmlns="http://www.w3.org/2000/svg"><path d="M12 23c6.065 0 11-4.934 11-11 0-1.047-.146-2.079-.436-3.067a.916.916 0 10-1.759.515c.24.82.362 1.68.362 2.552 0 5.054-4.113 9.167-9.167 9.167-5.054 0-9.167-4.113-9.167-9.167 0-5.054 4.113-9.167 9.167-9.167 1.837 0 3.604.537 5.11 1.553a.917.917 0 001.026-1.52A10.932 10.932 0 0012 1C5.935 1 1 5.934 1 12s4.935 11 11 11z" fill="#1E212C"/><path d="M22.293 2.293L12 12.585 8.707 9.293a1 1 0 00-1.414 1.414l4 4a.995.995 0 001.414 0l11-11a1 1 0 00-1.414-1.414z" fill="#1E212C"/></svg><svg fill="none" viewBox="0 0 24 24" id="check_round" xmlns="http://www.w3.org/2000/svg"><path fill-rule="evenodd" clip-rule="evenodd" d="M12 3a9 9 0 100 18 9 9 0 000-18zM1 12C1 5.925 5.925 1 12 1s11 4.925 11 11-4.925 11-11 11S1 18.075 1 12z" fill="#1E212C"/><path fill-rule="evenodd" clip-rule="evenodd" d="M17.187 8.273a1 1 0 01.04 1.414l-5.667 6a1 1 0 01-1.454 0l-3.333-3.53a1 1 0 111.454-1.373l2.606 2.76 4.94-5.23a1 1 0 011.414-.041z" fill="#1E212C"/></svg><svg fill="none" viewBox="0 0 24 24" id="chevron_down" xmlns="http://www.w3.org/2000/svg"><path fill-rule="evenodd" clip-rule="evenodd" d="M19.707 8.293a1 1 0 010 1.414l-7 7a1 1 0 01-1.414 0l-7-7a1 1 0 011.414-1.414L12 14.586l6.293-6.293a1 1 0 011.414 0z" fill="#1E212C"/></svg><svg fill="none" viewBox="0 0 24 24" id="chevron_left" xmlns="http://www.w3.org/2000/svg"><path fill-rule="evenodd" clip-rule="evenodd" d="M15.707 4.293a1 1 0 00-1.414 0l-7 7a1 1 0 000 1.414l7 7a1 1 0 001.414-1.414L9.414 12l6.293-6.293a1 1 0 000-1.414z" fill="#1E212C"/></svg><svg fill="none" viewBox="0 0 24 24" id="chevron_right" xmlns="http://www.w3.org/2000/svg"><path fill-rule="evenodd" clip-rule="evenodd" d="M8.293 4.293a1 1 0 011.414 0l7 7a1 1 0 010 1.414l-7 7a1 1 0 01-1.414-1.414L14.586 12 8.293 5.707a1 1 0 010-1.414z" fill="#1E212C"/></svg><svg fill="none" viewBox="0 0 24 24" id="chevron_up" xmlns="http://www.w3.org/2000/svg"><path fill-rule="evenodd" clip-rule="evenodd" d="M4.293 15.707a1 1 0 010-1.414l7-7a1 1 0 011.414 0l7 7a1 1 0 01-1.414 1.414L12 9.414l-6.293 6.293a1 1 0 01-1.414 0z" fill="#1E212C"/></svg><svg fill="none" viewBox="0 0 24 24" id="clock" xmlns="http://www.w3.org/2000/svg"><path d="M13 6.5a1 1 0 10-2 0V12a1 1 0 00.293.707l3 3a1 1 0 001.414-1.414L13 11.586V6.5z" fill="#1E212C"/><path fill-rule="evenodd" clip-rule="evenodd" d="M12 1C5.925 1 1 5.925 1 12s4.925 11 11 11 11-4.925 11-11S18.075 1 12 1zM3 12a9 9 0 1118 0 9 9 0 01-18 0z" fill="#1E212C"/></svg><svg fill="none" viewBox="0 0 24 24" id="close_round" xmlns="http://www.w3.org/2000/svg"><path fill-rule="evenodd" clip-rule="evenodd" d="M7.305 7.305a1.042 1.042 0 011.475 0l3.22 3.22 3.22-3.22a1.042 1.042 0 011.475 1.475L13.475 12l3.22 3.22a1.042 1.042 0 11-1.474 1.475L12 13.475l-3.221 3.22a1.042 1.042 0 11-1.475-1.474L10.525 12l-3.22-3.22a1.042 1.042 0 010-1.475z" fill="#1E212C"/><path fill-rule="evenodd" clip-rule="evenodd" d="M12 3a9 9 0 100 18 9 9 0 000-18zM1 12C1 5.925 5.925 1 12 1s11 4.925 11 11-4.925 11-11 11S1 18.075 1 12z" fill="#1E212C"/></svg><svg fill="none" viewBox="0 0 24 24" id="closed-eye" xmlns="http://www.w3.org/2000/svg"><path fill-rule="evenodd" clip-rule="evenodd" d="M8.218 18.959a1 1 0 001.241-.677l.727-2.468a8.97 8.97 0 003.629 0l.726 2.468a1 1 0 001.918-.564l-.738-2.51c.988-.43 1.942-1.031 2.843-1.795l1.697 1.862a1 1 0 001.478-1.347l-1.743-1.913a18.098 18.098 0 001.852-2.485 1 1 0 00-1.696-1.06c-.695 1.112-1.444 2.05-2.224 2.817-1.197 1.177-2.465 1.953-3.735 2.362a7.04 7.04 0 01-4.386 0c-1.27-.409-2.538-1.185-3.735-2.362-.78-.768-1.529-1.705-2.224-2.817a1 1 0 10-1.696 1.06 18.103 18.103 0 001.853 2.485L2.26 13.927a1 1 0 001.478 1.348l1.697-1.862a11.533 11.533 0 002.844 1.794l-.74 2.51a1 1 0 00.678 1.242z" fill="#1E212C"/></svg><svg fill="none" viewBox="0 0 24 24" id="comments" xmlns="http://www.w3.org/2000/svg"><path fill-rule="evenodd" clip-rule="evenodd" d="M20.75 14.75v-8.5a3 3 0 00-3-3H6.25a3 3 0 00-3 3v14.307l3.93-2.807h10.57a3 3 0 003-3zm2-8.5v8.5a5 5 0 01-5 5H7.82l-3.408 2.434c-1.323.946-3.162 0-3.162-1.627V6.25a5 5 0 015-5h11.5a5 5 0 015 5z" fill="#1E212C"/></svg><svg fill="none" viewBox="0 0 24 24" id="convert" xmlns="http://www.w3.org/2000/svg"><path fill-rule="evenodd" clip-rule="evenodd" d="M2.1 2a1 1 0 011 1v4.436A9.999 9.999 0 0112 2c4.355 0 8.058 2.784 9.43 6.667a1 1 0 01-1.885.666A8.004 8.004 0 005.07 8H8.1a1 1 0 010 2h-6a1 1 0 01-1-1V3a1 1 0 011-1zM3.177 14.057a1 1 0 011.276.61A8.004 8.004 0 0018.928 16h-3.03a1 1 0 110-2h6a1 1 0 011 1v6a1 1 0 11-2 0v-4.436a9.999 9.999 0 01-8.9 5.436c-4.356 0-8.058-2.784-9.43-6.667a1 1 0 01.609-1.276z" fill="#1E212C"/></svg><svg fill="none" viewBox="0 0 24 24" id="cross" xmlns="http://www.w3.org/2000/svg"><path fill-rule="evenodd" clip-rule="evenodd" d="M4.293 4.293a1 1 0 011.414 0L12 10.586l6.293-6.293a1 1 0 111.414 1.414L13.414 12l6.293 6.293a1 1 0 01-1.414 1.414L12 13.414l-6.293 6.293a1 1 0 01-1.414-1.414L10.586 12 4.293 5.707a1 1 0 010-1.414z" fill="#1E212C"/></svg><svg fill="none" viewBox="0 0 24 25" id="danger" xmlns="http://www.w3.org/2000/svg"><path fill-rule="evenodd" clip-rule="evenodd" d="M12 3.5a9 9 0 100 18 9 9 0 000-18zm-11 9c0-6.075 4.925-11 11-11s11 4.925 11 11-4.925 11-11 11-11-4.925-11-11z" fill="#1E212C"/><path d="M13 16.5a1 1 0 11-2 0 1 1 0 012 0z" fill="#1E212C"/><path fill-rule="evenodd" clip-rule="evenodd" d="M12 14.125a1 1 0 01-1-1V7.5a1 1 0 112 0v5.625a1 1 0 01-1 1z" fill="#1E212C"/></svg><svg fill="none" viewBox="0 0 24 24" id="delete" xmlns="http://www.w3.org/2000/svg"><path fill-rule="evenodd" clip-rule="evenodd" d="M7.25 3.75a2.5 2.5 0 012.5-2.5h4.5a2.5 2.5 0 012.5 2.5v.5h5a1 1 0 110 2H20.5v12.5a4 4 0 01-4 4h-9a4 4 0 01-4-4V6.25H2.25a1 1 0 010-2h5v-.5zm2 .5h5.5v-.5a.5.5 0 00-.5-.5h-4.5a.5.5 0 00-.5.5v.5zm-3.75 2v12.5a2 2 0 002 2h9a2 2 0 002-2V6.25h-13zM12 8a1 1 0 011 1v9a1 1 0 11-2 0V9a1 1 0 011-1z" fill="#1E212C"/></svg><svg fill="none" viewBox="0 0 24 24" id="dislike" xmlns="http://www.w3.org/2000/svg"><path fill-rule="evenodd" clip-rule="evenodd" d="M9.849 20.75c.14 0 .269-.074.34-.195l.005-.01 4.586-7.436V3.25H6.195a.393.393 0 00-.384.308l-.003.015-2.55 9.96a.393.393 0 00.386.467H7.53c.65 0 1.31.218 1.79.686.504.492.737 1.197.587 1.956l-.718 3.639a.393.393 0 00.385.469h.274zm6.931-17.5v9.143h3.544a.393.393 0 00.393-.39l.064-8.357a.393.393 0 00-.393-.396H16.78zm-.441 11.143l-4.43 7.182a2.393 2.393 0 01-2.06 1.175h-.274a2.393 2.393 0 01-2.348-2.857l.72-3.638a.209.209 0 00.002-.1.087.087 0 00-.026-.038c-.041-.04-.166-.117-.392-.117H3.644a2.393 2.393 0 01-2.336-2.912l.003-.016 2.552-9.966A2.393 2.393 0 016.195 1.25h14.193a2.393 2.393 0 012.392 2.411l-.063 8.357a2.393 2.393 0 01-2.393 2.375h-3.985z" fill="#1E212C"/></svg><svg fill="none" viewBox="0 0 24 24" id="down" xmlns="http://www.w3.org/2000/svg"><path fill-rule="evenodd" clip-rule="evenodd" d="M17.207 14.793a1 1 0 010 1.414l-4.5 4.5a1 1 0 01-1.414 0l-4.5-4.5a1 1 0 111.414-1.414L11 17.586V4a1 1 0 112 0v13.586l2.793-2.793a1 1 0 011.414 0z" fill="#1E212C"/></svg><svg fill="none" viewBox="0 0 24 24" id="dribbble" xmlns="http://www.w3.org/2000/svg"><path d="M19.439 5.324l-.14-.153A9.974 9.974 0 0012 2a9.957 9.957 0 00-3.27.55l-.103.036a10.033 10.033 0 00-6.484 7.73l-.003.01-.005.034a9.953 9.953 0 002.101 7.936l.117.14a9.982 9.982 0 0011.033 2.973 10.035 10.035 0 006.439-7.543l.005-.025c.111-.597.17-1.212.17-1.841a9.96 9.96 0 00-2.561-6.676zM12 4c2.057 0 3.934.78 5.353 2.06-.993 1.361-2.383 2.256-3.904 2.834a27.325 27.325 0 00-.75-1.608 23.63 23.63 0 00-1.934-3.19A8.03 8.03 0 0112 4zm-3.284.706c.596.745 1.728 2.328 2.796 4.752-2.805.601-5.682.402-7.17.225a8.04 8.04 0 014.374-4.977zM4 12c0-.114.003-.227.008-.34.797.1 1.978.209 3.356.209.668 0 1.38-.026 2.118-.09a19.28 19.28 0 002.778-.438c.19.537.374 1.105.546 1.704-.9.262-1.831.59-2.79.983a34.683 34.683 0 00-4.697 2.367A7.953 7.953 0 014 12zm8 8a7.968 7.968 0 01-5.356-2.063c1.334-.784 3.84-2.12 6.652-2.947a33.24 33.24 0 01.67 4.765c-.628.16-1.287.245-1.966.245zm3.912-1.024a34.998 34.998 0 00-.675-4.456c1.472-.274 2.973-.356 4.39-.107a8.04 8.04 0 01-3.715 4.563zm4.075-6.531c-1.587-.283-3.338-.24-5.239.128a31.44 31.44 0 00-.576-1.817c1.877-.718 3.396-1.776 4.51-3.148a7.952 7.952 0 011.305 4.837z" fill="#1E212C"/></svg><svg fill="none" viewBox="0 0 24 24" id="expand" xmlns="http://www.w3.org/2000/svg"><path fill-rule="evenodd" clip-rule="evenodd" d="M3 4a1 1 0 011-1h5a1 1 0 010 2H6.414L12 10.586 17.586 5H15a1 1 0 110-2h5a1 1 0 011 1v5a1 1 0 11-2 0V6.414L13.414 12 19 17.586V15a1 1 0 112 0v5a1 1 0 01-1 1h-5a1 1 0 110-2h2.586L12 13.414 6.414 19H9a1 1 0 110 2H4a1 1 0 01-1-1v-5a1 1 0 112 0v2.586L10.586 12 5 6.414V9a1 1 0 01-2 0V4z" fill="#1E212C"/></svg><svg fill="none" viewBox="0 0 24 24" id="external-link" xmlns="http://www.w3.org/2000/svg"><path fill-rule="evenodd" clip-rule="evenodd" d="M8 13.5a1 1 0 011-1h6a1 1 0 110 2H9a1 1 0 01-1-1zM8 17.25a1 1 0 011-1h3a1 1 0 110 2H9a1 1 0 01-1-1z" fill="#1E212C"/><path fill-rule="evenodd" clip-rule="evenodd" d="M9.043 1.543a1 1 0 01.707-.293h6.75a4 4 0 014 4v13.5a4 4 0 01-4 4h-9a4 4 0 01-4-4V7.5a1 1 0 01.293-.707l5.25-5.25zM9.5 3.914V7.25H6.164L9.5 3.914zm-4 5.336v9.5a2 2 0 002 2h9a2 2 0 002-2V5.25a2 2 0 00-2-2h-5v5a1 1 0 01-1 1h-5z" fill="#1E212C"/></svg><svg fill="none" viewBox="0 0 24 24" id="eye" xmlns="http://www.w3.org/2000/svg"><path d="M2.64 8.518C5.346 6.262 8.459 5 11.75 5s6.405 1.262 9.11 3.518a1 1 0 001.28-1.536C19.135 4.474 15.58 3 11.75 3 7.92 3 4.366 4.474 1.36 6.982a1 1 0 101.28 1.536z" fill="#1E212C"/><path fill-rule="evenodd" clip-rule="evenodd" d="M4.1 9.689C5.9 8.171 8.465 6.75 11.376 6.75c2.91 0 5.476 1.42 7.274 2.939.907.765 1.65 1.581 2.175 2.31.263.364.481.72.639 1.052.144.304.287.687.287 1.074s-.143.77-.287 1.074c-.158.331-.376.688-.639 1.052-.525.729-1.268 1.545-2.175 2.31-1.798 1.518-4.363 2.939-7.274 2.939-2.91 0-5.476-1.42-7.274-2.939-.907-.765-1.65-1.581-2.176-2.31a6.945 6.945 0 01-.638-1.052C1.143 14.895 1 14.512 1 14.125s.143-.77.287-1.074c.158-.331.376-.688.638-1.052.526-.729 1.27-1.545 2.176-2.31zm-1.093 4.436c.01.034.034.104.087.215.092.195.242.447.454.741.423.588 1.053 1.285 1.843 1.952 1.595 1.346 3.717 2.467 5.984 2.467s4.39-1.121 5.984-2.467c.79-.667 1.42-1.364 1.843-1.952.212-.294.362-.546.454-.74.053-.112.077-.182.087-.216a1.514 1.514 0 00-.087-.215 4.981 4.981 0 00-.454-.741c-.424-.588-1.053-1.285-1.843-1.952a12.44 12.44 0 00-1.073-.811 5.125 5.125 0 11-9.823 0c-.378.255-.737.528-1.072.811-.79.667-1.42 1.364-1.843 1.952a4.986 4.986 0 00-.454.74 1.514 1.514 0 00-.087.216zm5.243-2.25a3.125 3.125 0 116.25 0 3.125 3.125 0 01-6.25 0z" fill="#1E212C"/></svg><svg fill="none" viewBox="0 0 24 24" id="facebool" xmlns="http://www.w3.org/2000/svg"><path d="M17.563 1.005L14.786 1c-3.12 0-5.137 2.125-5.137 5.414v2.497H6.857c-.242 0-.437.2-.437.448v3.617c0 .248.196.449.437.449h2.792v9.126c0 .248.195.449.437.449h3.643a.443.443 0 00.437-.449v-9.126h3.265c.241 0 .436-.2.436-.449l.002-3.617a.456.456 0 00-.128-.317.431.431 0 00-.31-.131h-3.265V6.794c0-1.017.236-1.533 1.525-1.533h1.871c.241 0 .437-.202.437-.45V1.454a.443.443 0 00-.436-.448z" fill="#1E212C"/></svg><svg fill="none" viewBox="0 0 24 24" id="figma" xmlns="http://www.w3.org/2000/svg"><path fill-rule="evenodd" clip-rule="evenodd" d="M4.337 18.667a4.334 4.334 0 014.332-4.333h4.332v4.333A4.334 4.334 0 018.67 23a4.334 4.334 0 01-4.332-4.333zm4.332-2.333a2.334 2.334 0 000 4.666 2.334 2.334 0 002.332-2.333v-2.333H8.67z" fill="#1E212C"/><path fill-rule="evenodd" clip-rule="evenodd" d="M8.67 9.667a2.334 2.334 0 000 4.667H11V9.667H8.67zm-4.333 2.334a4.334 4.334 0 014.332-4.334h4.332v8.667H8.67A4.334 4.334 0 014.337 12z" fill="#1E212C"/><path fill-rule="evenodd" clip-rule="evenodd" d="M8.67 3.001a2.334 2.334 0 000 4.666H11V3.001H8.67zM4.336 5.334a4.334 4.334 0 014.332-4.333h4.332v8.666H8.67a4.334 4.334 0 01-4.332-4.333z" fill="#1E212C"/><path fill-rule="evenodd" clip-rule="evenodd" d="M11.002 1.001h4.332a4.334 4.334 0 010 8.666h-4.333l.001-8.666zm2 2v4.666h2.332a2.334 2.334 0 000-4.666h-2.332z" fill="#1E212C"/><path fill-rule="evenodd" clip-rule="evenodd" d="M15.334 9.667a2.334 2.334 0 000 4.667 2.334 2.334 0 000-4.667zm-4.332 2.334a4.334 4.334 0 014.332-4.334 4.334 4.334 0 010 8.667A4.334 4.334 0 0111.002 12z" fill="#1E212C"/></svg><svg fill="none" viewBox="0 0 24 24" id="file" xmlns="http://www.w3.org/2000/svg"><path fill-rule="evenodd" clip-rule="evenodd" d="M8 13.5a1 1 0 011-1h6a1 1 0 110 2H9a1 1 0 01-1-1zM8 17.25a1 1 0 011-1h3a1 1 0 110 2H9a1 1 0 01-1-1z" fill="#1E212C"/><path fill-rule="evenodd" clip-rule="evenodd" d="M9.043 1.543a1 1 0 01.707-.293h6.75a4 4 0 014 4v13.5a4 4 0 01-4 4h-9a4 4 0 01-4-4V7.5a1 1 0 01.293-.707l5.25-5.25zM9.5 3.914V7.25H6.164L9.5 3.914zm-4 5.336v9.5a2 2 0 002 2h9a2 2 0 002-2V5.25a2 2 0 00-2-2h-5v5a1 1 0 01-1 1h-5z" fill="#1E212C"/></svg><svg fill="none" viewBox="0 0 24 24" id="filter" xmlns="http://www.w3.org/2000/svg"><path fill-rule="evenodd" clip-rule="evenodd" d="M6.5 9.5a1 1 0 011 1v11.25a1 1 0 11-2 0V10.5a1 1 0 011-1zM6.5 1.25a1 1 0 011 1v3a1 1 0 01-2 0v-3a1 1 0 011-1z" fill="#1E212C"/><path fill-rule="evenodd" clip-rule="evenodd" d="M1 7.25a3 3 0 013-3h5a3 3 0 013 3V8.5a3 3 0 01-3 3H4a3 3 0 01-3-3V7.25zm3-1a1 1 0 00-1 1V8.5a1 1 0 001 1h5a1 1 0 001-1V7.25a1 1 0 00-1-1H4zM17.5 17.75a1 1 0 011 1v3a1 1 0 11-2 0v-3a1 1 0 011-1zM17.5 1.25a1 1 0 011 1V13.5a1 1 0 11-2 0V2.25a1 1 0 011-1z" fill="#1E212C"/><path fill-rule="evenodd" clip-rule="evenodd" d="M12 15.5a3 3 0 013-3h5a3 3 0 013 3v1.25a3 3 0 01-3 3h-5a3 3 0 01-3-3V15.5zm3-1a1 1 0 00-1 1v1.25a1 1 0 001 1h5a1 1 0 001-1V15.5a1 1 0 00-1-1h-5z" fill="#1E212C"/></svg><svg fill="none" viewBox="0 0 24 24" id="filter-1" xmlns="http://www.w3.org/2000/svg"><path fill-rule="evenodd" clip-rule="evenodd" d="M17.5 9.5a1 1 0 011 1v11.25a1 1 0 11-2 0V10.5a1 1 0 011-1zM17.5 1.25a1 1 0 011 1v3a1 1 0 11-2 0v-3a1 1 0 011-1z" fill="#1E212C"/><path fill-rule="evenodd" clip-rule="evenodd" d="M12 7.25a3 3 0 013-3h5a3 3 0 013 3V8.5a3 3 0 01-3 3h-5a3 3 0 01-3-3V7.25zm3-1a1 1 0 00-1 1V8.5a1 1 0 001 1h5a1 1 0 001-1V7.25a1 1 0 00-1-1h-5zM6.5 17.75a1 1 0 011 1v3a1 1 0 11-2 0v-3a1 1 0 011-1zM6.5 1.25a1 1 0 011 1V13.5a1 1 0 11-2 0V2.25a1 1 0 011-1z" fill="#1E212C"/><path fill-rule="evenodd" clip-rule="evenodd" d="M1 15.5a3 3 0 013-3h5a3 3 0 013 3v1.25a3 3 0 01-3 3H4a3 3 0 01-3-3V15.5zm3-1a1 1 0 00-1 1v1.25a1 1 0 001 1h5a1 1 0 001-1V15.5a1 1 0 00-1-1H4z" fill="#1E212C"/></svg><svg fill="none" viewBox="0 0 24 24" id="fluid_horizontal" xmlns="http://www.w3.org/2000/svg"><path fill-rule="evenodd" clip-rule="evenodd" d="M8.207 7.793a1 1 0 010 1.414L6.414 11h11.172l-1.793-1.793a1 1 0 011.414-1.414l3.5 3.5a1 1 0 010 1.414l-3.5 3.5a1 1 0 01-1.414-1.414L17.586 13H6.414l1.793 1.793a1 1 0 11-1.414 1.414l-3.5-3.5a1 1 0 010-1.414l3.5-3.5a1 1 0 011.414 0z" fill="#1E212C"/></svg><svg fill="none" viewBox="0 0 24 24" id="fluid_vertical" xmlns="http://www.w3.org/2000/svg"><path fill-rule="evenodd" clip-rule="evenodd" d="M7.793 15.793a1 1 0 011.414 0L11 17.586V6.414L9.207 8.207a1 1 0 01-1.414-1.414l3.5-3.5a1 1 0 011.414 0l3.5 3.5a1 1 0 01-1.414 1.414L13 6.414v11.172l1.793-1.793a1 1 0 011.414 1.414l-3.5 3.5a1 1 0 01-1.414 0l-3.5-3.5a1 1 0 010-1.414z" fill="#1E212C"/></svg><svg fill="none" viewBox="0 0 24 24" id="forward" xmlns="http://www.w3.org/2000/svg"><path fill-rule="evenodd" clip-rule="evenodd" d="M15.043 3.293a1 1 0 011.414 0l5.25 5.25a1 1 0 010 1.414l-5.25 5.25a1 1 0 01-1.414-1.414l3.543-3.543H8.25a4.25 4.25 0 000 8.5h3a1 1 0 110 2h-3a6.25 6.25 0 110-12.5h10.336l-3.543-3.543a1 1 0 010-1.414z" fill="#1E212C"/></svg><svg fill="none" viewBox="0 0 24 24" id="github" xmlns="http://www.w3.org/2000/svg"><path d="M15.7 23c-.6 0-1-.4-1-1v-4.3c0-.8 0-.8-.3-1.1-.3-.3-.4-.7-.2-1 .1-.4.5-.6.8-.7 2.8-.3 5.4-1.2 5.4-5.7 0-1.1-.4-2.1-1.2-2.9-.3-.3-.4-.7-.2-1.1.2-.5.3-.9.3-1.4 0-.3 0-.5-.1-.8-.5.1-1.4.4-2.7 1.2-.2.1-.5.2-.8.1-2.2-.5-4.4-.5-6.6 0-.3.1-.5 0-.8-.1C6.8 3.4 5.9 3.1 5.4 3c0 .3-.1.6-.1.8 0 .5.1 1 .3 1.4.1.4 0 .8-.2 1.1-.4.4-.7.9-.9 1.4-.2.5-.3 1-.3 1.6 0 4.2 2.2 5.3 5.4 5.7.4 0 .7.3.8.7.1.4 0 .8-.2 1-.3.3-.3.5-.3 1.4v4c0 .6-.4 1-1 1s-1-.4-1-1v-1c-3 .4-4.2-1.3-5.1-2.5-.4-.5-.7-1-1-1.1-.5-.1-.9-.7-.7-1.2.2-.5.7-.9 1.2-.7 1 .3 1.6 1.1 2.2 1.9.8 1.1 1.5 2.1 3.4 1.7v-.9c0-.4-.1-.9 0-1.5-2.8-.6-5.7-2.2-5.7-7.4 0-.8.2-1.6.5-2.3.2-.5.5-1.1.9-1.5-.1-.5-.2-1-.2-1.6 0-.8.2-1.5.5-2.2.1-.5.3-.7.6-.7.3-.1 1.7-.3 4.4 1.3 2.2-.5 4.5-.5 6.7 0C18.3.8 19.6 1 20 1.1c.3.1.5.3.6.5.4.7.5 1.4.6 2.2 0 .5 0 1.1-.2 1.6.9 1.1 1.4 2.4 1.4 3.8 0 5.3-3 6.9-5.7 7.5.1.3.1.7 0 1V22c0 .6-.5 1-1 1z" fill="#1E212C"/></svg><svg fill="none" viewBox="0 0 24 24" id="gitlab" xmlns="http://www.w3.org/2000/svg"><path fill-rule="evenodd" clip-rule="evenodd" d="M5.264 1.002a1 1 0 01.989.604l3.073 7.172h5.348l3.074-7.172a1 1 0 011.883.13l3.334 12.223a1 1 0 01-.351 1.053l-10 7.777a1 1 0 01-1.228 0l-10-7.777a1 1 0 01-.35-1.053L4.368 1.737a1 1 0 01.895-.735zm.28 4.027L3.14 13.842 12 20.733l8.86-6.89-2.404-8.814-2.203 5.143a1 1 0 01-.92.606H8.667a1 1 0 01-.92-.606L5.545 5.029z" fill="#1E212C"/></svg><svg fill="none" viewBox="0 0 24 24" id="google" xmlns="http://www.w3.org/2000/svg"><path d="M12.211 10.503h9.876c.108.608.163 1.19.163 1.743 0 1.97-.413 3.73-1.24 5.279a8.95 8.95 0 01-3.534 3.63c-1.53.871-3.285 1.307-5.265 1.307-1.426 0-2.783-.274-4.073-.824-1.29-.55-2.402-1.292-3.337-2.227-.935-.935-1.678-2.048-2.227-3.337A10.283 10.283 0 011.75 12c0-1.425.275-2.783.824-4.073.55-1.29 1.292-2.401 2.227-3.337.935-.935 2.048-1.677 3.337-2.227 1.29-.55 2.647-.824 4.073-.824 2.724 0 5.063.913 7.015 2.738L16.38 7.016c-1.117-1.08-2.506-1.621-4.168-1.621a6.25 6.25 0 00-3.249.885A6.524 6.524 0 006.6 8.684a6.547 6.547 0 00-.872 3.317c0 1.199.291 2.304.872 3.317a6.524 6.524 0 002.363 2.404 6.25 6.25 0 003.25.886c.79 0 1.516-.11 2.178-.327.663-.218 1.208-.49 1.635-.818.427-.327.8-.699 1.117-1.117a5.2 5.2 0 00.701-1.185c.15-.372.253-.726.307-1.062h-5.939v-3.596z" fill="#1E212C"/></svg><svg fill="none" viewBox="0 0 24 24" id="google-handouts" xmlns="http://www.w3.org/2000/svg"><path d="M21 10.75C21 5.917 16.971 2 12 2s-9 3.917-9 8.75c0 4.583 4.286 8.333 9 8.333V22c5.443-2.583 9-6.833 9-11.25zm-8.143-2.5h3.857V12c0 1.167-.771 2.083-1.714 2.083V12h-2.143V8.25zM11.571 12c0 1.167-.771 2.083-1.714 2.083V12H7.714V8.25h3.857V12z" fill="#1E212C"/></svg><svg fill="none" viewBox="0 0 24 24" id="grid" xmlns="http://www.w3.org/2000/svg"><path fill-rule="evenodd" clip-rule="evenodd" d="M1 3.5A2.5 2.5 0 013.5 1h5A2.5 2.5 0 0111 3.5v5A2.5 2.5 0 018.5 11h-5A2.5 2.5 0 011 8.5v-5zM3.5 3a.5.5 0 00-.5.5v5a.5.5 0 00.5.5h5a.5.5 0 00.5-.5v-5a.5.5 0 00-.5-.5h-5zM1 15.5A2.5 2.5 0 013.5 13h5a2.5 2.5 0 012.5 2.5v5A2.5 2.5 0 018.5 23h-5A2.5 2.5 0 011 20.5v-5zm2.5-.5a.5.5 0 00-.5.5v5a.5.5 0 00.5.5h5a.5.5 0 00.5-.5v-5a.5.5 0 00-.5-.5h-5zM13 3.5A2.5 2.5 0 0115.5 1h5A2.5 2.5 0 0123 3.5v5a2.5 2.5 0 01-2.5 2.5h-5A2.5 2.5 0 0113 8.5v-5zm2.5-.5a.5.5 0 00-.5.5v5a.5.5 0 00.5.5h5a.5.5 0 00.5-.5v-5a.5.5 0 00-.5-.5h-5zM13 15.5a2.5 2.5 0 012.5-2.5h5a2.5 2.5 0 012.5 2.5v5a2.5 2.5 0 01-2.5 2.5h-5a2.5 2.5 0 01-2.5-2.5v-5zm2.5-.5a.5.5 0 00-.5.5v5a.5.5 0 00.5.5h5a.5.5 0 00.5-.5v-5a.5.5 0 00-.5-.5h-5z" fill="#1E212C"/></svg><svg fill="none" viewBox="0 0 24 24" id="hanger" xmlns="http://www.w3.org/2000/svg"><g clip-path="url(#bwclip0_2491_3850)"><path d="M22.834 16.109l-8.642-5.4a.947.947 0 00-.502-.145h-.742v-.403a3.5 3.5 0 002.546-3.363A3.498 3.498 0 0012 3.305a3.498 3.498 0 00-3.494 3.493.948.948 0 001.896 0A1.6 1.6 0 0112 5.201a1.6 1.6 0 011.597 1.597A1.6 1.6 0 0112 8.396a.948.948 0 00-.948.948v1.22h-.742a.948.948 0 00-.502.144l-8.642 5.4A2.468 2.468 0 000 18.214a2.485 2.485 0 002.482 2.482h19.036A2.485 2.485 0 0024 18.213c0-.86-.436-1.648-1.166-2.104zm-1.316 2.69H2.482a.586.586 0 01-.31-1.082l8.41-5.257h2.836l8.41 5.257a.586.586 0 01-.31 1.082z" fill="#1E212C"/></g><defs><clipPath id="bwclip0_2491_3850"><path fill="#fff" d="M0 0h24v24H0z"/></clipPath></defs></svg><svg fill="none" viewBox="0 0 24 24" id="heart" xmlns="http://www.w3.org/2000/svg"><path fill-rule="evenodd" clip-rule="evenodd" d="M12 19.907c-4.6-2.62-7.165-5.223-8.405-7.482-1.27-2.312-1.159-4.259-.454-5.64 1.448-2.842 5.565-3.75 8.074-.577l.784.992.785-.992c2.509-3.173 6.627-2.265 8.075.576.704 1.382.815 3.33-.455 5.641-1.24 2.26-3.805 4.863-8.405 7.482zm0-15.801C8.47.752 3.263 2.138 1.358 5.876c-1.046 2.051-1.06 4.702.483 7.512 1.529 2.785 4.578 5.725 9.674 8.541l.483.267.484-.267c5.096-2.816 8.145-5.756 9.674-8.54 1.543-2.81 1.53-5.462.484-7.513-1.905-3.738-7.112-5.124-10.642-1.77z" fill="#1E212C"/></svg><svg fill="none" viewBox="0 0 24 24" id="history" xmlns="http://www.w3.org/2000/svg"><path d="M3.858.5a1 1 0 011 1v2.134A10.96 10.96 0 0112 1c6.075 0 11 4.925 11 11s-4.925 11-11 11S1 18.075 1 12a1 1 0 112 0 9 9 0 109-9 8.959 8.959 0 00-5.657 2H8.36a1 1 0 110 2H3.858a1 1 0 01-1-1V1.5a1 1 0 011-1z" fill="#1E212C"/><path fill-rule="evenodd" clip-rule="evenodd" d="M12 5.6a.9.9 0 01.9.9v5.127l2.736 2.737a.9.9 0 01-1.272 1.272l-3-3A.9.9 0 0111.1 12V6.5a.9.9 0 01.9-.9z" fill="#1E212C"/></svg><svg fill="none" viewBox="0 0 24 24" id="home" xmlns="http://www.w3.org/2000/svg"><path fill-rule="evenodd" clip-rule="evenodd" d="M12.784 4.172a3 3 0 00-1.568 0c-.535.144-1.053.524-2.531 1.673l-2.6 2.023c-.952.74-1.271.999-1.497 1.304a3 3 0 00-.477.976c-.102.365-.111.777-.111 1.982v6.62c0 .77.01.934.043 1.04a1 1 0 00.667.667c.106.032.27.043 1.04.043h.625l.174-.001a1 1 0 00.95-.95l.001-.174V16.5a4.5 4.5 0 019 0v2.875l.001.174a1 1 0 00.95.95H18.25c.77 0 .934-.01 1.04-.042a1 1 0 00.667-.667c.032-.106.043-.27.043-1.04v-6.62c0-1.205-.009-1.617-.111-1.982a2.999 2.999 0 00-.477-.976c-.226-.305-.545-.564-1.497-1.304l-2.6-2.023c-1.478-1.15-1.996-1.529-2.531-1.673zm-2.09-1.93a5 5 0 012.613 0c.973.263 1.827.928 3.066 1.892l.17.133 2.6 2.022.107.083c.804.625 1.36 1.057 1.77 1.611.361.489.63 1.04.795 1.626.186.663.185 1.368.185 2.386v6.881c0 .571.001 1.064-.13 1.495a3 3 0 01-2 2c-.43.13-.923.13-1.494.129h-.772c-.095 0-.177 0-.251-.004a3 3 0 01-2.85-2.849c-.003-.074-.003-.156-.003-.251V16.5a2.5 2.5 0 00-5 0v2.896c0 .095 0 .177-.004.251a3 3 0 01-3.1 2.853h-.772c-.571 0-1.065.001-1.495-.13a3 3 0 01-2-2C2 19.94 2 19.448 2 18.877V12.13v-.135c0-1.018 0-1.723.186-2.386a5 5 0 01.795-1.626c.41-.554.966-.986 1.77-1.611l.107-.083 2.6-2.022.17-.133c1.239-.964 2.093-1.63 3.066-1.893z" fill="#1E212C"/></svg><svg fill="none" viewBox="0 0 24 24" id="horizontal" xmlns="http://www.w3.org/2000/svg"><path fill-rule="evenodd" clip-rule="evenodd" d="M16.293 3.293a1 1 0 011.414 0l3.5 3.5a1 1 0 010 1.414l-3.5 3.5a1 1 0 01-1.414-1.414L18.086 8.5H4.5a1 1 0 010-2h13.586l-1.793-1.793a1 1 0 010-1.414zm-8.586 9a1 1 0 010 1.414L5.914 15.5H19.5a1 1 0 110 2H5.914l1.793 1.793a1 1 0 11-1.414 1.414l-3.5-3.5a1 1 0 010-1.414l3.5-3.5a1 1 0 011.414 0z" fill="#1E212C"/></svg><svg fill="none" viewBox="0 0 24 24" id="info" xmlns="http://www.w3.org/2000/svg"><path fill-rule="evenodd" clip-rule="evenodd" d="M12 9.5a1 1 0 011 1v6a1 1 0 11-2 0v-6a1 1 0 011-1z" fill="#1E212C"/><path d="M13 7a1 1 0 11-2 0 1 1 0 012 0z" fill="#1E212C"/><path fill-rule="evenodd" clip-rule="evenodd" d="M12 3a9 9 0 100 18 9 9 0 000-18zM1 12C1 5.925 5.925 1 12 1s11 4.925 11 11-4.925 11-11 11S1 18.075 1 12z" fill="#1E212C"/></svg><svg fill="none" viewBox="0 0 24 24" id="instagram" xmlns="http://www.w3.org/2000/svg"><path d="M21.98 7.88c-.046-1.063-.218-1.793-.464-2.426a4.88 4.88 0 00-1.157-1.774 4.922 4.922 0 00-1.77-1.153c-.637-.246-1.363-.418-2.426-.464-1.07-.051-1.41-.063-4.126-.063-2.715 0-3.055.012-4.122.059-1.062.046-1.793.218-2.426.464A4.88 4.88 0 003.715 3.68a4.924 4.924 0 00-1.152 1.77c-.247.637-.418 1.363-.465 2.426-.051 1.07-.063 1.41-.063 4.126 0 2.715.012 3.055.059 4.122.047 1.063.219 1.793.465 2.426a4.932 4.932 0 001.156 1.774c.5.508 1.106.902 1.77 1.152.637.247 1.364.419 2.426.465 1.067.047 1.407.059 4.122.059 2.716 0 3.056-.012 4.122-.059 1.063-.046 1.793-.218 2.426-.464a5.116 5.116 0 002.927-2.927c.246-.637.418-1.364.465-2.426.047-1.067.058-1.407.058-4.122s-.004-3.055-.05-4.122zm-1.8 8.166c-.044.977-.208 1.504-.345 1.855a3.317 3.317 0 01-1.898 1.9c-.352.136-.883.3-1.856.343-1.055.047-1.371.059-4.04.059-2.668 0-2.989-.012-4.04-.059-.977-.043-1.504-.207-1.856-.344a3.077 3.077 0 01-1.148-.746 3.11 3.11 0 01-.747-1.148c-.136-.352-.3-.883-.343-1.856-.047-1.055-.059-1.372-.059-4.04 0-2.669.012-2.99.059-4.04.043-.977.207-1.504.343-1.856A3.04 3.04 0 015 4.965a3.105 3.105 0 011.15-.746c.35-.137.882-.3 1.855-.344 1.055-.046 1.372-.058 4.04-.058 2.672 0 2.989.012 4.04.058.977.043 1.504.207 1.856.344.433.16.828.414 1.148.746.332.325.586.715.747 1.15.136.35.3.882.343 1.855.047 1.055.059 1.371.059 4.04 0 2.668-.012 2.98-.059 4.036z" fill="#1E212C"/><path d="M12.037 6.864A5.139 5.139 0 006.9 12.002a5.139 5.139 0 105.138-5.138zm0 8.47a3.333 3.333 0 11.001-6.666 3.333 3.333 0 010 6.667zM18.578 6.661a1.2 1.2 0 11-2.4 0 1.2 1.2 0 012.4 0z" fill="#1E212C"/></svg><svg fill="none" viewBox="0 0 24 24" id="instagram-filled" xmlns="http://www.w3.org/2000/svg"><path fill-rule="evenodd" clip-rule="evenodd" d="M2 12c0-4.191 0-6.287 1.05-7.733A5.5 5.5 0 014.267 3.05C5.713 2 7.81 2 12 2s6.287 0 7.733 1.05a5.5 5.5 0 011.217 1.217C22 5.713 22 7.81 22 12s0 6.287-1.05 7.733a5.5 5.5 0 01-1.217 1.217C18.287 22 16.19 22 12 22s-6.287 0-7.733-1.05a5.5 5.5 0 01-1.217-1.217C2 18.287 2 16.19 2 12zm10-5.294a5.294 5.294 0 100 10.589 5.294 5.294 0 000-10.59zm0 8.603A3.313 3.313 0 018.691 12 3.313 3.313 0 0112 8.691 3.313 3.313 0 0115.309 12 3.313 3.313 0 0112 15.309zm6.397-9a.705.705 0 11-1.411 0 .705.705 0 011.41 0z" fill="#1E212C"/></svg><svg fill="none" viewBox="0 0 24 24" id="iphone" xmlns="http://www.w3.org/2000/svg"><path fill-rule="evenodd" clip-rule="evenodd" d="M8.5 2.922a1.5 1.5 0 00-1.5 1.5v15.156a1.5 1.5 0 001.5 1.5h7a1.5 1.5 0 001.5-1.5V4.422a1.5 1.5 0 00-1.5-1.5h-.083l-.244.584a1 1 0 01-.923.616h-4.5a1 1 0 01-.923-.616l-.244-.584H8.5zM5 4.422a3.5 3.5 0 013.5-3.5h7a3.5 3.5 0 013.5 3.5v15.156a3.5 3.5 0 01-3.5 3.5h-7a3.5 3.5 0 01-3.5-3.5V4.422z" fill="#1E212C"/></svg><svg fill="none" viewBox="0 0 24 24" id="layouts" xmlns="http://www.w3.org/2000/svg"><path fill-rule="evenodd" clip-rule="evenodd" d="M11.553 1.106a1 1 0 01.894 0l10 5a1 1 0 010 1.788l-10 5a1 1 0 01-.894 0l-10-5a1 1 0 010-1.788l10-5zM4.236 7L12 10.882 19.764 7 12 3.118 4.236 7z" fill="#1E212C"/><path fill-rule="evenodd" clip-rule="evenodd" d="M1.106 11.553a1 1 0 011.341-.447L12 15.882l9.553-4.776a1 1 0 11.894 1.788l-10 5a1 1 0 01-.894 0l-10-5a1 1 0 01-.447-1.341z" fill="#1E212C"/><path fill-rule="evenodd" clip-rule="evenodd" d="M1.106 16.553a1 1 0 011.341-.447L12 20.882l9.553-4.776a1 1 0 11.894 1.788l-10 5a1 1 0 01-.894 0l-10-5a1 1 0 01-.447-1.341z" fill="#1E212C"/></svg><svg fill="none" viewBox="0 0 24 24" id="left" xmlns="http://www.w3.org/2000/svg"><path fill-rule="evenodd" clip-rule="evenodd" d="M9.207 17.207a1 1 0 01-1.414 0l-4.5-4.5a1 1 0 010-1.414l4.5-4.5a1 1 0 011.414 1.414L6.414 11H20a1 1 0 110 2H6.414l2.793 2.793a1 1 0 010 1.414z" fill="#1E212C"/></svg><svg fill="none" viewBox="0 0 24 24" id="like" xmlns="http://www.w3.org/2000/svg"><path fill-rule="evenodd" clip-rule="evenodd" d="M14.182 3.25a.393.393 0 00-.34.195l-.006.01-4.586 7.436v9.859h8.586a.393.393 0 00.383-.308l.004-.015 2.55-9.96a.393.393 0 00-.386-.467H16.5c-.651 0-1.31-.218-1.79-.686-.504-.492-.738-1.197-.588-1.956l.719-3.639a.393.393 0 00-.385-.469h-.274zM7.25 20.75v-9.143H3.707a.393.393 0 00-.393.39l-.064 8.357a.393.393 0 00.393.396H7.25zm.442-11.143l4.43-7.182a2.393 2.393 0 012.06-1.175h.274a2.393 2.393 0 012.347 2.857l-.719 3.638a.208.208 0 00-.002.1c.002.008.007.02.025.038.042.04.166.117.393.117h3.887a2.393 2.393 0 012.336 2.912l-.004.016-2.551 9.966a2.393 2.393 0 01-2.332 1.856H3.643a2.393 2.393 0 01-2.393-2.411l.064-8.357a2.393 2.393 0 012.393-2.375h3.985z" fill="#1E212C"/></svg><svg fill="none" viewBox="0 0 24 24" id="linked-in" xmlns="http://www.w3.org/2000/svg"><path d="M21.995 22H22v-7.336c0-3.588-.773-6.352-4.968-6.352-2.016 0-3.37 1.106-3.922 2.155h-.058v-1.82H9.074v13.352h4.142v-6.611c0-1.741.33-3.425 2.486-3.425 2.124 0 2.156 1.987 2.156 3.536V22h4.137zM2.33 8.648h4.147V22H2.33V8.648zM4.402 2A2.402 2.402 0 002 4.402c0 1.325 1.076 2.424 2.402 2.424 1.325 0 2.401-1.098 2.401-2.424A2.403 2.403 0 004.402 2z" fill="#1E212C"/></svg><svg fill="none" viewBox="0 0 24 24" id="list" xmlns="http://www.w3.org/2000/svg"><path fill-rule="evenodd" clip-rule="evenodd" d="M1 3.5A2.5 2.5 0 013.5 1h17A2.5 2.5 0 0123 3.5v5a2.5 2.5 0 01-2.5 2.5h-17A2.5 2.5 0 011 8.5v-5zM3.5 3a.5.5 0 00-.5.5v5a.5.5 0 00.5.5h17a.5.5 0 00.5-.5v-5a.5.5 0 00-.5-.5h-17zM1 15.5A2.5 2.5 0 013.5 13h17a2.5 2.5 0 012.5 2.5v5a2.5 2.5 0 01-2.5 2.5h-17A2.5 2.5 0 011 20.5v-5zm2.5-.5a.5.5 0 00-.5.5v5a.5.5 0 00.5.5h17a.5.5 0 00.5-.5v-5a.5.5 0 00-.5-.5h-17z" fill="#1E212C"/></svg><svg fill="none" viewBox="0 0 24 24" id="lock" xmlns="http://www.w3.org/2000/svg"><path fill-rule="evenodd" clip-rule="evenodd" d="M20.75 17.75V13a3 3 0 00-3-3H6.25a3 3 0 00-3 3v4.75a3 3 0 003 3h11.5a3 3 0 003-3zm2-4.75v4.75a5 5 0 01-5 5H6.25a5 5 0 01-5-5V13a5 5 0 015-5h11.5a5 5 0 015 5z" fill="#1E212C"/><path fill-rule="evenodd" clip-rule="evenodd" d="M12 3.25a5 5 0 00-5 5H5a7 7 0 0114 0h-2a5 5 0 00-5-5zM12 12.5a1 1 0 011 1v3a1 1 0 11-2 0v-3a1 1 0 011-1z" fill="#1E212C"/></svg><svg fill="none" viewBox="0 0 24 24" id="login" xmlns="http://www.w3.org/2000/svg"><path d="M7.5 20.75a1 1 0 100 2h10.25a5 5 0 005-5V6.25a5 5 0 00-5-5H7.5a1 1 0 100 2h10.25a3 3 0 013 3v11.5a3 3 0 01-3 3H7.5z" fill="#1E212C"/><path d="M18.25 12a1 1 0 01-.293.707l-4.5 4.5a1 1 0 01-1.414-1.414L14.836 13H2.25a1 1 0 110-2h12.586l-2.793-2.793a1 1 0 011.414-1.414l4.5 4.5a1 1 0 01.293.707z" fill="#1E212C"/></svg><svg fill="none" viewBox="0 0 24 24" id="logout" xmlns="http://www.w3.org/2000/svg"><path d="M16.5 20.75a1 1 0 110 2H6.25a5 5 0 01-5-5V6.25a5 5 0 015-5H16.5a1 1 0 110 2H6.25a3 3 0 00-3 3v11.5a3 3 0 003 3H16.5z" fill="#1E212C"/><path d="M5.75 12a1 1 0 00.293.707l4.5 4.5a1 1 0 001.414-1.414L9.164 13H21.75a1 1 0 100-2H9.164l2.793-2.793a1 1 0 00-1.414-1.414l-4.5 4.5A1 1 0 005.75 12z" fill="#1E212C"/></svg><svg fill="none" viewBox="0 0 24 24" id="mail" xmlns="http://www.w3.org/2000/svg"><path fill-rule="evenodd" clip-rule="evenodd" d="M22.75 18V7a3 3 0 00-3-3H4.25a3 3 0 00-3 3v11a3 3 0 003 3h15.5a3 3 0 003-3zm-2-8.74V18a1 1 0 01-1 1H4.25a1 1 0 01-1-1V9.26l7.063 4.802a3 3 0 003.374 0L20.75 9.26zm-.011-2.411A1 1 0 0019.75 6H4.25a1 1 0 00-.989.848l8.177 5.56a1 1 0 001.124 0l8.177-5.56z" fill="#1E212C"/></svg><svg fill="none" viewBox="0 0 24 24" id="mark" xmlns="http://www.w3.org/2000/svg"><path fill-rule="evenodd" clip-rule="evenodd" d="M21.707 5.293a1 1 0 010 1.414l-12 12a1 1 0 01-1.414 0l-6-6a1 1 0 111.414-1.414L9 16.586 20.293 5.293a1 1 0 011.414 0z" fill="#1E212C"/></svg><svg fill="none" viewBox="0 0 24 24" id="mention" xmlns="http://www.w3.org/2000/svg"><path fill-rule="evenodd" clip-rule="evenodd" d="M6.5 12a5.5 5.5 0 1111 0 5.5 5.5 0 01-11 0zM12 8.5a3.5 3.5 0 100 7 3.5 3.5 0 000-7z" fill="#1E212C"/><path fill-rule="evenodd" clip-rule="evenodd" d="M12 3.25a8.75 8.75 0 000 17.5 1 1 0 110 2C6.063 22.75 1.25 17.937 1.25 12S6.063 1.25 12 1.25 22.75 6.063 22.75 12c0 1.123-.2 2.748-.72 4.129C21.542 17.417 20.564 19 18.75 19c-.89 0-1.773-.233-2.41-.939-.619-.684-.84-1.632-.84-2.686V8.25a1 1 0 112 0v7.125c0 .82.179 1.185.323 1.345.125.138.366.28.927.28.435 0 .957-.383 1.408-1.578.416-1.102.592-2.477.592-3.422A8.75 8.75 0 0012 3.25z" fill="#1E212C"/></svg><svg fill="none" viewBox="0 0 24 24" id="messanger" xmlns="http://www.w3.org/2000/svg"><path d="M12 2C6.478 2 2 6.145 2 11.259c0 2.913 1.454 5.512 3.726 7.21V22l3.405-1.869c.909.252 1.871.388 2.869.388 5.523 0 10-4.145 10-9.259C22 6.146 17.523 2 12 2zm.994 12.469l-2.546-2.716-4.97 2.716 5.467-5.803 2.609 2.716 4.906-2.716-5.466 5.803z" fill="#1E212C"/></svg><svg fill="none" viewBox="0 0 24 24" id="mic" xmlns="http://www.w3.org/2000/svg"><path fill-rule="evenodd" clip-rule="evenodd" d="M6.2 6.4a5.8 5.8 0 0111.6 0v4.8a5.8 5.8 0 11-11.6 0V6.4zM12 2.6a3.8 3.8 0 00-3.8 3.8v4.8a3.8 3.8 0 107.6 0V6.4A3.8 3.8 0 0012 2.6z" fill="#1E212C"/><path fill-rule="evenodd" clip-rule="evenodd" d="M4 8.6a1 1 0 011 1v1.6a7 7 0 1014 0V9.6a1 1 0 112 0v1.6a9 9 0 11-18 0V9.6a1 1 0 011-1z" fill="#1E212C"/><path fill-rule="evenodd" clip-rule="evenodd" d="M12 19a1 1 0 011 1v1.4h2.2a1 1 0 110 2H8.8a1 1 0 110-2H11V20a1 1 0 011-1z" fill="#1E212C"/></svg><svg fill="none" viewBox="0 0 24 24" id="minus" xmlns="http://www.w3.org/2000/svg"><path fill-rule="evenodd" clip-rule="evenodd" d="M1 12a1 1 0 011-1v2a1 1 0 01-1-1zm21 0v1H2v-2h20v1zm0 0v1a1 1 0 100-2v1z" fill="#1E212C"/></svg><svg fill="none" viewBox="0 0 24 24" id="minus_round" xmlns="http://www.w3.org/2000/svg"><path fill-rule="evenodd" clip-rule="evenodd" d="M5.75 12a1 1 0 011-1h10.5a1 1 0 110 2H6.75a1 1 0 01-1-1z" fill="#1E212C"/><path fill-rule="evenodd" clip-rule="evenodd" d="M12 3a9 9 0 100 18 9 9 0 000-18zM1 12C1 5.925 5.925 1 12 1s11 4.925 11 11-4.925 11-11 11S1 18.075 1 12z" fill="#1E212C"/></svg><svg fill="none" viewBox="0 0 24 24" id="no-volume" xmlns="http://www.w3.org/2000/svg"><path fill-rule="evenodd" clip-rule="evenodd" d="M5 8.875a1 1 0 00-1 1v4.25a1 1 0 001 1h1.438a1 1 0 110 2H5a3 3 0 01-3-3v-4.25a3 3 0 013-3h1.438a1 1 0 010 2H5z" fill="#1E212C"/><path fill-rule="evenodd" clip-rule="evenodd" d="M13 3.938a.3.3 0 00-.502-.222L7.11 8.615l-1.345-1.48 5.388-4.899C12.63.893 15 1.942 15 3.938v16.123c0 1.997-2.37 3.045-3.847 1.702l-5.388-4.899 1.345-1.48 5.388 4.899A.3.3 0 0013 20.06V3.938zM16.043 9.23a1 1 0 011.414 0l4.125 4.125a1 1 0 01-1.414 1.414l-4.125-4.125a1 1 0 010-1.414z" fill="#1E212C"/><path fill-rule="evenodd" clip-rule="evenodd" d="M21.582 9.23a1 1 0 00-1.414 0l-4.125 4.125a1 1 0 001.414 1.414l4.125-4.125a1 1 0 000-1.414z" fill="#1E212C"/></svg><svg fill="none" viewBox="0 0 24 24" id="odnoklassniki" xmlns="http://www.w3.org/2000/svg"><path d="M5.206 12.807c-.572 1.105.078 1.633 1.56 2.535 1.26.765 3.001 1.044 4.12 1.156l-4.407 4.163c-1.283 1.207.782 3.144 2.063 1.962l3.47-3.286c1.329 1.255 2.602 2.457 3.47 3.29 1.283 1.187 3.346-.733 2.078-1.962-.095-.089-4.702-4.428-4.421-4.162 1.132-.112 2.847-.408 4.092-1.156v-.001c1.482-.907 2.131-1.434 1.567-2.539-.34-.627-1.259-1.15-2.482-.244 0 0-1.65 1.242-4.314 1.242s-4.315-1.242-4.315-1.242c-1.221-.912-2.144-.383-2.48.244z" fill="#1E212C"/><path d="M12 12.13c3.248 0 5.898-2.491 5.898-5.558 0-3.08-2.65-5.572-5.897-5.572-3.248 0-5.899 2.492-5.899 5.572 0 3.067 2.651 5.558 5.899 5.558zm0-8.308c1.596 0 2.897 1.23 2.897 2.75 0 1.507-1.3 2.736-2.896 2.736-1.595 0-2.897-1.23-2.897-2.736 0-1.521 1.3-2.75 2.897-2.75z" fill="#1E212C"/></svg><svg fill="none" viewBox="0 0 24 24" id="opened-mail" xmlns="http://www.w3.org/2000/svg"><path fill-rule="evenodd" clip-rule="evenodd" d="M20.75 17.75V9a1 1 0 112 0v8.75a5 5 0 01-5 5H6.25a5 5 0 01-5-5V9a1 1 0 112 0v8.75a3 3 0 003 3h11.5a3 3 0 003-3z" fill="#1E212C"/><path fill-rule="evenodd" clip-rule="evenodd" d="M1.443 9.215a1 1 0 001.397.218l8.57-6.263a1 1 0 011.18 0l8.57 6.263a1 1 0 101.18-1.615l-8.57-6.263a3 3 0 00-3.54 0L1.66 7.818a1 1 0 00-.217 1.397z" fill="#1E212C"/><path fill-rule="evenodd" clip-rule="evenodd" d="M1.428 8.056a1 1 0 011.391-.253l7.473 5.174a3 3 0 003.416 0l7.473-5.174a1 1 0 011.138 1.645l-7.473 5.173a5 5 0 01-5.692 0L1.68 9.448a1 1 0 01-.253-1.392z" fill="#1E212C"/></svg><svg fill="none" viewBox="0 0 24 24" id="paypal" xmlns="http://www.w3.org/2000/svg"><path d="M10.586 23H7.455c-.202 0-.404 0-.607-.1-.202-.1-.404-.2-.505-.4-.1-.2-.303-.4-.303-.6a.846.846 0 010-.7l.101-.4h-2.02C3.011 20.8 2 19.8 2 18.7v-.1L4.121 3c.101-1.1 1.01-2 2.121-2h6.263c3.434 0 5.859 2 6.465 5C20.889 7.3 22 9.4 22 12c0 3.4-3.535 6-6.667 6h-2.12l-.506 3.2c-.1.5-.303 1-.707 1.3-.404.3-.91.5-1.414.5zM7.96 21h2.525l.1-.1.607-4.1c.1-.5.505-.8 1.01-.8h2.93c2.12 0 4.646-1.8 4.646-4 0-.8-.202-2.2-.91-3.3-.605 2.9-3.535 5.4-6.464 5.4h-2.93s-.1.1-.1.3L8.162 20l-.202 1zm-4.142-2.3l.101.1h2.424L7.556 14c.202-1.1 1.01-1.9 2.12-1.9h2.93c2.222 0 4.647-2.3 4.647-4.6 0-2.9-1.718-4.6-4.647-4.6H6.242l-.1.1v.1L3.817 18.7z" fill="#1E212C"/></svg><svg fill="none" viewBox="0 0 24 24" id="pin-outline" xmlns="http://www.w3.org/2000/svg"><path fill-rule="evenodd" clip-rule="evenodd" d="M12 7.75a2 2 0 100 4 2 2 0 000-4zm-4 2a4 4 0 118 0 4 4 0 01-8 0z" fill="#1E212C"/><path fill-rule="evenodd" clip-rule="evenodd" d="M12 3.25c-3.62 0-6.5 2.836-6.5 6.27 0 2.798 1.682 5.625 3.52 7.848A27.9 27.9 0 0012 20.44a27.899 27.899 0 002.98-3.072c1.838-2.223 3.52-5.05 3.52-7.849 0-3.433-2.88-6.269-6.5-6.269zm0 18.5l-.62.785-.002-.002-.005-.004-.02-.016a13.707 13.707 0 01-.322-.267 29.907 29.907 0 01-3.552-3.604C5.568 16.333 3.5 13.043 3.5 9.52 3.5 4.923 7.335 1.25 12 1.25s8.5 3.673 8.5 8.27c0 3.523-2.068 6.811-3.98 9.123a29.911 29.911 0 01-3.551 3.604 17.519 17.519 0 01-.322.266l-.02.016-.005.004-.002.002-.62-.785zm0 0l.619.785a1 1 0 01-1.238 0L12 21.75z" fill="#1E212C"/></svg><svg fill="none" viewBox="0 0 24 24" id="pin-solid" xmlns="http://www.w3.org/2000/svg"><path fill-rule="evenodd" clip-rule="evenodd" d="M12.916 22.44c2.149-1.987 7.334-7.339 7.334-12.69a8.25 8.25 0 00-16.5 0c0 5.351 5.185 10.703 7.334 12.69a1.335 1.335 0 001.832 0zM12 13.126a3.375 3.375 0 100-6.75 3.375 3.375 0 000 6.75z" fill="#1E212C"/></svg><svg fill="none" viewBox="0 0 24 24" id="pinterest" xmlns="http://www.w3.org/2000/svg"><path d="M12.301 1C6.228 1 3 4.865 3 9.078c0 1.953 1.1 4.39 2.86 5.163.502.225.436-.05.868-1.69a.388.388 0 00-.095-.382c-2.516-2.89-.49-8.832 5.31-8.832 8.393 0 6.825 11.533 1.46 11.533-1.383 0-2.413-1.078-2.088-2.411.396-1.59 1.17-3.297 1.17-4.442 0-2.886-4.33-2.457-4.33 1.366 0 1.182.42 1.98.42 1.98s-1.392 5.587-1.65 6.631c-.438 1.768.058 4.629.102 4.875.026.136.18.179.266.067.137-.179 1.82-2.564 2.293-4.288.171-.628.876-3.176.876-3.176.464.832 1.803 1.529 3.229 1.529C17.933 17 21 13.297 21 8.7 20.985 4.297 17.188 1 12.301 1z" fill="#1E212C"/></svg><svg fill="none" viewBox="0 0 24 24" id="plus" xmlns="http://www.w3.org/2000/svg"><path fill-rule="evenodd" clip-rule="evenodd" d="M12 1a1 1 0 011 1v9h9a1 1 0 110 2h-9v9a1 1 0 11-2 0v-9H2a1 1 0 110-2h9V2a1 1 0 011-1z" fill="#1E212C"/></svg><svg fill="none" viewBox="0 0 24 24" id="plus_round" xmlns="http://www.w3.org/2000/svg"><path fill-rule="evenodd" clip-rule="evenodd" d="M5.75 12a1 1 0 011-1h10.5a1 1 0 110 2H6.75a1 1 0 01-1-1z" fill="#1E212C"/><path fill-rule="evenodd" clip-rule="evenodd" d="M12 5.75a1 1 0 011 1v10.5a1 1 0 11-2 0V6.75a1 1 0 011-1z" fill="#1E212C"/><path fill-rule="evenodd" clip-rule="evenodd" d="M12 3a9 9 0 100 18 9 9 0 000-18zM1 12C1 5.925 5.925 1 12 1s11 4.925 11 11-4.925 11-11 11S1 18.075 1 12z" fill="#1E212C"/></svg><svg fill="none" viewBox="0 0 24 24" id="progile" xmlns="http://www.w3.org/2000/svg"><path fill-rule="evenodd" clip-rule="evenodd" d="M12 3.25a3.5 3.5 0 100 7 3.5 3.5 0 000-7zm-5.5 3.5a5.5 5.5 0 1111 0 5.5 5.5 0 01-11 0zM6.104 15.25c-.693 0-1.235.338-1.455.823-.304.67-.58 1.47-.645 2.228-.03.339.112.589.307.71C5.34 19.65 7.725 20.75 12 20.75c4.275 0 6.66-1.1 7.689-1.74.194-.12.336-.37.307-.709-.066-.758-.341-1.557-.646-2.228-.22-.485-.761-.823-1.455-.823H6.104zm-3.276-.003c.608-1.34 1.965-1.997 3.276-1.997h11.792c1.311 0 2.669.656 3.277 1.997.349.77.724 1.805.816 2.883.084.982-.324 2.008-1.244 2.58-1.354.84-4.105 2.04-8.745 2.04-4.64 0-7.391-1.2-8.745-2.04-.92-.572-1.328-1.598-1.244-2.58.093-1.078.467-2.113.817-2.883z" fill="#1E212C"/></svg><svg fill="none" viewBox="0 0 24 24" id="reload" xmlns="http://www.w3.org/2000/svg"><path fill-rule="evenodd" clip-rule="evenodd" d="M6.759 2.508a1 1 0 01.707 1.224l-.473 1.766.507-.293A9 9 0 114.206 17.5a1 1 0 111.732-1A7 7 0 108.5 6.938l-.507.292 1.766.474a1 1 0 01-.518 1.932L5.143 8.537a1 1 0 01-.707-1.224l1.098-4.098a1 1 0 011.225-.707z" fill="#1E212C"/></svg><svg fill="none" viewBox="0 0 24 24" id="right" xmlns="http://www.w3.org/2000/svg"><path fill-rule="evenodd" clip-rule="evenodd" d="M14.793 6.793a1 1 0 011.414 0l4.5 4.5a1 1 0 010 1.414l-4.5 4.5a1 1 0 01-1.414-1.414L17.586 13H4a1 1 0 110-2h13.586l-2.793-2.793a1 1 0 010-1.414z" fill="#1E212C"/></svg><svg fill="none" viewBox="0 0 24 24" id="rss" xmlns="http://www.w3.org/2000/svg"><path d="M4.857 22a2.857 2.857 0 100-5.715 2.857 2.857 0 000 5.715z" fill="#1E212C"/><path d="M11.524 22h3.809C15.332 14.65 9.35 8.668 2 8.667v3.81c5.252 0 9.524 4.271 9.524 9.523z" fill="#1E212C"/><path d="M22 22C22 10.972 13.028 2 2 2v3.81c8.928 0 16.192 7.26 16.192 16.19H22z" fill="#1E212C"/></svg><svg fill="none" viewBox="0 0 24 24" id="search" xmlns="http://www.w3.org/2000/svg"><path fill-rule="evenodd" clip-rule="evenodd" d="M10.875 3.25a7.625 7.625 0 100 15.25 7.625 7.625 0 000-15.25zM1.25 10.875a9.625 9.625 0 1117.098 6.066l4.108 4.101a1 1 0 01-1.412 1.416l-4.111-4.103a9.625 9.625 0 01-15.683-7.48z" fill="#1E212C"/></svg><svg fill="none" viewBox="0 0 24 24" id="share" xmlns="http://www.w3.org/2000/svg"><path fill-rule="evenodd" clip-rule="evenodd" d="M18.375 3.25a2.375 2.375 0 100 4.75 2.375 2.375 0 000-4.75zM14 5.625a4.375 4.375 0 11.711 2.392l-4.871 2.44a4.433 4.433 0 01-.045 2.487l5.33 2.503a4.375 4.375 0 11-.966 1.756L8.766 14.67a4.375 4.375 0 11.113-5.97l5.149-2.58A4.413 4.413 0 0114 5.626zM5.625 9.25a2.375 2.375 0 102.008 3.645c.46-.725.485-1.683.064-2.431A2.374 2.374 0 005.625 9.25zM18.375 16a2.374 2.374 0 100 4.75 2.375 2.375 0 100-4.75z" fill="#1E212C"/></svg><svg fill="none" viewBox="0 0 24 24" id="share_arrow" xmlns="http://www.w3.org/2000/svg"><path d="M23 10.993L13.857 1v5.962h-1.944C5.886 6.962 1 11.832 1 17.84V21l.863-.943a15.516 15.516 0 0111.444-5.033h.55v5.962L23 10.993z" fill="#1E212C"/></svg><svg fill="none" viewBox="0 0 24 24" id="shield" xmlns="http://www.w3.org/2000/svg"><path fill-rule="evenodd" clip-rule="evenodd" d="M3 6.127C3 3.295 5.239 1 8 1h8c2.761 0 5 2.295 5 5.127v5.959c0 4.321-2.728 7.852-6.173 10.078a5.195 5.195 0 01-5.654 0C5.728 19.938 3 16.407 3 12.086V6.127zm5-3.076c-1.657 0-3 1.377-3 3.076v5.959c0 3.37 2.137 6.338 5.24 8.342a3.237 3.237 0 003.52 0c3.103-2.004 5.24-4.972 5.24-8.342V6.127c0-1.699-1.343-3.076-3-3.076H8z" fill="#1E212C"/><path fill-rule="evenodd" clip-rule="evenodd" d="M15.64 8.232a1 1 0 01.128 1.408l-3.75 4.5a1 1 0 01-1.42.118l-2.25-1.938a1 1 0 111.305-1.515l1.48 1.274 3.099-3.72a1 1 0 011.408-.127z" fill="#1E212C"/></svg><svg fill="none" viewBox="0 0 24 24" id="skype" xmlns="http://www.w3.org/2000/svg"><path d="M22.345 14.322C23.937 7.17 17.671.674 10.313 1.922 6.32-.559 1 2.243 1 6.995c0 1.105.305 2.14.835 3.032-1.479 7.167 4.838 13.57 12.19 12.238 5.197 2.748 10.94-2.732 8.32-7.944zm-6.994 4.313c-1.93.793-5.107.798-7.03-.208-2.74-1.462-3.228-4.752-.863-4.752 1.782 0 1.218 2.078 3.017 2.925.826.382 2.602.421 3.634-.275 1.02-.682.926-1.755.372-2.268-1.468-1.355-5.669-.816-7.589-3.189-.834-1.03-.992-2.845.034-4.161 1.787-2.3 7.033-2.44 9.288-.704 2.083 1.612 1.52 3.75-.16 3.75-2.021 0-.959-2.644-4.221-2.644-2.366 0-3.296 1.682-1.63 2.501 2.258 1.122 8.012.747 8.012 5.13-.004 1.824-1.122 3.184-2.864 3.894z" fill="#1E212C"/></svg><svg fill="none" viewBox="0 0 24 24" id="slack" xmlns="http://www.w3.org/2000/svg"><path fill-rule="evenodd" clip-rule="evenodd" d="M14.5 3A1.5 1.5 0 0013 4.5V11h3V4.5A1.5 1.5 0 0014.5 3zM18 6.338V4.5a3.5 3.5 0 10-7 0V12a1 1 0 001 1h7.5A3.5 3.5 0 1018 6.338zM18 11h1.5A1.5 1.5 0 1018 9.5V11z" fill="#1E212C"/><path fill-rule="evenodd" clip-rule="evenodd" d="M11 12a1 1 0 011-1h7.5a3.5 3.5 0 010 7h-1.838A3.5 3.5 0 1111 19.5V12zm2 1v3h6.5a1.5 1.5 0 100-3H13zm1.5 5H13v1.5a1.5 1.5 0 101.5-1.5z" fill="#1E212C"/><path fill-rule="evenodd" clip-rule="evenodd" d="M4.5 13A1.5 1.5 0 106 14.5V13H4.5zm0-2A3.5 3.5 0 106 17.662V19.5a3.5 3.5 0 107 0V12a1 1 0 00-1-1H4.5zm6.5 2H8v6.5a1.5 1.5 0 003 0V13z" fill="#1E212C"/><path fill-rule="evenodd" clip-rule="evenodd" d="M10.074 3.114A1.5 1.5 0 109.5 6H11V4.5a1.5 1.5 0 00-.926-1.386zM13 4.5A3.5 3.5 0 106.338 6H4.5a3.5 3.5 0 100 7H12a1 1 0 001-1V4.5zM11 11V8H4.5a1.5 1.5 0 000 3H11z" fill="#1E212C"/></svg><svg fill="none" viewBox="0 0 24 24" id="slack-filled" xmlns="http://www.w3.org/2000/svg"><path d="M9.106 12.599a2.311 2.311 0 00-2.311 2.31v5.782a2.311 2.311 0 004.622 0V14.91a2.313 2.313 0 00-2.311-2.311zM1.017 14.909a2.313 2.313 0 004.626 0v-2.313H3.33a2.313 2.313 0 00-2.313 2.313zM9.109 1h-.003a2.313 2.313 0 000 4.626h2.311V3.308A2.31 2.31 0 009.11 1zM3.314 11.424h5.792a2.313 2.313 0 000-4.626H3.314a2.313 2.313 0 000 4.626zM20.669 6.798a2.308 2.308 0 00-2.309 2.308v2.317h2.312a2.313 2.313 0 000-4.625h-.003zM12.587 3.313V9.11a2.311 2.311 0 004.622 0V3.313a2.311 2.311 0 00-4.622 0zM17.208 20.689a2.311 2.311 0 00-2.31-2.312h-2.312v2.313a2.311 2.311 0 004.622-.002zM20.69 12.596h-5.792a2.313 2.313 0 000 4.626h5.792a2.313 2.313 0 000-4.626z" fill="#1E212C"/></svg><svg fill="none" viewBox="0 0 24 24" id="star" xmlns="http://www.w3.org/2000/svg"><path fill-rule="evenodd" clip-rule="evenodd" d="M10.17 2.202c.694-1.603 2.966-1.603 3.66 0l2.102 4.846 5.26.501c1.738.166 2.44 2.327 1.13 3.483l-3.96 3.496 1.15 5.156c.379 1.705-1.46 3.04-2.963 2.152L12 19.151l-4.549 2.685c-1.504.888-3.342-.447-2.962-2.152l1.148-5.156-3.96-3.496C.369 9.876 1.072 7.715 2.81 7.549l5.259-.5 2.101-4.847zm3.932 5.64L12 2.996 9.9 7.841a1.996 1.996 0 01-1.642 1.193l-5.259.5 3.96 3.497c.545.481.785 1.22.627 1.93l-1.148 5.156 4.549-2.686a1.996 1.996 0 012.029 0l4.549 2.686-1.149-5.156a1.996 1.996 0 01.627-1.93l3.96-3.496-5.259-.501a1.996 1.996 0 01-1.641-1.193z" fill="#1E212C"/></svg><svg fill="none" viewBox="0 0 24 24" id="stripe" xmlns="http://www.w3.org/2000/svg"><path d="M21.287 10.519c-.407 0-.853.303-.853 1.03h1.667c0-.727-.42-1.03-.814-1.03zM15.952 13.65c-.381 0-.607-.135-.762-.302l-.007-2.391c.168-.187.4-.316.769-.316.588 0 .995.658.995 1.502 0 .863-.4 1.508-.995 1.508z" fill="#1E212C"/><path fill-rule="evenodd" clip-rule="evenodd" d="M2.813 3A2.813 2.813 0 000 5.813v12.375A2.813 2.813 0 002.813 21h18.375A2.813 2.813 0 0024 18.187V5.813A2.813 2.813 0 0021.187 3H2.813zm18.48 6.21c1.531 0 2.332 1.302 2.332 2.952 0 .09-.004.238-.008.364l-.005.21h-3.159c.072.76.627.98 1.254.98.64 0 1.143-.136 1.582-.355v1.289c-.44.245-1.02.419-1.79.419-1.575 0-2.673-.98-2.673-2.92 0-1.637.93-2.939 2.467-2.939zm-4.953 0c-.633 0-1.04.297-1.267.503l-.084-.4h-1.42v7.515l1.614-.341.007-1.824c.232.167.575.406 1.143.406 1.156 0 2.21-.928 2.21-2.971-.007-1.87-1.073-2.888-2.203-2.888zm-3.376-2.038V8.48l-1.621.348V7.513l1.621-.341zm0 2.141h-1.621v5.64h1.621v-5.64zm-3.462.01l.103.476c.381-.696 1.137-.554 1.344-.477v1.483c-.2-.071-.846-.162-1.227.335v3.821H8.107V9.322h1.395zM6.374 7.918l-1.576.335-.007 5.162c0 .954.717 1.656 1.673 1.656.53 0 .918-.096 1.13-.212V13.55c-.206.084-1.227.38-1.227-.573V10.69h1.228V9.317H6.367l.007-1.398zm-3.816 2.69c-.342 0-.549.097-.549.348 0 .274.356.395.797.545.72.244 1.667.565 1.67 1.756 0 1.153-.923 1.817-2.267 1.817-.555 0-1.162-.11-1.763-.367v-1.534c.543.296 1.227.516 1.763.516.362 0 .62-.097.62-.394 0-.304-.385-.442-.85-.61-.71-.256-1.604-.578-1.604-1.652 0-1.14.872-1.824 2.183-1.824.536 0 1.066.084 1.602.297v1.514a3.608 3.608 0 00-1.602-.412z" fill="#1E212C"/></svg><svg fill="none" viewBox="0 0 24 24" id="telegram" xmlns="http://www.w3.org/2000/svg"><path d="M9.633 15.181l-.364 5.584c.52 0 .746-.244 1.016-.537l2.441-2.545 5.059 4.041c.927.564 1.581.267 1.831-.93l3.32-16.973h.001c.295-1.497-.495-2.082-1.4-1.715L2.022 10.257c-1.332.564-1.311 1.374-.226 1.741l4.99 1.693 11.59-7.91c.545-.395 1.04-.177.633.217l-9.375 9.183z" fill="#1E212C"/></svg><svg fill="none" viewBox="0 0 24 24" id="top_left" xmlns="http://www.w3.org/2000/svg"><path fill-rule="evenodd" clip-rule="evenodd" d="M5 6a1 1 0 011-1h7a1 1 0 110 2H8.414l10.293 10.293a1 1 0 01-1.414 1.414L7 8.414V13a1 1 0 11-2 0V6z" fill="#1E212C"/></svg><svg fill="none" viewBox="0 0 24 24" id="top_right" xmlns="http://www.w3.org/2000/svg"><path fill-rule="evenodd" clip-rule="evenodd" d="M10 6a1 1 0 011-1h7a1 1 0 011 1v7a1 1 0 11-2 0V8.414L6.707 18.707a1 1 0 01-1.414-1.414L15.586 7H11a1 1 0 01-1-1z" fill="#1E212C"/></svg><svg fill="none" viewBox="0 0 24 24" id="trunmblr" xmlns="http://www.w3.org/2000/svg"><path d="M18 21.711l-1.007-3.14c-.393.197-1.138.366-1.687.385h-.078c-1.597 0-1.91-1.256-1.923-2.174V9.935h4.2v-3.33H13.32V1h-3.064c-.05 0-.14.047-.151.164C9.932 2.881 9.164 5.89 6 7.094v2.84h2.105v7.19c0 2.433 1.689 5.876 6.127 5.876l-.01-.002h.156c1.53-.027 3.242-.704 3.622-1.287z" fill="#1E212C"/></svg><svg fill="none" viewBox="0 0 24 24" id="twitch" xmlns="http://www.w3.org/2000/svg"><path d="M2 5.827V21.13h5.249V24h2.866l2.861-2.871h4.296L23 15.392V2H3.43L2 5.827zm3.34-1.916h15.75v10.523l-3.34 3.347h-5.251l-2.862 2.867V17.78H5.34V3.911z" fill="#1E212C"/><path d="M10.591 7.74h1.908v5.739h-1.908V7.74zM15.839 7.74h1.909v5.739h-1.91V7.74z" fill="#1E212C"/></svg><svg fill="none" viewBox="0 0 24 24" id="twitter" xmlns="http://www.w3.org/2000/svg"><path d="M22.5 5.772a8.902 8.902 0 01-2.474.65 4.18 4.18 0 001.894-2.28 8.922 8.922 0 01-2.737 1 4.387 4.387 0 00-3.145-1.302c-2.379 0-4.308 1.847-4.308 4.124 0 .323.038.638.112.94-3.58-.173-6.754-1.815-8.879-4.31a3.962 3.962 0 00-.583 2.073c0 1.431.762 2.694 1.916 3.433a4.455 4.455 0 01-1.95-.518v.052c0 1.997 1.485 3.665 3.454 4.044-.36.093-.741.145-1.135.145a4.31 4.31 0 01-.81-.077c.548 1.64 2.138 2.832 4.023 2.865a8.89 8.89 0 01-5.35 1.763c-.348 0-.69-.02-1.028-.057a12.572 12.572 0 006.603 1.856c7.925 0 12.257-6.285 12.257-11.736l-.015-.534a8.412 8.412 0 002.155-2.13z" fill="#1E212C"/></svg><svg fill="none" viewBox="0 0 24 24" id="unlock" xmlns="http://www.w3.org/2000/svg"><path fill-rule="evenodd" clip-rule="evenodd" d="M20.75 17.75V13a3 3 0 00-3-3H6.25a3 3 0 00-3 3v4.75a3 3 0 003 3h11.5a3 3 0 003-3zm2-4.75v4.75a5 5 0 01-5 5H6.25a5 5 0 01-5-5V13a5 5 0 015-5h11.5a5 5 0 015 5z" fill="#1E212C"/><path fill-rule="evenodd" clip-rule="evenodd" d="M12 3.25a5 5 0 00-5 5 1 1 0 11-2 0 7 7 0 0111.375-5.464 1 1 0 01-1.25 1.56A4.975 4.975 0 0012 3.25zM12 12.5a1 1 0 011 1v3a1 1 0 11-2 0v-3a1 1 0 011-1z" fill="#1E212C"/></svg><svg fill="none" viewBox="0 0 24 24" id="up" xmlns="http://www.w3.org/2000/svg"><path fill-rule="evenodd" clip-rule="evenodd" d="M6.793 9.207a1 1 0 010-1.414l4.5-4.5a1 1 0 011.414 0l4.5 4.5a1 1 0 01-1.414 1.414L13 6.414V20a1 1 0 11-2 0V6.414L8.207 9.207a1 1 0 01-1.414 0z" fill="#1E212C"/></svg><svg fill="none" viewBox="0 0 24 24" id="up_down_select" xmlns="http://www.w3.org/2000/svg"><path d="M12 1l6.928 9H5.072L12 1zM12 23l-6.928-9.75h13.856L12 23z" fill="#1E212C"/></svg><svg fill="none" viewBox="0 0 24 24" id="upload" xmlns="http://www.w3.org/2000/svg"><path fill-rule="evenodd" clip-rule="evenodd" d="M11.293 1.543a1 1 0 011.414 0l4.5 4.5a1 1 0 01-1.414 1.414L13 4.664V17.25a1 1 0 11-2 0V4.664L8.207 7.457a1 1 0 01-1.414-1.414l4.5-4.5zM2.25 14a1 1 0 011 1v3.75a2 2 0 002 2h13.5a2 2 0 002-2V15a1 1 0 112 0v3.75a4 4 0 01-4 4H5.25a4 4 0 01-4-4V15a1 1 0 011-1z" fill="#1E212C"/></svg><svg fill="none" viewBox="0 0 24 24" id="vertical" xmlns="http://www.w3.org/2000/svg"><path fill-rule="evenodd" clip-rule="evenodd" d="M6.793 2.793a1 1 0 011.414 0l3.5 3.5a1 1 0 01-1.414 1.414L8.5 5.914V19.5a1 1 0 11-2 0V5.914L4.707 7.707a1 1 0 01-1.414-1.414l3.5-3.5zM16.5 3.5a1 1 0 011 1v13.586l1.793-1.793a1 1 0 011.414 1.414l-3.5 3.5a1 1 0 01-1.414 0l-3.5-3.5a1 1 0 011.414-1.414l1.793 1.793V4.5a1 1 0 011-1z" fill="#1E212C"/></svg><svg fill="none" viewBox="0 0 24 24" id="viber" xmlns="http://www.w3.org/2000/svg"><path d="M21.796 13.736c.65-5.52-.313-9.005-2.051-10.58v-.002C16.94.463 7.466.064 4.11 3.275c-1.507 1.57-2.038 3.876-2.096 6.73-.058 2.855-.127 8.202 4.819 9.653h.005l-.005 2.215s-.034.898.535 1.078c.651.213.946-.204 2.97-2.64 3.386.296 5.986-.382 6.281-.48.684-.232 4.552-.747 5.178-6.095zM10.67 18.752s-2.143 2.692-2.809 3.39c-.218.228-.457.207-.454-.244 0-.296.017-3.678.017-3.678-4.194-1.21-3.947-5.764-3.901-8.146.045-2.383.478-4.335 1.754-5.65 2.945-2.78 11.251-2.159 13.368-.155 2.587 2.31 1.666 8.839 1.671 9.061-.531 4.464-3.666 4.747-4.242 4.94-.247.083-2.533.675-5.404.482z" fill="#1E212C"/><path d="M11.857 4.947c-.35 0-.35.55 0 .555 2.715.02 4.951 1.927 4.976 5.425 0 .37.536.365.532-.004-.03-3.77-2.472-5.954-5.508-5.976z" fill="#1E212C"/><path d="M15.429 10.347c-.009.365.527.382.531.013.045-2.078-1.227-3.79-3.617-3.97-.35-.026-.386.528-.037.554 2.073.158 3.164 1.583 3.123 3.403zM14.856 12.71c-.45-.261-.906-.098-1.095.16l-.396.515c-.2.262-.576.227-.576.227-2.74-.73-3.473-3.618-3.473-3.618s-.034-.391.217-.601l.495-.412c.247-.198.403-.674.152-1.142-.673-1.225-1.125-1.647-1.355-1.971-.242-.305-.605-.374-.984-.168h-.008c-.786.463-1.647 1.33-1.372 2.224.47.941 1.334 3.942 4.087 6.21 1.293 1.073 3.34 2.172 4.21 2.425l.008.013c.856.288 1.69-.613 2.134-1.43v-.006c.197-.395.132-.768-.157-1.013-.51-.502-1.281-1.056-1.887-1.412z" fill="#1E212C"/><path d="M12.718 8.434c.873.051 1.297.511 1.342 1.455.017.37.548.344.532-.025-.058-1.233-.696-1.92-1.845-1.984-.35-.021-.383.533-.03.554z" fill="#1E212C"/></svg><svg fill="none" viewBox="0 0 24 24" id="vimeo" xmlns="http://www.w3.org/2000/svg"><path d="M19.789 2.005c-3.051-.115-5.112 1.702-6.199 5.423a3.828 3.828 0 011.63-.376c1.117 0 1.61.664 1.478 1.983-.066.799-.557 1.96-1.477 3.489-.925 1.529-1.616 2.294-2.076 2.294-1.395 0-2.234-6.937-2.518-8.831-.395-2.633-1.449-3.865-3.16-3.692C5.896 2.45 3.154 5.389 1 7.38l1.035 1.402c.985-.726 1.56-1.09 1.724-1.09 1.715 0 2.546 6.064 3.878 10.574C8.53 20.755 9.602 22 10.893 22c2.076 0 4.604-2.042 7.6-6.127 2.892-3.912 4.39-6.995 4.486-9.243l.011-.01c.123-3.014-.935-4.557-3.201-4.615z" fill="#1E212C"/></svg><svg fill="none" viewBox="0 0 24 24" id="vkontakte" xmlns="http://www.w3.org/2000/svg"><g clip-path="url(#edclip0_2491_3812)"><path d="M19.915 13.028c-.388-.49-.277-.708 0-1.146.005-.005 3.208-4.431 3.538-5.932l.002-.001c.164-.547 0-.949-.793-.949h-2.624c-.668 0-.976.345-1.141.731 0 0-1.336 3.198-3.226 5.271-.61.599-.892.791-1.225.791-.164 0-.419-.192-.419-.739V5.949c0-.656-.187-.949-.74-.949H9.161c-.419 0-.668.306-.668.591 0 .622.945.765 1.043 2.515v3.797c0 .832-.151.985-.486.985-.892 0-3.057-3.211-4.34-6.886-.259-.713-.512-1.001-1.185-1.001H.9c-.749 0-.9.345-.9.731 0 .682.892 4.073 4.148 8.553C6.318 17.343 9.374 19 12.154 19c1.671 0 1.875-.368 1.875-1.001 0-2.922-.151-3.198.686-3.198.388 0 1.056.192 2.616 1.667C19.114 18.217 19.407 19 20.405 19h2.624c.748 0 1.127-.368.909-1.094-.499-1.527-3.871-4.668-4.023-4.878z" fill="#1E212C"/></g><defs><clipPath id="edclip0_2491_3812"><path fill="#fff" d="M0 0h24v24H0z"/></clipPath></defs></svg><svg fill="none" viewBox="0 0 24 24" id="volume" xmlns="http://www.w3.org/2000/svg"><path fill-rule="evenodd" clip-rule="evenodd" d="M16.586 5.669a1 1 0 011.376-.327 8.214 8.214 0 013.913 7.002 8.214 8.214 0 01-3.913 7.002 1 1 0 11-1.049-1.703 6.214 6.214 0 002.962-5.3 6.214 6.214 0 00-2.962-5.298 1 1 0 01-.327-1.376z" fill="#1E212C"/><path fill-rule="evenodd" clip-rule="evenodd" d="M15.992 9.972a1 1 0 011.41-.105c.678.583 1.035 1.523 1.035 2.476 0 .954-.357 1.893-1.035 2.477a1 1 0 11-1.304-1.516c.147-.127.34-.46.34-.96 0-.5-.193-.835-.34-.961a1 1 0 01-.106-1.41zM5 8.875a1 1 0 00-1 1v4.25a1 1 0 001 1h1.438a1 1 0 110 2H5a3 3 0 01-3-3v-4.25a3 3 0 013-3h1.438a1 1 0 010 2H5z" fill="#1E212C"/><path fill-rule="evenodd" clip-rule="evenodd" d="M13 3.938a.3.3 0 00-.502-.222L7.11 8.615l-1.345-1.48 5.388-4.899C12.63.893 15 1.942 15 3.938v16.123c0 1.997-2.37 3.045-3.847 1.702l-5.388-4.899 1.345-1.48 5.388 4.899A.3.3 0 0013 20.06V3.938z" fill="#1E212C"/></svg><svg fill="none" viewBox="0 0 24 24" id="volume-off" xmlns="http://www.w3.org/2000/svg"><path fill-rule="evenodd" clip-rule="evenodd" d="M14.4 18.7c.7.5 1.6.1 1.6-.8v-4.5l-3.7 3.7 2.1 1.6zM20.7 5.3c-.4-.4-1-.4-1.4 0L16 8.6V6.1c0-.8-1-1.3-1.6-.8l-2.8 2.3c-.4.2-.8.4-1.3.4H8c-1.1 0-2 .9-2 2v4c0 1.1.9 2 2 2h.6l-3.3 3.3c-.4.4-.4 1 0 1.4.4.4 1 .4 1.4 0l14-14c.4-.4.4-1 0-1.4z" fill="#1E212C"/></svg><svg fill="none" viewBox="0 0 24 24" id="volume-on" xmlns="http://www.w3.org/2000/svg"><path d="M2 10c0-1.1.9-2 2-2h2.3c.5 0 .9-.2 1.2-.4l2.8-2.3c.7-.5 1.7-.1 1.7.8v11.8c0 .8-1 1.3-1.6.8l-2.8-2.3c-.4-.2-.8-.4-1.3-.4H4c-1.1 0-2-.9-2-2v-4zM15 17c-.3 0-.5-.1-.7-.3-.4-.4-.4-1 0-1.4 0 0 1.2-1.3 1.2-3.3 0-2-1.2-3.2-1.2-3.3-.4-.4-.4-1 0-1.4.4-.4 1-.4 1.4 0 .1.1 1.8 1.8 1.8 4.7 0 2.9-1.7 4.6-1.8 4.7-.2.2-.4.3-.7.3z" fill="#1E212C"/><path d="M18 21c-.3 0-.5-.1-.7-.3-.4-.4-.4-1 0-1.4 0 0 2.9-2.8 2.9-7.3s-2.9-7.2-2.9-7.3c-.4-.4-.4-1 0-1.4.4-.4 1-.4 1.4 0 .1.1 3.5 3.4 3.5 8.7 0 5.4-3.4 8.6-3.5 8.7-.2.2-.5.3-.7.3z" fill="#1E212C"/></svg><svg fill="none" viewBox="0 0 24 24" id="wallet" xmlns="http://www.w3.org/2000/svg"><path fill-rule="evenodd" clip-rule="evenodd" d="M4.25 3.25a1 1 0 00-1 1v15.5a1 1 0 001 1h15.5a1 1 0 001-1v-3.17c-.313.11-.65.17-1 .17H14a3 3 0 01-3-3v-3.5a3 3 0 013-3h5.75c.35 0 .687.06 1 .17V4.25a1 1 0 00-1-1H4.25zm18.5 1a3 3 0 00-3-3H4.25a3 3 0 00-3 3v15.5a3 3 0 003 3h15.5a3 3 0 003-3V4.25zm-2 6a1 1 0 00-1-1H14a1 1 0 00-1 1v3.5a1 1 0 001 1h5.75a1 1 0 001-1v-3.5zm-5 2a.25.25 0 100-.5.25.25 0 000 .5zM14 12a1.75 1.75 0 113.5 0 1.75 1.75 0 01-3.5 0z" fill="#1E212C"/></svg><svg fill="none" viewBox="0 0 24 24" id="wechat" xmlns="http://www.w3.org/2000/svg"><path d="M9.164 1.688C4.472 1.688.656 4.992.656 9.053c0 2.146 1.055 4.138 2.917 5.552l-.715 1.485a.757.757 0 00.118.834.697.697 0 00.796.172l2.507-1.115c1.175.37 2.428.482 3.686.407.392-.02.692-.369.67-.775-.02-.408-.392-.741-.745-.696-1.174.062-2.34-.045-3.423-.42a.7.7 0 00-.503.021l-.972.433.128-.266a.752.752 0 00-.26-.954c-1.77-1.149-2.786-2.853-2.786-4.678 0-3.25 3.18-5.893 7.09-5.893 3.91 0 7.09 2.643 7.09 5.893 0 .22-.01.428-.046.636-.069.4.19.784.573.854.392.076.753-.194.823-.595.05-.293.068-.586.068-.895 0-4.062-3.816-7.367-8.508-7.367z" fill="#1E212C"/><path d="M20.94 19.353c1.516-1.114 2.404-2.72 2.404-4.407 0-3.25-3.18-5.892-7.09-5.892-3.91 0-7.09 2.643-7.09 5.892 0 3.6 3.857 6.505 8.372 5.792l3.401 1.516a.693.693 0 00.795-.174.754.754 0 00.12-.834l-.912-1.893zm-1.272-.903a.752.752 0 00-.282.968l.33.69-1.812-.81a.705.705 0 00-.4-.048c-.435.08-.845.116-1.25.116-3.128 0-5.672-1.983-5.672-4.42 0-2.436 2.544-4.42 5.672-4.42 3.128 0 5.672 1.984 5.672 4.42 0 1.374-.823 2.65-2.258 3.504zM6.356 6.107h-.014c-.391 0-.702.33-.702.737a.73.73 0 00.716.736c.391 0 .709-.33.709-.736a.723.723 0 00-.709-.737zM12.028 6.107h-.014c-.392 0-.702.33-.702.737a.73.73 0 00.716.736c.391 0 .709-.33.709-.736a.723.723 0 00-.71-.737z" fill="#1E212C"/><path d="M14.155 12.737h-.014c-.393 0-.702.33-.702.736a.73.73 0 00.716.737c.391 0 .709-.33.709-.737a.723.723 0 00-.71-.736zM18.409 12.737h-.014c-.392 0-.702.33-.702.736a.73.73 0 00.716.737c.391 0 .709-.33.709-.737a.723.723 0 00-.71-.736z" fill="#1E212C"/><path d="M16.254 9.054c0-3.25-3.18-5.893-7.09-5.893-3.91 0-7.09 2.643-7.09 5.893 0 1.825 1.015 3.53 2.787 4.678.31.2.422.615.259.954l-.128.266.972-.433a.7.7 0 01.503-.022c1.083.376 2.249.483 3.423.421.353-.045.725.288.746.696.021.406-.28.754-.67.775-1.259.075-2.512-.037-3.687-.407l-2.507 1.115a.695.695 0 01-.796-.172.757.757 0 01-.118-.834l.715-1.485C1.711 13.192.656 11.2.656 9.054c0-4.062 3.816-7.367 8.508-7.367 4.692 0 8.508 3.305 8.508 7.367 0 .309-.019.602-.068.895-.07.401-.431.67-.823.595-.384-.07-.642-.453-.572-.854a3.74 3.74 0 00.045-.636zm0 0c3.91 0 7.09 2.643 7.09 5.892 0 1.687-.888 3.293-2.404 4.407l.912 1.893a.754.754 0 01-.12.834.693.693 0 01-.794.174l-3.402-1.516c-4.515.713-8.372-2.192-8.372-5.792 0-3.25 3.18-5.892 7.09-5.892zm3.414 9.396a.752.752 0 00-.282.968l.33.69-1.812-.81a.705.705 0 00-.4-.048c-.435.08-.845.116-1.25.116-3.128 0-5.672-1.983-5.672-4.42 0-2.436 2.544-4.42 5.672-4.42 3.128 0 5.672 1.984 5.672 4.42 0 1.374-.823 2.65-2.258 3.504zM6.356 6.107h-.014c-.391 0-.702.33-.702.737a.73.73 0 00.716.736c.391 0 .709-.33.709-.736a.723.723 0 00-.709-.737zm5.672 0h-.014c-.392 0-.702.33-.702.737a.73.73 0 00.716.736c.391 0 .709-.33.709-.736a.723.723 0 00-.71-.737zm2.127 6.63h-.014c-.393 0-.702.33-.702.736a.73.73 0 00.716.737c.391 0 .709-.33.709-.737a.723.723 0 00-.71-.736zm4.254 0h-.014c-.392 0-.702.33-.702.736a.73.73 0 00.716.737c.391 0 .709-.33.709-.737a.723.723 0 00-.71-.736z" stroke="#1E212C" stroke-width=".2"/></svg><svg fill="none" viewBox="0 0 24 24" id="whatsapp" xmlns="http://www.w3.org/2000/svg"><path d="M22 11.742c0 5.381-4.395 9.743-9.818 9.743a9.835 9.835 0 01-4.746-1.212L2 22l1.772-5.227a9.64 9.64 0 01-1.409-5.03C2.363 6.361 6.76 2 12.182 2 17.605 2 22 6.362 22 11.742zm-9.818-8.19c-4.552 0-8.255 3.674-8.255 8.19 0 1.793.584 3.452 1.573 4.803l-1.032 3.042 3.172-1.009a8.25 8.25 0 004.542 1.355c4.551 0 8.255-3.674 8.255-8.19 0-4.517-3.703-8.191-8.255-8.191zm4.958 10.434c-.06-.1-.221-.16-.462-.278-.24-.12-1.424-.698-1.644-.777-.22-.08-.382-.12-.542.12-.16.238-.621.776-.762.935-.14.16-.28.18-.522.06-.24-.119-1.015-.371-1.935-1.185-.715-.633-1.198-1.414-1.339-1.653-.14-.24-.014-.368.106-.487.108-.107.24-.279.361-.418.12-.14.16-.24.24-.399.081-.16.041-.298-.02-.418-.06-.12-.541-1.295-.742-1.773-.2-.478-.4-.398-.541-.398-.14 0-.3-.02-.461-.02-.16 0-.422.06-.642.299-.22.239-.842.816-.842 1.991 0 1.175.862 2.31.982 2.47.12.159 1.665 2.649 4.111 3.605 2.447.956 2.447.637 2.889.597.44-.04 1.423-.578 1.625-1.135.2-.558.2-1.036.14-1.136z" fill="#1E212C"/></svg><svg fill="none" viewBox="0 0 24 24" id="youtube" xmlns="http://www.w3.org/2000/svg"><path fill-rule="evenodd" clip-rule="evenodd" d="M21.39 4.114a3.007 3.007 0 012.116 2.115c.514 1.878.494 5.792.494 5.792s0 3.895-.494 5.773a3.007 3.007 0 01-2.116 2.115c-1.878.495-9.39.495-9.39.495s-7.493 0-9.39-.514a3.007 3.007 0 01-2.116-2.116C0 15.916 0 12.001 0 12.001S0 8.107.494 6.23A3.068 3.068 0 012.61 4.094C4.488 3.6 12 3.6 12 3.6s7.513 0 9.391.514zm-5.535 7.888L9.608 15.6V8.404l6.247 3.598z" fill="#1E212C"/></svg></svg>