<svg width="24" height="24" viewBox="0 0 24 24" fill="none" xmlns="http://www.w3.org/2000/svg">
    <path fill-rule="evenodd" clip-rule="evenodd"
          d="M12.9158 22.4406C15.0647 20.4527 20.25 15.1014 20.25 9.75C20.25 5.19365 16.5563 1.5 12 1.5C7.44365 1.5 3.75 5.19365 3.75 9.75C3.75 15.1014 8.93533 20.4527 11.0842 22.4406C11.6082 22.9255 12.3918 22.9255 12.9158 22.4406ZM12 13.125C13.864 13.125 15.375 11.614 15.375 9.75C15.375 7.88604 13.864 6.375 12 6.375C10.136 6.375 8.625 7.88604 8.625 9.75C8.625 11.614 10.136 13.125 12 13.125Z"
          fill="#1E212C"/>
</svg>
