<svg width="24" height="24" viewBox="0 0 24 24" fill="none" xmlns="http://www.w3.org/2000/svg">
    <path fill-rule="evenodd" clip-rule="evenodd"
          d="M7.25 3.75C7.25 2.36929 8.36929 1.25 9.75 1.25H14.25C15.6307 1.25 16.75 2.36929 16.75 3.75V4.25H21.75C22.3023 4.25 22.75 4.69772 22.75 5.25C22.75 5.80228 22.3023 6.25 21.75 6.25H20.5V18.75C20.5 20.9591 18.7091 22.75 16.5 22.75H7.5C5.29086 22.75 3.5 20.9591 3.5 18.75V6.25H2.25C1.69772 6.25 1.25 5.80228 1.25 5.25C1.25 4.69772 1.69772 4.25 2.25 4.25H7.25V3.75ZM9.25 4.25H14.75V3.75C14.75 3.47386 14.5261 3.25 14.25 3.25H9.75C9.47386 3.25 9.25 3.47386 9.25 3.75V4.25ZM5.5 6.25V18.75C5.5 19.8546 6.39543 20.75 7.5 20.75H16.5C17.6046 20.75 18.5 19.8546 18.5 18.75V6.25H5.5ZM12 8C12.5523 8 13 8.44772 13 9L13 18C13 18.5523 12.5523 19 12 19C11.4477 19 11 18.5523 11 18L11 9C11 8.44772 11.4477 8 12 8Z"
          fill="#1E212C"/>
</svg>
