<svg width="24" height="24" viewBox="0 0 24 24" fill="none" xmlns="http://www.w3.org/2000/svg">
    <path fill-rule="evenodd" clip-rule="evenodd"
          d="M9.84871 20.75C9.98824 20.75 10.1176 20.6758 10.1881 20.5549L10.1943 20.5444L14.7805 13.1092L14.7805 3.25L6.1947 3.25C6.01047 3.25 5.85114 3.37789 5.81122 3.5575L5.80775 3.5731L3.25779 13.5327C3.21106 13.7741 3.39607 14 3.64353 14L7.53052 14C8.18169 14 8.84061 14.2176 9.32033 14.6858C9.82464 15.178 10.0584 15.8829 9.9084 16.6424L9.18955 20.281C9.14156 20.5239 9.32747 20.75 9.57489 20.75L9.84871 20.75ZM16.7805 3.25L16.7805 12.3929L20.324 12.3929C20.5397 12.3929 20.7152 12.2188 20.7168 12.0029C20.7168 12.0029 20.7168 12.0029 20.7168 12.0029L20.7805 3.64578C20.7822 3.42784 20.6059 3.25 20.3877 3.25L16.7805 3.25ZM16.3386 14.3929L11.9084 21.575C11.4781 22.3027 10.6953 22.75 9.84871 22.75L9.57489 22.75C8.06718 22.75 6.93526 21.3724 7.22748 19.8933L7.94633 16.2548C7.95912 16.19 7.95083 16.1606 7.94883 16.1541C7.94661 16.1469 7.94173 16.135 7.92338 16.117C7.88155 16.0762 7.757 16 7.53052 16L3.64353 16C2.11256 16 0.975611 14.5821 1.30769 13.0879L1.31115 13.0723L3.86286 3.10592C4.11267 2.02032 5.07938 1.25 6.1947 1.25L20.3877 1.25C21.7163 1.25 22.7906 2.33243 22.7804 3.66102C22.7804 3.66104 22.7804 3.66099 22.7804 3.66102L22.7168 12.0182C22.7067 13.3324 21.6385 14.3929 20.324 14.3929L16.3386 14.3929Z"
          fill="#1E212C"/>
</svg>
