<svg width="24" height="24" viewBox="0 0 24 24" fill="none" xmlns="http://www.w3.org/2000/svg">
    <path fill-rule="evenodd" clip-rule="evenodd"
          d="M4.25 3.25C3.69772 3.25 3.25 3.69771 3.25 4.25L3.25 19.75C3.25 20.3023 3.69771 20.75 4.25 20.75L19.75 20.75C20.3023 20.75 20.75 20.3023 20.75 19.75V16.5793C20.4372 16.6898 20.1006 16.75 19.75 16.75L14 16.75C12.3431 16.75 11 15.4068 11 13.75V10.25C11 8.59314 12.3432 7.24999 14 7.25L19.75 7.25001C20.1006 7.25001 20.4372 7.31016 20.75 7.42071V4.25003C20.75 3.69775 20.3023 3.25004 19.75 3.25003L4.25 3.25ZM22.75 4.25003C22.75 2.59318 21.4069 1.25004 19.75 1.25003L4.25001 1.25C2.59315 1.25 1.25 2.59314 1.25 4.25L1.25 19.75C1.25 21.4069 2.59314 22.75 4.25 22.75L19.75 22.75C21.4069 22.75 22.75 21.4068 22.75 19.75V4.25003ZM20.75 10.25C20.75 9.69772 20.3023 9.25001 19.75 9.25001L14 9.25C13.4477 9.25 13 9.69771 13 10.25V13.75C13 14.3023 13.4477 14.75 14 14.75L19.75 14.75C20.3023 14.75 20.75 14.3023 20.75 13.75V10.25ZM15.75 12.25C15.8881 12.25 16 12.1381 16 12C16 11.8619 15.8881 11.75 15.75 11.75C15.6119 11.75 15.5 11.8619 15.5 12C15.5 12.1381 15.6119 12.25 15.75 12.25ZM14 12C14 11.0335 14.7835 10.25 15.75 10.25C16.7165 10.25 17.5 11.0335 17.5 12C17.5 12.9665 16.7165 13.75 15.75 13.75C14.7835 13.75 14 12.9665 14 12Z"
          fill="#1E212C"/>
</svg>
